<svg width="1440" height="232" viewBox="0 0 1440 232" fill="none" xmlns="http://www.w3.org/2000/svg">
<g clip-path="url(#clip0_1283_1700)">
<path d="M9.66446 -241.756H1456V159.024C1456 159.024 1449.65 155.724 1448.89 176.301C1448.12 196.878 1436.19 229.657 1436.19 229.657C1436.19 229.657 1424.76 211.621 1416.38 193.578C1407.99 175.536 1409.78 133.108 1409.78 133.108C1409.78 133.108 1398.35 134.884 1357.96 150.386C1354.41 122.437 1387.68 100.078 1387.68 100.078C1387.68 100.078 1372.19 91.9481 1368.37 93.4725C1364.56 94.997 1361.52 96.5215 1353.64 96.0133C1345.77 95.5052 1343.74 89.4073 1341.96 88.391C1340.18 87.3747 1337.65 90.1663 1332.31 94.4888C1326.97 98.8114 1318.59 90.681 1316.56 86.3584C1314.53 82.0358 1310.97 80.0098 1303.35 78.7361C1295.73 77.4625 1298.02 65.5242 1299.29 57.9019C1300.56 50.2796 1294.21 44.4392 1292.69 43.6737C1291.16 42.9081 1281.77 47.4815 1279.99 45.7063C1278.21 43.931 1278.46 42.4066 1269.83 46.2144C1261.19 50.0223 1261.7 41.8984 1259.67 30.4617C1257.64 19.025 1252.31 25.1294 1244.94 18.7742C1237.57 12.419 1127.61 4.2952 1127.61 4.2952C1127.61 4.2952 1090.78 2.2626 1072.24 0.738144C1053.7 -0.786301 1022.21 -6.37598 994.521 -9.42488C966.834 -12.4738 895.983 -13.9983 842.647 -12.9819C789.311 -11.9657 821.821 -10.1904 813.186 -2.31076C804.55 5.56889 791.343 -2.31076 770.009 -1.04369C748.675 0.223389 770.009 -1.04367 766.453 4.28862C762.898 9.62091 760.358 10.3864 753.246 12.9272C746.135 15.468 750.964 14.1943 744.611 20.5495C738.258 26.9047 730.645 26.6473 721.753 25.631C712.86 24.6147 711.851 13.4353 702.45 26.1391C693.05 38.8429 673.246 32.9959 669.941 29.188C666.636 25.3802 661.305 24.1065 651.654 20.0413C642.003 15.9761 643.527 12.6764 642.003 8.35381C640.479 4.03122 633.368 7.08675 630.32 5.81306C627.272 4.5394 632.094 -9.93965 618.637 3.78046C601.366 20.5495 586.385 2.256 586.385 2.256C586.385 2.256 587.143 -6.1252 574.193 0.223404C561.244 6.57199 572.927 5.04753 555.399 0.731552C568.857 42.9081 560.986 54.3383 552.351 52.0549C543.716 49.7715 502.063 45.1981 459.401 11.9109C450.258 71.3646 436.035 68.3157 425.876 57.6445C415.716 46.9734 358.719 63.3662 349.833 50.4116C342.471 62.0991 245.088 30.5475 229.671 34.7843C214.247 39.0211 197.287 70.6981 193.652 53.4341C190.01 36.1636 203.019 16.8472 203.019 16.8472C203.019 16.8472 194.925 14.7882 192.669 15.2568C190.413 15.7253 180.471 24.0405 180.471 24.0405L177.384 31.9796C174.296 39.9186 167.423 42.8553 159.044 37.7607C150.666 32.6659 149.433 35.8468 150.31 64.5937C151.188 93.3471 136.582 92.6542 127.412 92.74C118.243 92.8258 113.117 81.5607 113.651 87.3813C114.192 93.202 110.036 97.9205 107.734 95.0762C105.432 92.2318 103.565 91.3805 101.77 102.263C102.595 127.703 81.9268 130.383 76.8934 131.102C71.8599 131.821 68.324 135.253 68.324 135.253C71.7214 143.793 49.8461 149.468 49.8461 149.468C49.8461 149.468 62.0702 157.711 77.4871 166.706C92.904 175.701 106.408 220.299 97.4757 213.832C88.5435 207.365 59.0158 209.061 44.1134 200.019C14.9947 251.171 5.85145 231.182 -0.0131836 207.233V-242L9.65126 -241.756H9.66446Z" fill="#250807"/>
<path d="M109.383 109.166C111.481 109.463 213.759 114.267 282.149 32.3557C297.144 34.4543 307.342 32.3557 307.342 32.3557C307.342 32.3557 241.657 128.674 104.587 119.969C-32.4832 111.264 75.1912 104.969 75.1912 104.969L109.383 109.172V109.166Z" fill="#250807"/>
<path d="M1038.57 -9.45127C1045.53 9.87169 1039.74 79.8514 1159.11 113.957C1191.41 123.183 1225.9 127.585 1260.59 127.499C1322.07 127.347 1379.53 121.098 1379.53 121.098L1380.72 137.094C1380.72 137.094 1253.9 162.383 1144.3 124.127C1059.36 96.0265 1022.23 47.8313 1015.99 -10.3092C1032.02 -15.2785 1038.56 -9.44466 1038.56 -9.44466L1038.57 -9.45127Z" fill="#250807"/>
<path d="M707.417 -4.5017C722.34 9.60776 748.694 74.6908 870.625 51.3026C903.609 44.9738 936.382 33.3523 967.315 17.6326C1022.12 -10.2233 1070.6 -41.7156 1070.6 -41.7156L1078.87 -27.9757C1078.87 -27.9757 977.052 51.7843 861.989 67.0487C773.505 80.2673 718.645 53.9819 686.881 4.89581C698.96 -6.77189 707.417 -4.5083 707.417 -4.5083V-4.5017Z" fill="#250807"/>
<path d="M1162.33 -114.46C1170.56 -71.1157 1275.9 168.772 1440.01 210.11L1429.99 188.695C1429.99 188.695 1228.3 104.474 1183.49 -111.596C1160.65 -120.426 1162.33 -114.454 1162.33 -114.454V-114.46Z" fill="#250807"/>
</g>
<defs>
<clipPath id="clip0_1283_1700">
<rect width="1456" height="474" fill="white" transform="translate(0 -242)"/>
</clipPath>
</defs>
</svg>
