<svg width="1440" height="243" viewBox="0 0 1440 243" fill="none" xmlns="http://www.w3.org/2000/svg">
<g clip-path="url(#clip0_1283_1858)">
<path d="M1446.34 473.756L2.13465e-08 473.756L3.50586e-05 72.9758C3.50586e-05 72.9758 6.34635 76.2755 7.11149 55.6986C7.87675 35.1218 19.8106 2.34265 19.8106 2.34265C19.8106 2.34265 31.2364 20.3788 39.621 38.4214C48.0057 56.4641 46.2245 98.8915 46.2245 98.8915C46.2245 98.8915 57.6504 97.1163 98.0365 81.6143C101.592 109.563 68.3241 131.921 68.3241 131.921C68.3241 131.921 83.8136 140.052 87.6266 138.527C91.4396 137.003 94.4809 135.478 102.358 135.987C110.234 136.495 112.259 142.593 114.041 143.609C115.822 144.625 118.355 141.834 123.692 137.511C129.029 133.188 137.407 141.319 139.439 145.641C141.47 149.964 145.026 151.99 152.646 153.264C160.265 154.537 157.976 166.476 156.709 174.098C155.443 181.72 161.789 187.561 163.313 188.326C164.837 189.092 174.231 184.518 176.012 186.294C177.793 188.069 177.536 189.593 186.171 185.785C194.806 181.978 194.298 190.101 196.33 201.538C198.362 212.975 203.692 206.87 211.061 213.226C218.43 219.581 328.393 227.705 328.393 227.705C328.393 227.705 365.217 229.737 383.761 231.262C402.305 232.786 433.792 238.376 461.479 241.425C489.166 244.474 560.017 245.998 613.353 244.982C666.689 243.966 634.179 242.19 642.814 234.311C651.45 226.431 664.657 234.311 685.991 233.044C707.325 231.777 685.991 233.044 689.547 227.711C693.103 222.379 695.642 221.614 702.754 219.073C709.865 216.532 705.036 217.806 711.389 211.45C717.742 205.095 725.355 205.353 734.247 206.369C743.14 207.385 744.149 218.565 753.55 205.861C762.95 193.157 782.754 199.004 786.059 202.812C789.364 206.62 794.695 207.893 804.346 211.959C813.997 216.024 812.473 219.324 813.997 223.646C815.521 227.969 822.632 224.913 825.68 226.187C828.728 227.461 823.906 241.94 837.363 228.219C854.634 211.45 869.615 229.744 869.615 229.744C869.615 229.744 868.857 238.125 881.807 231.777C894.756 225.428 883.073 226.952 900.601 231.268C887.143 189.092 895.014 177.662 903.649 179.945C912.284 182.228 953.937 186.802 996.599 220.089C1005.74 160.635 1019.97 163.684 1030.12 174.355C1040.28 185.027 1097.28 168.634 1106.17 181.588C1113.53 169.901 1210.91 201.452 1226.33 197.216C1241.75 192.979 1258.71 161.302 1262.35 178.566C1265.99 195.836 1252.98 215.153 1252.98 215.153C1252.98 215.153 1261.08 217.212 1263.33 216.743C1265.59 216.275 1275.53 207.959 1275.53 207.959L1278.62 200.02C1281.7 192.081 1288.58 189.145 1296.96 194.239C1305.33 199.334 1306.57 196.153 1305.69 167.406C1304.81 138.653 1319.42 139.346 1328.59 139.26C1337.76 139.174 1342.88 150.439 1342.35 144.619C1341.81 138.798 1345.96 134.079 1348.27 136.924C1350.57 139.768 1352.44 140.619 1354.23 129.737C1353.41 104.297 1374.07 101.617 1379.11 100.898C1384.14 100.179 1387.68 96.7468 1387.68 96.7468C1384.28 88.2072 1406.15 82.5318 1406.15 82.5318C1406.15 82.5318 1393.93 74.2891 1378.51 65.2942C1363.1 56.2993 1349.59 11.7007 1358.52 18.1681C1367.46 24.6355 1396.98 22.9394 1411.89 31.9806C1441.01 -19.1711 1450.15 0.818359 1456.01 24.7675L1456.01 474L1446.35 473.756L1446.34 473.756Z" fill="#250807"/>
<path d="M1346.62 122.834C1344.52 122.537 1242.24 117.733 1173.85 199.644C1158.86 197.545 1148.66 199.644 1148.66 199.644C1148.66 199.644 1214.34 103.326 1351.41 112.031C1488.48 120.735 1380.81 127.031 1380.81 127.031L1346.62 122.827L1346.62 122.834Z" fill="#250807"/>
<path d="M417.432 241.451C410.472 222.128 416.264 152.149 296.887 118.043C264.595 108.817 230.1 104.415 195.407 104.501C133.93 104.653 76.4713 110.902 76.4713 110.902L75.2838 94.9056C75.2838 94.9056 202.102 69.6168 311.703 107.873C396.645 135.973 433.772 184.169 440.013 242.309C423.976 247.279 417.438 241.445 417.438 241.445L417.432 241.451Z" fill="#250807"/>
<path d="M748.583 236.501C733.66 222.392 707.306 157.309 585.375 180.697C552.391 187.026 519.618 198.647 488.685 214.367C433.878 242.223 385.397 273.715 385.397 273.715L377.131 259.975C377.131 259.975 478.948 180.215 594.011 164.951C682.495 151.732 737.355 178.018 769.119 227.104C757.04 238.772 748.583 236.508 748.583 236.508L748.583 236.501Z" fill="#250807"/>
<path d="M293.674 346.46C285.441 303.116 180.102 63.2285 15.9908 21.89L26.0116 43.305C26.0116 43.305 227.705 127.526 272.511 343.596C295.349 352.426 293.674 346.454 293.674 346.454L293.674 346.46Z" fill="#250807"/>
</g>
<defs>
<clipPath id="clip0_1283_1858">
<rect width="1456" height="474" fill="white" transform="translate(1456 474) rotate(-180)"/>
</clipPath>
</defs>
</svg>
