<svg width="126" height="126" viewBox="0 0 126 126" fill="none" xmlns="http://www.w3.org/2000/svg">
<g id="icon-park-solid:check-one">
<g id="Mask group">
<mask id="mask0_1356_1696" style="mask-type:luminance" maskUnits="userSpaceOnUse" x="5" y="5" width="116" height="116">
<g id="Group">
<g id="Group_2">
<path id="Vector" d="M63 115.5C69.8957 115.509 76.725 114.154 83.0958 111.516C89.4665 108.877 95.253 105.005 100.123 100.123C105.005 95.253 108.877 89.4665 111.516 83.0958C114.154 76.725 115.509 69.8957 115.5 63C115.509 56.1044 114.154 49.275 111.516 42.9043C108.877 36.5336 105.005 30.7471 100.123 25.8773C95.253 20.9952 89.4665 17.1235 83.0958 14.4846C76.725 11.8456 69.8957 10.4915 63 10.5C56.1044 10.4915 49.275 11.8456 42.9043 14.4846C36.5336 17.1235 30.7471 20.9952 25.8773 25.8773C20.9952 30.7471 17.1235 36.5336 14.4846 42.9043C11.8456 49.275 10.4915 56.1044 10.5 63C10.4915 69.8957 11.8456 76.725 14.4846 83.0958C17.1235 89.4665 20.9952 95.253 25.8773 100.123C30.7471 105.005 36.5336 108.877 42.9043 111.516C49.275 114.154 56.1044 115.509 63 115.5Z" fill="white"/>
<path id="Vector (Stroke)" fill-rule="evenodd" clip-rule="evenodd" d="M40.8952 9.63422C47.9029 6.73144 55.415 5.24154 63 5.25004C70.5851 5.24154 78.0972 6.73144 85.1049 9.63422C92.1129 12.5371 98.4785 16.7959 103.836 22.1658C109.205 27.5229 113.463 33.8879 116.366 40.8952C119.269 47.9029 120.759 55.415 120.75 63C120.759 70.5851 119.269 78.0972 116.366 85.1049C113.463 92.1126 109.205 98.4778 103.835 103.835C98.4778 109.205 92.1126 113.463 85.1049 116.366C78.0972 119.269 70.5851 120.759 63 120.75C55.415 120.759 47.9029 119.269 40.8952 116.366C33.8879 113.463 27.5229 109.205 22.1658 103.836C16.7959 98.4785 12.5371 92.1129 9.63422 85.1049C6.73144 78.0972 5.24154 70.5851 5.25004 63C5.24154 55.415 6.73144 47.9029 9.63422 40.8952C12.537 33.8875 16.7954 27.5223 22.165 22.165C27.5223 16.7954 33.8875 12.537 40.8952 9.63422ZM62.9936 15.75C56.7896 15.7424 50.6452 16.9607 44.9135 19.3349C39.1817 21.7091 33.9756 25.1925 29.5943 29.5849L29.5849 29.5943L29.5849 29.5943C25.1925 33.9756 21.7091 39.1817 19.3349 44.9135C16.9607 50.6452 15.7424 56.7896 15.75 62.9936V63.0065C15.7424 69.2105 16.9607 75.3549 19.3349 81.0866C21.7091 86.8183 25.1925 92.0244 29.5849 96.4058L29.5943 96.4151C33.9756 100.808 39.1817 104.291 44.9135 106.665C50.6452 109.039 56.7896 110.258 62.9936 110.25H63.0065C69.2105 110.258 75.3549 109.039 81.0866 106.665C86.8183 104.291 92.0244 100.808 96.4058 96.4151L96.4151 96.4058C100.808 92.0244 104.291 86.8183 106.665 81.0866C109.039 75.3549 110.258 69.2105 110.25 63.0065V62.9936C110.258 56.7896 109.039 50.6452 106.665 44.9135C104.291 39.1817 100.808 33.9756 96.4151 29.5943L96.4058 29.5849C92.0244 25.1925 86.8183 21.7091 81.0866 19.3349C75.3549 16.9607 69.2105 15.7424 63.0065 15.75H62.9936Z" fill="white"/>
<path id="Vector (Stroke)_2" fill-rule="evenodd" clip-rule="evenodd" d="M92.9623 43.5377C95.0126 45.5879 95.0126 48.9121 92.9623 50.9623L61.4623 82.4623C59.4121 84.5126 56.0879 84.5126 54.0377 82.4623L38.2877 66.7123C36.2374 64.6621 36.2374 61.3379 38.2877 59.2877C40.3379 57.2374 43.6621 57.2374 45.7123 59.2877L57.75 71.3254L85.5377 43.5377C87.5879 41.4874 90.9121 41.4874 92.9623 43.5377Z" fill="black"/>
</g>
</g>
</mask>
<g mask="url(#mask0_1356_1696)">
<path id="Vector_2" d="M0 0H126V126H0V0Z" fill="#19AD32"/>
</g>
</g>
</g>
</svg>
