<svg width="185" height="46" viewBox="0 0 185 46" fill="none" xmlns="http://www.w3.org/2000/svg">
<g id="es" clip-path="url(#clip0_1343_1209)">
<g id="Clip path group">
<mask id="mask0_1343_1209" style="mask-type:luminance" maskUnits="userSpaceOnUse" x="0" y="0" width="185" height="46">
<g id="clip0_2413_19129">
<path id="Vector" d="M184.054 0H0.875V46H184.054V0Z" fill="white"/>
</g>
</mask>
<g mask="url(#mask0_1343_1209)">
<g id="Group">
<path id="Vector_2" d="M60.1122 14.9841C60.0308 16.1331 59.6149 17.0376 58.8645 17.6986C58.114 18.359 57.1251 18.6889 55.8979 18.6889C54.5562 18.6889 53.4993 18.2281 52.7306 17.3058C51.9612 16.3843 51.5762 15.1186 51.5762 13.5094V12.8562C51.5762 11.8294 51.7536 10.9243 52.1085 10.1415C52.4633 9.3595 52.9704 8.75848 53.629 8.34062C54.2883 7.92206 55.0541 7.71313 55.9273 7.71313C57.135 7.71313 58.1084 8.04369 58.8469 8.7041C59.5848 9.3638 60.0112 10.2911 60.1269 11.4845H57.9696C57.917 10.7948 57.7283 10.2947 57.405 9.98415C57.081 9.67356 56.5887 9.51834 55.9273 9.51834C55.2077 9.51834 54.6698 9.78089 54.3128 10.3068C53.9551 10.8328 53.772 11.6484 53.7623 12.7538V13.5609C53.7623 14.7151 53.9341 15.5586 54.2763 16.0916C54.62 16.6247 55.16 16.8916 55.8985 16.8916C56.5648 16.8916 57.0621 16.7363 57.3903 16.4258C57.7192 16.1153 57.9072 15.6345 57.9549 14.9841H60.1122ZM71.2522 13.4435C71.2522 14.4954 71.0698 15.4169 70.7052 16.209C70.3412 17.0017 69.8201 17.6128 69.1412 18.0435C68.4629 18.4735 67.6852 18.6889 66.8079 18.6889C65.9402 18.6889 65.166 18.4764 64.485 18.0507C63.8047 17.6249 63.2766 17.0176 62.9028 16.2276C62.529 15.4376 62.3396 14.529 62.3347 13.5015V12.9735C62.3347 11.9217 62.5205 10.9965 62.8922 10.1974C63.264 9.39742 63.7886 8.78353 64.4675 8.35494C65.1457 7.92706 65.9213 7.71313 66.7938 7.71313C67.6662 7.71313 68.442 7.92778 69.1201 8.35494C69.7983 8.78353 70.3236 9.39742 70.6947 10.1966C71.0664 10.9965 71.2522 11.9196 71.2522 12.9663V13.4435ZM69.0661 12.9592C69.0661 11.8387 68.8698 10.988 68.477 10.4055C68.0835 9.82383 67.5225 9.53266 66.7938 9.53266C66.0693 9.53266 65.5111 9.82028 65.1177 10.3948C64.7249 10.9694 64.5257 11.8115 64.5215 12.9227V13.4435C64.5215 14.534 64.7178 15.3804 65.1106 15.9815C65.5034 16.5832 66.0693 16.8844 66.8079 16.8844C67.5316 16.8844 68.0878 16.5946 68.477 16.0151C68.8649 15.4355 69.0612 14.5906 69.0661 13.4801V12.9592ZM76.2352 18.5423H74.0779V7.85981H76.2352V18.5423ZM87.8718 18.5423H85.7138L81.5141 11.5138V18.5423H79.3568V7.85981H81.5141L85.7215 14.9032V7.85981H87.8718V18.5423ZM98.5521 9.6428H95.3445V18.5423H93.1872V9.6428H90.0228V7.85981H98.5521V9.6428ZM107.203 13.9129H103.061V16.7742H107.922V18.5423H100.903V7.85981H107.909V9.6428H103.061V12.1886H107.203V13.9129ZM112.468 16.7742H117.048V18.5423H110.31V7.85981H112.468V16.7742ZM125.707 13.9123H121.566V16.7742H126.427V18.5423H119.408V7.85981H126.412V9.6428H121.566V12.1886H125.707V13.9123ZM137.1 17.1921C136.711 17.6664 136.162 18.0349 135.452 18.2961C134.743 18.558 133.957 18.6897 133.094 18.6897C132.187 18.6897 131.393 18.4872 130.71 18.0836C130.026 17.6801 129.499 17.0948 129.128 16.3263C128.756 15.5586 128.566 14.6563 128.555 13.6196V12.8926C128.555 11.8266 128.732 10.9036 129.085 10.1237C129.437 9.34376 129.945 8.74631 130.608 8.33347C131.272 7.91991 132.05 7.71313 132.943 7.71313C134.184 7.71313 135.155 8.01508 135.855 8.61967C136.555 9.22355 136.97 10.1029 137.1 11.257H134.999C134.904 10.6452 134.691 10.1981 134.363 9.914C134.034 9.63072 133.582 9.489 133.007 9.489C132.273 9.489 131.715 9.77016 131.331 10.3326C130.948 10.895 130.753 11.7314 130.749 12.8418V13.5238C130.749 14.6441 130.958 15.4899 131.374 16.0623C131.791 16.6347 132.403 16.921 133.208 16.921C134.018 16.921 134.597 16.7449 134.942 16.3929V14.5512H132.978V12.9299H137.1V17.1921ZM143.845 14.6321H142.127V18.5423H139.969V7.85981H143.859C145.096 7.85981 146.051 8.141 146.721 8.7041C147.393 9.26649 147.728 10.0607 147.728 11.0882C147.728 11.8173 147.573 12.4247 147.264 12.9113C146.955 13.3978 146.486 13.7856 145.858 14.0739L148.124 18.4392V18.5423H145.807L143.845 14.6321ZM142.127 12.849H143.866C144.408 12.849 144.828 12.708 145.124 12.4269C145.422 12.1457 145.571 11.7586 145.571 11.2642C145.571 10.7604 145.431 10.364 145.15 10.0757C144.87 9.78741 144.439 9.6428 143.859 9.6428H142.126L142.127 12.849ZM156.401 16.3407H152.618L151.9 18.5423H149.606L153.504 7.85981H155.503L159.422 18.5423H157.128L156.401 16.3407ZM153.201 14.559H155.818L154.503 10.5594L153.201 14.559ZM163.68 14.7787V18.5423H161.522V7.85981H165.607C166.393 7.85981 167.084 8.00649 167.681 8.30055C168.278 8.59391 168.737 9.01033 169.059 9.55126C169.38 10.0915 169.54 10.7068 169.54 11.3965C169.54 12.4433 169.189 13.2683 168.487 13.8722C167.784 14.4767 166.812 14.7787 165.571 14.7787H163.68ZM163.68 12.9957H165.607C166.177 12.9957 166.613 12.8591 166.912 12.585C167.212 12.311 167.361 11.9196 167.361 11.4116C167.361 10.8878 167.211 10.4643 166.908 10.1415C166.607 9.81961 166.189 9.65286 165.657 9.6428H163.68V12.9957ZM180.666 18.5423H178.509V13.9645H174.302V18.5423H172.144V7.85981H174.302V12.1886H178.509V7.85981H180.666V18.5423Z" fill="#FABC2C"/>
<path id="Vector_3" d="M27.5126 34.3665L19.8542 37.6727V37.342C18.3776 37.7175 16.7418 37.9338 15.1924 38.0034C7.99016 37.9338 2.27347 34.1909 2.20695 29.7368V28.0834C4.5725 31.4991 9.38795 33.7878 15.1924 33.7051C17.156 33.7878 19.1649 33.4791 20.8528 33.0437L21.5188 31.3902C19.5168 31.9834 17.3316 32.3961 15.1924 32.3824C7.99016 32.3961 2.27347 28.6531 2.20695 24.1165V22.7937C4.5725 25.9511 9.37766 28.2405 15.1924 28.0841C17.8083 28.2405 20.3665 27.6941 22.5175 26.7613L22.8508 25.1079C20.7493 26.2087 18.0258 26.8481 15.1924 26.7613C7.99016 26.8481 2.27347 23.105 2.20695 18.4954V17.1726C4.5725 20.4037 9.38795 22.6924 15.1924 22.7937C18.4914 22.6924 21.6189 21.8264 24.1828 20.4788L24.5161 18.4947C22.1889 20.2074 18.7919 21.311 15.1924 21.4709C7.99016 21.311 2.27416 17.5674 2.20695 12.8744C2.27347 8.41067 7.99016 4.66766 15.1924 4.6084C19.4859 4.66766 23.4735 6.16266 25.848 8.57601L26.0791 8.95837L27.7582 8.96527L27.5126 8.57601C25.1512 5.38898 20.4283 3.28564 15.1924 3.28564C7.22336 3.28564 0.875 7.64732 0.875 12.8744V30.0675C1.15483 35.1698 7.35847 39.3255 15.1924 39.3255C20.3665 39.3255 25.0167 37.3048 27.5126 34.3665Z" fill="white"/>
<path id="Vector_4" d="M24.3972 46L27.0858 34.6538L19.3567 37.9911L24.0617 18.3025H14.9878L17.3403 8.625H46.2399L43.8874 18.3025H34.4787L32.4623 23.6418L42.8791 19.3036L24.3972 46ZM29.1022 32.3177L27.7579 38.9921L38.8469 22.3074L29.7736 26.3122L33.8065 16.968H42.8791L44.5595 9.96014H18.3485L16.6682 16.968H25.7414L21.3725 35.6555L29.1022 32.319V32.3177Z" fill="#FABC2C"/>
<path id="Vector_5" d="M108.59 34.2206V25.8728H107.281V34.2206H108.59Z" fill="white"/>
<path id="Vector_6" d="M95.1687 30.0415V34.2205H93.8647V28.3402H95.0929L95.1356 29.0489C95.1447 29.0372 95.154 29.0256 95.1632 29.0141C95.3688 28.7641 95.6141 28.572 95.8991 28.438C96.184 28.3003 96.5015 28.2314 96.8516 28.2314C97.1331 28.2314 97.3868 28.2713 97.6139 28.351C97.8448 28.4271 98.0413 28.5521 98.2035 28.726C98.3695 28.9 98.4964 29.1264 98.5823 29.4054C98.6691 29.6807 98.712 30.0195 98.712 30.4217V34.2205H97.4031V30.4163C97.4031 30.1336 97.362 29.9108 97.279 29.7478C97.1989 29.5811 97.0825 29.4634 96.927 29.3945C96.7753 29.322 96.5864 29.2858 96.3593 29.2858C96.1353 29.2858 95.9351 29.333 95.7584 29.4272C95.5817 29.5214 95.432 29.65 95.3093 29.813C95.2572 29.8843 95.2103 29.9605 95.1687 30.0415Z" fill="white"/>
<path id="Vector_7" d="M98.2961 25.9977L97.5004 25.938C97.5004 26.1046 97.4518 26.2405 97.3545 26.3456C97.2571 26.4506 97.1398 26.5032 97.0024 26.5032C96.8622 26.5032 96.7343 26.4778 96.6189 26.4271C96.5034 26.3763 96.3899 26.3184 96.2778 26.2532C96.1696 26.1879 96.0542 26.1318 95.9316 26.0847C95.8125 26.034 95.679 26.0086 95.5312 26.0086C95.3039 26.0086 95.1001 26.0702 94.9198 26.1934C94.7395 26.3165 94.597 26.4833 94.4924 26.6933C94.3877 26.9035 94.3354 27.1391 94.3354 27.3999L95.1362 27.4433C95.1362 27.273 95.1831 27.1372 95.2769 27.0358C95.3743 26.9344 95.4915 26.8836 95.6286 26.8836C95.7728 26.8836 95.8973 26.909 96.0019 26.9597C96.1101 27.0068 96.2147 27.063 96.3155 27.1281C96.4166 27.1934 96.5282 27.2514 96.6513 27.3021C96.7734 27.3528 96.9232 27.3782 97.1007 27.3782C97.3277 27.3782 97.531 27.3184 97.7113 27.1988C97.8916 27.0793 98.0347 26.9163 98.1387 26.7097C98.2436 26.4996 98.2961 26.2622 98.2961 25.9977Z" fill="white"/>
<path id="Vector_8" d="M73.2592 34.2206V33.1391H69.461V30.6771H72.7127V29.612H69.461V27.3946H73.2321V26.3076H68.103V34.2206H73.2592Z" fill="white"/>
<path id="Vector_9" fill-rule="evenodd" clip-rule="evenodd" d="M54.3897 34.3292C53.9568 34.3292 53.5655 34.2586 53.2155 34.1173C52.8693 33.9723 52.5735 33.7713 52.3283 33.5141C52.0866 33.2568 51.9008 32.9543 51.771 32.6064C51.6411 32.2587 51.5762 31.8837 51.5762 31.4814V31.2641C51.5762 30.8039 51.643 30.3873 51.7763 30.014C51.9098 29.6409 52.0956 29.322 52.3337 29.0575C52.5717 28.7895 52.8531 28.5848 53.1776 28.4434C53.5023 28.3022 53.854 28.2314 54.2327 28.2314C54.6512 28.2314 55.0173 28.3022 55.331 28.4434C55.6448 28.5848 55.9046 28.784 56.1102 29.0412C56.3194 29.2949 56.4745 29.5975 56.5755 29.9489C56.6801 30.3003 56.7324 30.6879 56.7324 31.1119V31.6717H52.892C52.9049 31.8576 52.937 32.0332 52.9884 32.1988C53.0605 32.4162 53.1651 32.6064 53.3022 32.7695C53.4393 32.9326 53.6052 33.0612 53.7999 33.1554C53.9947 33.2459 54.2165 33.2913 54.4654 33.2913C54.7792 33.2913 55.0588 33.2278 55.304 33.101C55.5493 32.9742 55.7621 32.7948 55.9424 32.563L56.6296 33.2315C56.5033 33.4162 56.3392 33.5938 56.1372 33.7641C55.9353 33.9308 55.6881 34.0665 55.396 34.1717C55.1074 34.2767 54.772 34.3292 54.3897 34.3292ZM52.9721 30.4435C52.9503 30.5351 52.9326 30.6311 52.9191 30.7314H55.4447V30.6282C55.4375 30.3927 55.3906 30.1717 55.304 29.9652C55.221 29.7586 55.093 29.592 54.9198 29.4652C54.7467 29.3383 54.5159 29.275 54.2273 29.275C54.0109 29.275 53.8179 29.322 53.6484 29.4162C53.4825 29.5068 53.3437 29.639 53.2318 29.813C53.12 29.9869 53.0334 30.1971 52.9721 30.4435Z" fill="white"/>
<path id="Vector_10" d="M59.4743 34.2205V30.0415C59.516 29.9605 59.563 29.8843 59.615 29.813C59.7376 29.65 59.8873 29.5214 60.0641 29.4272C60.2408 29.333 60.441 29.2858 60.6646 29.2858C60.8919 29.2858 61.0812 29.322 61.2327 29.3945C61.3879 29.4634 61.505 29.5811 61.5844 29.7478C61.6674 29.9108 61.7089 30.1336 61.7089 30.4163V34.2205H63.0182V30.4217C63.0182 30.0195 62.9749 29.6807 62.8883 29.4054C62.8018 29.1264 62.6756 28.9 62.5096 28.726C62.3473 28.5521 62.1507 28.4271 61.9198 28.351C61.6926 28.2713 61.4383 28.2314 61.157 28.2314C60.8071 28.2314 60.4897 28.3003 60.2047 28.438C59.9198 28.572 59.6745 28.7641 59.4689 29.0141C59.4596 29.0256 59.4505 29.0372 59.4413 29.0489L59.3986 28.3402H58.1704V34.2205H59.4743Z" fill="white"/>
<path id="Vector_11" d="M77.9546 32.6282C77.9546 32.4978 77.9221 32.38 77.8572 32.2749C77.7923 32.1663 77.6678 32.0684 77.4839 31.9815C77.3035 31.8945 77.0366 31.8147 76.6831 31.7423C76.373 31.6735 76.088 31.5919 75.8283 31.4977C75.5722 31.4 75.3521 31.2822 75.1682 31.1445C74.9842 31.0069 74.8418 30.8438 74.7408 30.6554C74.6397 30.4669 74.5893 30.2496 74.5893 30.0032C74.5893 29.7641 74.6415 29.5377 74.7462 29.3238C74.8508 29.1101 75.0004 28.9217 75.1953 28.7586C75.39 28.5956 75.6263 28.467 75.904 28.3728C76.1854 28.2786 76.4992 28.2314 76.8454 28.2314C77.336 28.2314 77.7562 28.3148 78.1061 28.4815C78.4596 28.6445 78.73 28.8674 78.9176 29.1499C79.1052 29.429 79.199 29.7442 79.199 30.0956H77.8951C77.8951 29.9398 77.8554 29.7949 77.7761 29.6608C77.7003 29.5232 77.5849 29.4126 77.4298 29.3293C77.2746 29.2424 77.0799 29.1989 76.8454 29.1989C76.6218 29.1989 76.436 29.2351 76.2881 29.3076C76.1439 29.3764 76.0357 29.467 75.9636 29.5793C75.895 29.6917 75.8607 29.8148 75.8607 29.9489C75.8607 30.0467 75.8788 30.1355 75.9148 30.2152C75.9545 30.2913 76.0195 30.3619 76.1096 30.4271C76.1998 30.4887 76.3224 30.5467 76.4775 30.601C76.6363 30.6554 76.8346 30.7079 77.0727 30.7587C77.5199 30.8529 77.9041 30.9742 78.2252 31.1227C78.5497 31.2677 78.7986 31.4561 78.9718 31.688C79.1449 31.9162 79.2315 32.2061 79.2315 32.5576C79.2315 32.8184 79.1756 33.0575 79.0638 33.275C78.9555 33.4887 78.7968 33.6753 78.5876 33.8347C78.3784 33.9906 78.1277 34.1119 77.8355 34.1988C77.547 34.2858 77.2223 34.3292 76.8617 34.3292C76.3315 34.3292 75.8824 34.235 75.5145 34.0467C75.1465 33.8547 74.867 33.6101 74.6759 33.313C74.4883 33.0123 74.3945 32.7006 74.3945 32.3782H75.6551C75.6695 32.621 75.7363 32.8148 75.8553 32.9597C75.978 33.101 76.1295 33.2042 76.3098 33.2695C76.4937 33.3311 76.6831 33.3619 76.8779 33.3619C77.1123 33.3619 77.309 33.3311 77.4676 33.2695C77.6264 33.2042 77.7472 33.1173 77.8302 33.0086C77.9131 32.8963 77.9546 32.7695 77.9546 32.6282Z" fill="white"/>
<path id="Vector_12" fill-rule="evenodd" clip-rule="evenodd" d="M82.1149 33.6733V36.4814H80.811V28.3402H82.0122L82.0678 28.9529C82.2445 28.734 82.455 28.5624 82.6993 28.438C82.9698 28.3003 83.2854 28.2314 83.6461 28.2314C84.014 28.2314 84.3405 28.304 84.6254 28.4489C84.9103 28.5901 85.1503 28.793 85.345 29.0575C85.5398 29.3185 85.6859 29.6337 85.7833 30.0032C85.8806 30.3692 85.9293 30.7768 85.9293 31.226V31.3402C85.9293 31.7677 85.8789 32.1644 85.7778 32.5303C85.6804 32.8927 85.5344 33.2097 85.3396 33.4815C85.1485 33.7495 84.9121 33.9579 84.6308 34.1064C84.3494 34.255 84.0249 34.3292 83.6569 34.3292C83.2926 34.3292 82.9734 34.2622 82.6993 34.1282C82.4763 34.0147 82.2815 33.8631 82.1149 33.6733ZM82.1149 32.5738C82.2195 32.7912 82.3674 32.9651 82.5586 33.0956C82.7534 33.2223 83.0023 33.2858 83.3052 33.2858C83.5397 33.2858 83.7399 33.2351 83.9058 33.1336C84.0717 33.0322 84.207 32.8927 84.3116 32.7151C84.4198 32.534 84.4991 32.3256 84.5497 32.0902C84.6002 31.8546 84.6254 31.6047 84.6254 31.3402V31.226C84.6254 30.9543 84.6002 30.7025 84.5497 30.4706C84.4991 30.2351 84.4198 30.0286 84.3116 29.851C84.2034 29.6735 84.0646 29.5358 83.895 29.438C83.7291 29.3366 83.5288 29.2858 83.2944 29.2858C83.0636 29.2858 82.8652 29.3257 82.6993 29.4054C82.5334 29.4815 82.3945 29.5883 82.2827 29.7261C82.2185 29.8051 82.1625 29.892 82.1149 29.9866V32.5738Z" fill="white"/>
<path id="Vector_13" fill-rule="evenodd" clip-rule="evenodd" d="M90.6462 33.8075C90.7059 33.7527 90.7616 33.6968 90.8133 33.6402L90.8194 33.6825C90.8554 33.8999 90.9041 34.0793 90.9654 34.2205H92.3018V34.1336C92.2296 33.9778 92.1737 33.7949 92.134 33.5847C92.098 33.371 92.08 33.13 92.08 32.8619V30.2478C92.08 29.7985 91.9808 29.4253 91.7824 29.1283C91.5877 28.8275 91.3189 28.6029 90.9762 28.4544C90.6372 28.3057 90.2476 28.2314 89.8076 28.2314C89.4397 28.2314 89.1078 28.2804 88.812 28.3783C88.5163 28.476 88.262 28.6101 88.0492 28.7804C87.8363 28.9507 87.674 29.1445 87.5622 29.3619C87.4504 29.5793 87.3945 29.804 87.3945 30.0358H88.6931C88.6931 29.8801 88.7363 29.7405 88.8229 29.6174C88.9094 29.4941 89.0303 29.3963 89.1854 29.3238C89.3405 29.2514 89.5244 29.2152 89.7373 29.2152C89.9681 29.2152 90.1593 29.2569 90.3108 29.3401C90.4659 29.4235 90.5812 29.5413 90.657 29.6935C90.7327 29.8456 90.7706 30.0268 90.7706 30.2369V30.6445H89.9374C89.5118 30.6445 89.1331 30.6879 88.8012 30.775C88.4694 30.8582 88.1881 30.9815 87.9572 31.1445C87.7299 31.3075 87.5568 31.5105 87.4378 31.7532C87.3224 31.9923 87.2646 32.2677 87.2646 32.5793C87.2646 32.9126 87.3495 33.2115 87.5189 33.476C87.6884 33.7369 87.9229 33.9452 88.2223 34.101C88.5217 34.2532 88.8625 34.3292 89.2449 34.3292C89.5479 34.3292 89.8148 34.2804 90.0456 34.1825C90.2801 34.0848 90.4803 33.9597 90.6462 33.8075ZM90.6733 32.7206C90.7117 32.6662 90.7442 32.6128 90.7706 32.5605V31.4543H90.0348C89.7932 31.4543 89.5803 31.4778 89.3964 31.5249C89.2124 31.5685 89.0591 31.6336 88.9365 31.7205C88.8138 31.8076 88.7219 31.9126 88.6605 32.0358C88.5993 32.159 88.5686 32.2985 88.5686 32.4542C88.5686 32.6101 88.6046 32.7531 88.6767 32.8837C88.749 33.0105 88.8535 33.11 88.9906 33.1826C89.1313 33.255 89.3008 33.2913 89.4991 33.2913C89.7661 33.2913 89.9988 33.2369 90.1971 33.1281C90.3991 33.0158 90.5579 32.88 90.6733 32.7206Z" fill="white"/>
<path id="Vector_14" fill-rule="evenodd" clip-rule="evenodd" d="M100.227 31.3455V31.2206C100.227 30.7967 100.288 30.4036 100.41 30.0413C100.533 29.6753 100.71 29.3583 100.941 29.0902C101.175 28.8184 101.461 28.6083 101.796 28.4597C102.135 28.3075 102.517 28.2314 102.943 28.2314C103.372 28.2314 103.754 28.3075 104.09 28.4597C104.429 28.6083 104.716 28.8184 104.95 29.0902C105.184 29.3583 105.363 29.6753 105.486 30.0413C105.608 30.4036 105.67 30.7967 105.67 31.2206V31.3455C105.67 31.7695 105.608 32.1626 105.486 32.525C105.363 32.8872 105.184 33.2042 104.95 33.476C104.716 33.7442 104.431 33.9542 104.095 34.1064C103.76 34.255 103.379 34.3292 102.954 34.3292C102.524 34.3292 102.14 34.255 101.801 34.1064C101.465 33.9542 101.181 33.7442 100.946 33.476C100.712 33.2042 100.533 32.8872 100.41 32.525C100.288 32.1626 100.227 31.7695 100.227 31.3455ZM101.53 31.2206V31.3455C101.53 31.61 101.558 31.8601 101.611 32.0955C101.666 32.3311 101.751 32.5376 101.866 32.7151C101.982 32.8927 102.129 33.0322 102.31 33.1336C102.49 33.2351 102.705 33.2858 102.954 33.2858C103.195 33.2858 103.404 33.2351 103.582 33.1336C103.762 33.0322 103.91 32.8927 104.025 32.7151C104.141 32.5376 104.225 32.3311 104.279 32.0955C104.337 31.8601 104.366 31.61 104.366 31.3455V31.2206C104.366 30.9597 104.337 30.7133 104.279 30.4815C104.225 30.246 104.139 30.0376 104.019 29.8565C103.904 29.6753 103.756 29.534 103.576 29.4325C103.399 29.3275 103.188 29.275 102.943 29.275C102.697 29.275 102.484 29.3275 102.304 29.4325C102.128 29.534 101.982 29.6753 101.866 29.8565C101.751 30.0376 101.666 30.246 101.611 30.4815C101.558 30.7133 101.53 30.9597 101.53 31.2206Z" fill="white"/>
</g>
</g>
</g>
</g>
<defs>
<clipPath id="clip0_1343_1209">
<rect width="183.179" height="46" fill="white" transform="translate(0.875)"/>
</clipPath>
</defs>
</svg>
