<svg width="390" height="177" viewBox="0 0 390 177" fill="none" xmlns="http://www.w3.org/2000/svg">
<g clip-path="url(#clip0_21_71348)">
<g clip-path="url(#clip1_21_71348)">
<path d="M-203.424 79.4429L-202.77 80.3157C-202.54 80.3373 -189.052 79.0972 -188.753 78.8466C-188.454 78.5917 -178.377 76.2714 -178.377 76.2714C-178.377 76.2714 -175.842 74.8714 -175.243 74.7073C-174.645 74.5474 -174.528 73.8344 -174.507 73.5104C-174.485 73.1906 -173.306 72.5468 -173.306 72.5468C-173.306 72.5468 -168.695 72.4777 -168.235 72.361C-167.776 72.2444 -165.245 70.8358 -165.245 70.8358C-165.245 70.8358 -159.428 69.0729 -158.462 68.36C-157.495 67.647 -154.682 64.8644 -154.682 64.8644L-146.119 59.5206C-146.119 59.5206 -141.077 74.7894 -138.819 75.364C-136.561 75.9387 -97.5018 59.135 -97.5018 59.135L-92.782 59.2776L-89.0899 60.0607L-85.1551 60.0607L-84.3837 59.5206C-84.3837 59.5206 -77.722 61.8409 -74.4238 61.9359C-71.1255 62.0267 -65.7771 60.0045 -64.9233 60.1903C-64.0695 60.3761 -58.2648 59.1393 -58.2648 59.1393L-26.8595 67.2495L-18.8412 70.2136C-18.8412 70.2136 -11.3648 64.7002 -10.4893 62.1034C-5.16266 64.333 18.2634 73.3419 18.2634 73.3419L41.2517 76.7424L63.2346 69.276L63.2346 82.4416L95.0473 77.7707L115.747 74.7073C115.747 74.7073 136.846 66.5928 141.639 64.5836C142.428 66.9211 149.159 71.8901 149.159 71.8901L156.38 69.2241L184.665 61.9219C184.665 61.9219 193.625 59.4123 194.393 59.2438C195.16 59.0796 198.068 60.71 201.037 60.628C204.006 60.5459 203.497 59.0254 206.573 60.9048C206.856 61.0775 209.896 61.1816 209.896 61.1816L212.048 60.1374L215.749 62.0473L220.001 61.9176C220.001 61.9176 255.177 77.0492 257.21 76.5307C259.247 76.0122 263.399 71.108 263.399 71.108L271.495 77.2782C271.495 77.2782 274.026 79.7843 274.902 80.4238C275.773 81.0676 281.008 82.6533 281.008 82.6533C281.008 82.6533 283.288 83.9236 283.704 84.0273C284.12 84.131 288.272 84.1915 288.272 84.1915C288.272 84.1915 289.33 84.7705 289.352 85.06C289.373 85.3495 289.477 85.9933 290.015 86.1359C290.557 86.2828 292.841 87.5445 292.841 87.5445C292.841 87.5445 301.916 89.6358 302.185 89.8648C302.454 90.0938 314.555 91.2042 314.763 91.1826L315.4 90.4049L315.4 87.3112L349.722 82.2731L372.71 78.8726C372.71 78.8726 396.137 69.8637 401.463 67.6341C402.339 70.2309 409.815 75.7443 409.815 75.7443L417.833 72.7802L449.239 64.67C449.239 64.67 457.122 60.3233 457.972 60.1375C458.821 59.9517 464.174 61.9781 467.472 61.8831C470.771 61.7923 477.432 59.4677 477.432 59.4677L478.204 60.0078L479.643 62.6868L483.756 64.8083L488.476 64.6657C488.476 64.6657 527.535 81.4694 529.793 80.8947C532.051 80.3201 536.663 74.8715 536.663 74.8715L545.656 81.72C545.656 81.72 548.469 84.5026 549.436 85.2156C550.402 85.9285 556.219 87.6914 556.219 87.6914C556.219 87.6914 558.75 89.1 559.209 89.2167C559.668 89.3333 564.28 89.4025 564.28 89.4025C564.28 89.4025 565.455 90.0463 565.481 90.366C565.507 90.6858 565.619 91.3987 566.217 91.5629C566.816 91.7228 569.351 93.127 569.351 93.127C569.351 93.127 579.428 95.4473 579.727 95.7022C580.052 95.9442 593.54 97.1886 593.77 97.1627L594.424 96.2899L594.424 0.0001297L-203.403 5.99515e-05L-203.403 31.5551L-203.424 31.5551L-203.424 79.4429Z" fill="#250807"/>
<path d="M63.2432 82.4458C69.5364 80.7002 71.3264 81.2403 72.0762 77.2133C72.8261 73.1819 75.4092 65.4131 75.6605 64.752C75.9119 64.0909 76.6618 63.6718 76.6618 63.6718C76.6618 63.6718 78.9545 69.6129 79.9947 70.2351C81.0349 70.8573 79.7867 70.1919 84.1598 71.9808C88.5373 73.7653 93.994 75.8047 93.994 75.8047L82.5735 69.1593C82.5735 69.1593 102.285 72.1493 103.659 71.8166C105.033 71.4839 107.868 70.6111 109.744 68.5759C111.621 66.5408 119.995 56.8622 119.995 57.1085C119.995 57.3547 119.453 65.0847 118.161 66.5797C116.87 68.0747 128.706 63.5465 129.413 63.3391C130.119 63.1317 137.249 61.4682 140.079 61.2219C142.914 60.9713 146.914 60.3059 146.914 60.3059C146.914 60.3059 134.83 70.1098 132.33 71.6049C129.829 73.0999 122.955 78.4577 116.493 78.6694C110.03 78.8811 102.658 78.4188 102.324 78.4188C101.991 78.4188 92.4077 84.5673 83.6527 85.3148C74.9021 86.0623 69.1333 85.4185 65.8827 85.4185C62.6321 85.4185 62.5281 82.7526 62.5281 82.7526L63.2346 82.4501L63.2432 82.4458Z" fill="#3E0E0C"/>
<path d="M314.81 91.7051C310.728 92.4958 308.366 91.8347 304.612 91.044C300.863 90.2533 293.525 88.8015 293.525 88.8015L290.526 86.3905L296.278 85.0597C296.278 85.0597 285.442 84.4375 284.359 84.1436C283.275 83.8498 290.275 82.9813 290.275 82.9813L287.692 82.4844L291.107 81.819L283.856 63.9567C283.856 63.9567 292.815 78.2889 292.858 80.2419C292.901 82.1949 293.356 81.9055 293.356 81.9055L306.857 84.2301L301.691 84.3122L313.528 90.5428L314.806 91.7008L314.81 91.7051Z" fill="#3E0E0C"/>
<path d="M289.031 81.5729C287.241 80.9075 284.029 79.7884 283.197 79.3304C282.365 78.8724 281.281 78.086 280.614 78.1681C279.947 78.2502 276.115 80.9119 276.115 80.9119C276.115 80.9119 280.822 82.5754 281.034 82.6575C281.247 82.7396 289.035 81.5773 289.035 81.5773L289.031 81.5729Z" fill="#3E0E0C"/>
<path d="M257.526 76.4225C256.278 76.7984 250.318 78.5008 247.44 77.6669C244.567 76.8373 244.441 76.1719 243.605 75.7571C242.768 75.3423 240.02 74.6768 240.02 74.6768L237.437 73.4324C237.437 73.4324 235.812 72.188 234.187 71.4362C232.561 70.6887 228.769 69.1505 226.853 67.8629C224.937 66.5753 222.935 65.2877 221.019 64.2896C219.104 63.2914 215.771 62.047 215.771 62.047C215.771 62.047 214.559 61.0159 214.602 60.3505C214.183 59.928 213.029 60.2193 212.664 59.52C211.914 59.1873 216.817 59.7968 216.817 59.7968C216.817 59.7968 218.007 59.382 221.8 59.7968C225.592 60.2116 229.828 61.181 234.187 59.7968C251.354 69.8082 254.28 71.0214 255.697 72.8491C257.114 74.6768 257.53 76.4225 257.53 76.4225L257.526 76.4225Z" fill="#3E0E0C"/>
<path d="M184.682 61.9262C185.995 63.7755 170.596 66.7439 168.177 67.4914C165.759 68.2389 161.845 69.237 161.845 69.237C161.845 69.237 158.261 71.8122 154.759 72.1449C151.257 72.4776 149.385 72.0628 149.177 71.8943C148.968 71.7258 148.011 68.9432 147.842 68.321C147.677 67.6988 145.176 60.7163 148.674 62.3366C152.176 63.957 153.758 64.3329 154.425 64.2464C155.093 64.1644 158.343 64.994 158.343 64.994C158.343 64.994 165.178 63.7063 166.179 62.3366C167.181 60.9669 165.175 62.2915 164.217 61.4576C163.259 60.628 165.878 59.2429 168.923 59.2429C169.131 59.4114 172.501 59.1006 174.46 59.5197C176.419 59.9345 183.061 59.6361 184.686 61.9218L184.682 61.9262Z" fill="#3E0E0C"/>
<path d="M314.416 87.4536C321.403 85.5178 323.392 86.1141 324.224 81.642C325.057 77.1657 327.926 68.5413 328.203 67.8024C328.48 67.0635 329.313 66.6012 329.313 66.6012C329.313 66.6012 331.857 73.1991 333.014 73.8905C334.171 74.5818 332.784 73.8429 337.643 75.8262C342.501 77.8095 348.565 80.0693 348.565 80.0693L335.888 72.6893C335.888 72.6893 357.775 76.012 359.301 75.6404C360.826 75.2731 363.973 74.3009 366.058 72.0411C368.138 69.7814 377.439 59.0311 377.439 59.3077C377.439 59.5842 376.837 68.1654 375.402 69.8246C373.967 71.4838 387.109 66.4586 387.897 66.2253C388.682 65.9963 396.596 64.1513 399.743 63.8748C402.889 63.5982 407.332 62.8594 407.332 62.8594C407.332 62.8594 393.913 73.7479 391.135 75.4071C388.357 77.0663 380.724 83.0204 373.551 83.2494C366.378 83.4784 358.187 82.9729 357.818 82.9729C357.45 82.9729 346.805 89.7998 337.088 90.6294C327.371 91.459 320.146 91.446 316.544 91.6448C314.065 91.783 313.861 91.8306 313.861 91.8306L314.416 87.4492L314.416 87.4536Z" fill="#3E0E0C"/>
<path d="M81.6114 75.6792C74.6247 73.7435 78.6251 76.0206 73.0384 71.5226C69.4888 68.6622 63.0699 63.0192 62.7925 62.2847C62.5151 61.5501 61.6829 61.0835 61.6829 61.0835C61.6829 61.0835 59.1388 67.6814 57.9816 68.3727C56.8244 69.064 58.2113 68.3252 53.3527 70.3084C48.4941 72.2917 42.4306 74.5515 42.4306 74.5515L55.108 67.1715C55.108 67.1715 33.2206 70.4942 31.6949 70.1226C30.1693 69.7554 27.0227 68.7832 24.938 66.5234C22.8576 64.2636 13.5565 53.5134 13.5565 53.7899C13.5565 54.0664 14.1589 62.6476 15.5935 64.3068C17.0281 65.966 3.88702 60.9409 3.0982 60.7075C2.31372 60.4785 -5.60048 58.6335 -8.74708 58.357C-11.8937 58.0805 -16.3362 57.3416 -16.3362 57.3416C-16.3362 57.3416 -2.91765 68.2301 -0.139456 69.8893C2.63874 71.5485 10.2712 77.5026 17.4442 77.7316C24.6173 77.9606 32.8088 77.4551 33.1772 77.4551C33.5456 77.4551 44.1903 84.282 53.9075 85.1116C63.6246 85.9412 70.8497 85.9282 74.4514 86.127C76.9305 86.2653 77.6803 85.224 77.6803 85.224L81.6114 75.6749L81.6114 75.6792Z" fill="#3E0E0C"/>
</g>
</g>
<defs>
<clipPath id="clip0_21_71348">
<rect width="390" height="177" fill="white" transform="translate(390 177) rotate(-180)"/>
</clipPath>
<clipPath id="clip1_21_71348">
<rect width="390" height="176.999" fill="white" transform="translate(390 176.999) rotate(-180)"/>
</clipPath>
</defs>
</svg>
