<svg width="1440" height="124" viewBox="0 0 1440 124" fill="none" xmlns="http://www.w3.org/2000/svg">
<g clip-path="url(#clip0_1343_1687)">
<path d="M1440 33.5177L1438.82 31.9413C1438.4 31.9023 1414.04 34.142 1413.5 34.5946C1412.96 35.055 1394.76 39.2457 1394.76 39.2457C1394.76 39.2457 1390.18 41.7742 1389.1 42.0707C1388.02 42.3595 1387.81 43.6471 1387.77 44.2324C1387.73 44.8099 1385.6 45.9727 1385.6 45.9727C1385.6 45.9727 1377.27 46.0975 1376.44 46.3082C1375.62 46.5189 1371.04 49.063 1371.04 49.063C1371.04 49.063 1360.54 52.247 1358.79 53.5346C1357.05 54.8223 1351.97 59.848 1351.97 59.848L1336.5 69.4995C1336.5 69.4995 1327.4 41.9224 1323.32 40.8845C1319.24 39.8466 1248.69 70.1959 1248.69 70.1959L1240.17 69.9384L1233.5 68.524H1226.39L1225 69.4995C1225 69.4995 1212.97 65.3088 1207.01 65.1371C1201.05 64.9733 1191.39 68.6255 1189.85 68.2899C1188.31 67.9543 1177.83 70.1881 1177.83 70.1881L1121.11 55.5402L1106.62 50.1868C1106.62 50.1868 1093.12 60.1445 1091.54 64.8347C1081.92 60.8079 1039.61 44.5367 1039.61 44.5367L998.089 38.3951L958.385 51.8802V28.1018L900.928 36.5378L863.542 42.0707C863.542 42.0707 825.436 56.7264 816.778 60.3552C815.353 56.1333 803.196 47.1589 803.196 47.1589L790.155 51.9739L739.07 65.1624C739.07 65.1624 722.886 69.6952 721.5 69.9995C720.114 70.2961 714.862 67.3512 709.5 67.4995C704.138 67.6478 705.056 70.3938 699.5 66.9995C698.99 66.6877 693.5 66.4995 693.5 66.4995L689.613 68.3854L682.928 64.9361L675.249 65.1702C675.249 65.1702 611.717 37.841 608.046 38.7775C604.367 39.7139 596.867 48.5714 596.867 48.5714L582.245 37.4274C582.245 37.4274 577.673 32.9011 576.092 31.7462C574.519 30.5834 565.062 27.7194 565.062 27.7194C565.062 27.7194 560.945 25.425 560.193 25.2377C559.442 25.0504 551.943 24.9412 551.943 24.9412C551.943 24.9412 550.033 23.8955 549.994 23.3726C549.955 22.8497 549.767 21.687 548.796 21.4294C547.817 21.1641 543.692 18.8854 543.692 18.8854C543.692 18.8854 527.3 15.1083 526.815 14.6947C526.33 14.2811 504.474 12.2755 504.098 12.3145L502.948 13.7192V19.3068L440.958 28.4061L399.439 34.5478C399.439 34.5478 357.129 50.8189 347.508 54.8457C345.927 50.1555 332.424 40.1978 332.424 40.1978L317.942 45.5513L261.221 60.1992C261.221 60.1992 246.982 68.0499 245.447 68.3854C243.913 68.721 234.245 65.061 228.288 65.2327C222.331 65.3965 210.3 69.595 210.3 69.595L208.906 68.6195L206.308 63.7811L198.879 59.9494L190.354 60.207C190.354 60.207 119.809 29.8576 115.73 30.8955C111.652 31.9335 103.323 41.7742 103.323 41.7742L87.0801 29.405C87.0801 29.405 81.9997 24.3793 80.2541 23.0917C78.5085 21.804 68.0034 18.62 68.0034 18.62C68.0034 18.62 63.4318 16.076 62.6021 15.8653C61.7723 15.6546 53.4434 15.5297 53.4434 15.5297C53.4434 15.5297 51.322 14.3669 51.275 13.7894C51.2281 13.2119 51.0245 11.9243 49.9443 11.6277C48.864 11.339 44.2847 8.80274 44.2847 8.80274C44.2847 8.80274 26.0847 4.61205 25.5446 4.15162C24.9575 3.7146 0.596901 1.46708 0.18202 1.5139L-1 3.09029V177H1439.96V120.008H1440V33.5177Z" fill="#250807"/>
<path d="M958.37 28.0941C947.004 31.2468 943.771 30.2713 942.417 37.5446C941.062 44.8256 936.397 58.857 935.943 60.051C935.489 61.245 934.135 62.002 934.135 62.002C934.135 62.002 929.994 51.2716 928.115 50.1479C926.236 49.0241 928.491 50.2259 920.592 46.9951C912.686 43.7721 902.831 40.0886 902.831 40.0886L923.457 52.091C923.457 52.091 887.856 46.6907 885.374 47.2916C882.893 47.8925 877.773 49.4689 874.384 53.1445C870.994 56.8202 855.871 74.3009 855.871 73.8561C855.871 73.4112 856.849 59.4501 859.182 56.7499C861.515 54.0498 840.137 62.2283 838.861 62.6029C837.585 62.9774 824.708 65.9819 819.596 66.4268C814.477 66.8794 807.251 68.0812 807.251 68.0812C807.251 68.0812 829.076 50.3742 833.593 47.674C838.109 44.9739 850.524 35.2971 862.196 34.9147C873.867 34.5323 887.183 35.3673 887.785 35.3673C888.388 35.3673 905.696 24.2624 921.508 22.9123C937.313 21.5622 947.732 22.725 953.603 22.725C959.474 22.725 959.662 27.54 959.662 27.54L958.386 28.0863L958.37 28.0941Z" fill="#3E0E0C"/>
<path d="M504.012 11.3703C511.386 9.94219 515.652 11.1362 522.431 12.5643C529.203 13.9924 542.455 16.6145 542.455 16.6145L547.872 20.9691L537.485 23.3727C537.485 23.3727 557.054 24.4964 559.011 25.0271C560.968 25.5578 548.326 27.1264 548.326 27.1264L552.992 28.0238L546.823 29.2256L559.919 61.4869C559.919 61.4869 543.739 35.6014 543.661 32.074C543.582 28.5467 542.761 29.0695 542.761 29.0695L518.376 24.871L527.707 24.7228L506.329 13.4695L504.02 11.3781L504.012 11.3703Z" fill="#3E0E0C"/>
<path d="M550.573 29.6704C553.806 30.8722 559.606 32.8934 561.109 33.7206C562.612 34.5478 564.569 35.9681 565.775 35.8198C566.98 35.6716 573.9 30.8644 573.9 30.8644C573.9 30.8644 565.399 27.8599 565.015 27.7116C564.632 27.5633 550.565 29.6626 550.565 29.6626L550.573 29.6704Z" fill="#3E0E0C"/>
<path d="M607.474 38.9725C609.729 38.2936 620.492 35.2189 625.69 36.725C630.88 38.2234 631.107 39.4252 632.618 40.1743C634.128 40.9235 639.091 42.1253 639.091 42.1253L643.757 44.3728C643.757 44.3728 646.692 46.6203 649.628 47.9782C652.563 49.3283 659.413 52.1065 662.873 54.432C666.333 56.7576 669.949 59.0832 673.409 60.8859C676.869 62.6886 682.889 64.9361 682.889 64.9361C682.889 64.9361 685.078 66.7984 685 68.0002C685.757 68.7634 687.841 68.2371 688.5 69.5002C689.854 70.1011 681 69.0002 681 69.0002C681 69.0002 678.849 69.7494 672 69.0002C665.15 68.2511 657.5 66.5002 649.628 69.0002C618.621 50.9186 613.337 48.7274 610.778 45.4264C608.218 42.1253 607.466 38.9725 607.466 38.9725H607.474Z" fill="#3E0E0C"/>
<path d="M739.039 65.1547C736.667 61.8146 764.48 56.4533 768.848 55.1033C773.216 53.7532 780.284 51.9505 780.284 51.9505C780.284 51.9505 786.758 47.2994 793.083 46.6985C799.408 46.0976 802.79 46.8468 803.165 47.1511C803.541 47.4555 805.271 52.4812 805.576 53.6049C805.874 54.7287 810.39 67.3398 804.073 64.4133C797.748 61.4869 794.891 60.8079 793.686 60.964C792.48 61.1123 786.609 59.6139 786.609 59.6139C786.609 59.6139 774.264 61.9395 772.456 64.4133C770.648 66.8871 774.27 64.4948 776 66.001C777.73 67.4993 773 70.001 767.5 70.001C767.125 69.6966 761.038 70.258 757.5 69.501C753.962 68.7518 741.966 69.2907 739.031 65.1625L739.039 65.1547Z" fill="#3E0E0C"/>
<path d="M0.0567422 13.8596C8.72228 17.0592 24.3234 21.1172 24.3234 21.1172L35.4156 28.0315C35.4156 28.0315 34.7189 31.5744 36.8011 35.1174C38.8834 38.6604 46.7661 50.5847 48.9345 59.3095C51.1028 68.0342 51.5333 71.9284 51.5333 71.9284C51.5333 71.9284 37.7561 49.6326 24.6678 39.2691C11.5795 28.8977 -0.984375 19.7359 -0.984375 19.7359L0.0567422 13.8596Z" fill="#3E0E0C"/>
<path d="M504.725 19.0494C492.106 22.5455 488.513 21.4686 487.01 29.5456C485.507 37.6304 480.325 53.207 479.824 54.5415C479.323 55.8759 477.82 56.7109 477.82 56.7109C477.82 56.7109 473.225 44.7944 471.135 43.5458C469.045 42.2972 471.55 43.6316 462.775 40.0496C454 36.4677 443.048 32.3862 443.048 32.3862L465.945 45.7153C465.945 45.7153 426.414 39.7141 423.658 40.3852C420.903 41.0485 415.22 42.8044 411.455 46.8859C407.697 50.9673 390.899 70.3834 390.899 69.8839C390.899 69.3845 391.987 53.8859 394.578 50.8892C397.169 47.8926 373.434 56.9685 372.01 57.3899C370.593 57.8035 356.299 61.1358 350.616 61.6352C344.933 62.1347 336.909 63.4691 336.909 63.4691C336.909 63.4691 361.145 43.8033 366.162 40.8066C371.18 37.8099 384.965 27.0562 397.92 26.6426C410.875 26.229 425.67 27.142 426.336 27.142C427.001 27.142 446.226 14.8119 463.777 13.3135C481.327 11.8152 494.376 11.8386 500.881 11.4796C505.359 11.2299 505.727 11.144 505.727 11.144L504.725 19.0572V19.0494Z" fill="#3E0E0C"/>
<path d="M0.44043 0.796044C8.62846 -0.780341 13.1452 0.218556 20.66 1.79494C28.1827 3.37913 42.8914 6.29779 42.8914 6.29779L48.9111 11.1284L37.3805 13.7973C37.3805 13.7973 59.1109 15.0459 61.2792 15.6312C63.4554 16.2165 49.4121 17.9646 49.4121 17.9646L54.5942 18.9635L47.7447 20.298L62.2891 56.1256C62.2891 56.1256 44.3239 27.3839 44.2378 23.4663C44.1517 19.5488 43.2358 20.1341 43.2358 20.1341L16.1589 15.4674L26.5232 15.3035L2.78099 2.80164L0.44043 0.796044Z" fill="#3E0E0C"/>
<path d="M51.917 20.7974C55.51 22.1318 61.9446 24.3793 63.6198 25.3002C65.295 26.2133 67.4633 27.7975 68.8019 27.6336C70.1405 27.4697 77.8275 22.1318 77.8275 22.1318C77.8275 22.1318 68.387 18.7996 67.9643 18.6357C67.5416 18.4718 51.917 20.8052 51.917 20.8052V20.7974Z" fill="#3E0E0C"/>
<path d="M115.104 31.1296C117.609 30.3804 129.562 26.9623 135.331 28.6324C141.101 30.3024 141.351 31.6291 143.018 32.4641C144.686 33.2991 150.205 34.6336 150.205 34.6336L155.387 37.1308C155.387 37.1308 158.643 39.628 161.907 41.1264C165.164 42.6247 172.772 45.7073 176.616 48.2904C180.46 50.8734 184.475 53.4565 188.319 55.4543C192.162 57.4521 198.847 59.9572 198.847 59.9572C198.847 59.9572 200.436 62.2905 200.35 63.625C200.264 64.9595 204.194 64.7878 205.697 65.4589C207.2 66.1222 208.875 68.6273 208.875 68.6273C208.875 68.6273 196.757 67.4645 189.149 66.6295C181.54 65.7945 171.512 63.0475 171.097 74.2929C136.662 54.2135 121.625 41.9692 118.783 38.3014C115.942 34.6336 115.104 31.1374 115.104 31.1374V31.1296Z" fill="#3E0E0C"/>
<path d="M261.189 60.207C258.551 56.5001 289.44 50.5458 294.286 49.0396C299.131 47.5413 306.991 45.5435 306.991 45.5435C306.991 45.5435 314.177 40.3773 321.198 39.714C328.22 39.0506 331.977 39.8778 332.4 40.2134C332.823 40.549 334.741 46.1288 335.077 47.3774C335.414 48.626 340.424 62.6262 333.402 59.372C326.38 56.1177 323.202 55.3764 321.872 55.5402C320.533 55.7041 314.012 54.0419 314.012 54.0419C314.012 54.0419 300.306 56.625 298.302 59.372C296.298 62.1189 298.051 64.0387 299.977 65.7009C301.902 67.3709 301.229 71.866 300.814 71.5304C300.399 71.1949 287.523 71.1948 283.601 70.3676C279.679 69.5404 264.461 64.7879 261.205 60.1992L261.189 60.207Z" fill="#3E0E0C"/>
<path d="M228.257 65.2328C228.257 65.2328 246.097 64.468 248.164 64.468C250.23 64.468 252.704 64.8738 252.704 64.8738C252.704 64.8738 246.363 69.0645 244.751 68.5494C243.138 68.0344 233.886 65.2328 228.257 65.2328Z" fill="#3E0E0C"/>
<path d="M1438.94 44.2949C1430.28 47.4945 1414.68 51.5525 1414.68 51.5525L1403.58 58.4668C1403.58 58.4668 1404.28 62.0098 1402.2 65.5527C1400.12 69.0957 1400 69.5 1405.5 65C1403.33 73.7247 1408 68.5 1408 68.5C1408 68.5 1411.5 70.5 1419 63.5C1432.09 53.1286 1439.98 50.1791 1439.98 50.1791L1438.94 44.3027V44.2949Z" fill="#3E0E0C"/>
<path d="M925.195 40.315C937.813 43.8111 930.588 39.6985 940.679 47.8223C947.09 52.9885 958.683 63.1804 959.184 64.5071C959.685 65.8337 961.188 66.6765 961.188 66.6765C961.188 66.6765 965.783 54.76 967.873 53.5114C969.963 52.2628 967.458 53.5972 976.233 50.0152C985.008 46.4332 995.959 42.3518 995.959 42.3518L973.063 55.6809C973.063 55.6809 1012.59 49.6797 1015.35 50.3508C1018.1 51.0141 1023.79 52.77 1027.55 56.8514C1031.31 60.9329 1048.11 80.349 1048.11 79.8495C1048.11 79.3501 1047.02 63.8515 1044.43 60.8548C1041.84 57.8581 1065.57 66.9341 1067 67.3555C1068.41 67.7691 1082.71 71.1013 1088.39 71.6008C1094.08 72.1002 1102.1 73.4347 1102.1 73.4347C1102.1 73.4347 1077.86 53.7689 1072.85 50.7722C1067.83 47.7755 1054.04 37.0218 1041.09 36.6082C1028.13 36.1945 1013.34 37.1076 1012.67 37.1076C1012.01 37.1076 992.781 24.7775 975.231 23.2791C957.681 21.7808 944.632 21.8042 938.127 21.4452C933.649 21.1955 932.295 23.0762 932.295 23.0762L925.195 40.3228V40.315Z" fill="#3E0E0C"/>
<path d="M1438.56 31.2311C1430.37 29.6469 1425.85 30.6458 1418.33 32.23C1410.81 33.8142 1396.1 36.7328 1396.1 36.7328L1390.08 41.5634L1401.61 44.2324C1401.61 44.2324 1379.88 45.481 1377.71 46.0663C1375.54 46.6516 1389.58 48.3996 1389.58 48.3996L1384.4 49.3985L1391.25 50.733L1376.7 86.5607C1376.7 86.5607 1394.67 57.8189 1394.75 53.9014C1394.84 49.9838 1395.76 50.5691 1395.76 50.5691L1422.83 45.9024L1412.47 45.7385L1436.2 33.2445L1438.54 31.2467L1438.56 31.2311Z" fill="#3E0E0C"/>
<path d="M1387.08 51.2246C1383.48 52.5591 1377.05 54.8066 1375.37 55.7275C1373.7 56.6483 1371.53 58.2247 1370.19 58.0608C1368.85 57.8969 1361.16 52.5591 1361.16 52.5591C1361.16 52.5591 1370.61 49.2268 1371.03 49.0629C1371.45 48.8991 1387.08 51.2324 1387.08 51.2324V51.2246Z" fill="#3E0E0C"/>
<path d="M1323.9 41.103C1321.39 40.3538 1309.44 36.9357 1303.67 38.6057C1297.9 40.2758 1297.65 41.6024 1295.98 42.4375C1294.31 43.2725 1288.8 44.6069 1288.8 44.6069L1283.61 47.1042C1283.61 47.1042 1280.36 49.6014 1277.09 51.0998C1273.84 52.5981 1266.23 55.6807 1262.38 58.2637C1258.54 60.8468 1254.52 63.4299 1250.68 65.4277C1246.84 67.4255 1240 69.9993 1240 69.9993C1240.09 71.3337 1247.5 69.8281 1246 70.4993C1244 70.5983 1250.68 70.4227 1250.68 70.4227C1250.68 70.4227 1252.39 68.8343 1260 67.9993C1267.61 67.1643 1285.58 56.7539 1286 67.9993C1320.43 47.9199 1317.38 51.9426 1320.22 48.2748C1323.06 44.6069 1323.9 41.1108 1323.9 41.1108V41.103Z" fill="#3E0E0C"/>
<path d="M1177.81 70.1804C1180.45 66.4735 1149.56 60.5192 1144.71 59.013C1139.87 57.5147 1132.01 55.5169 1132.01 55.5169C1132.01 55.5169 1124.82 50.3507 1117.8 49.6874C1110.78 49.024 1107.02 49.8512 1106.6 50.1868C1106.18 50.5224 1104.26 56.1021 1103.92 57.3508C1103.59 58.5994 1098.58 72.5996 1105.6 69.3454C1112.62 66.0989 1115.8 65.3498 1117.13 65.5136C1118.47 65.6775 1124.99 64.0153 1124.99 64.0153C1124.99 64.0153 1138.69 66.5984 1140.7 69.3454C1142.7 72.0923 1140.95 74.0121 1139.02 75.6743C1137.1 77.3443 1137.77 81.8394 1138.19 81.5038C1138.6 81.1682 1151.48 81.1682 1155.4 80.341C1159.32 79.5138 1174.54 74.7612 1177.8 70.1726L1177.81 70.1804Z" fill="#3E0E0C"/>
<path d="M1210.74 75.2062C1210.74 75.2062 1192.9 74.4414 1190.84 74.4414C1188.77 74.4414 1186.3 74.8472 1186.3 74.8472C1186.3 74.8472 1192.64 79.0379 1194.25 78.5228C1195.86 78.0078 1205.11 75.2062 1210.74 75.2062Z" fill="#521210"/>
</g>
<defs>
<clipPath id="clip0_1343_1687">
<rect width="1441" height="177" fill="white" transform="translate(-1)"/>
</clipPath>
</defs>
</svg>
