<svg width="106" height="106" viewBox="0 0 106 106" fill="none" xmlns="http://www.w3.org/2000/svg">
<path fill-rule="evenodd" clip-rule="evenodd" d="M105.5 53C105.5 81.9958 81.9958 105.5 53 105.5C24.0043 105.5 0.5 81.9958 0.5 53C0.5 24.0043 24.0043 0.5 53 0.5C81.9958 0.5 105.5 24.0043 105.5 53ZM78.9875 27.0125C79.9717 27.997 80.5246 29.3321 80.5246 30.7243C80.5246 32.1164 79.9717 33.4515 78.9875 34.436L60.4235 53L78.9875 71.564C79.9438 72.5542 80.473 73.8803 80.461 75.2569C80.4491 76.6334 79.8969 77.9502 78.9235 78.9235C77.9502 79.8969 76.6334 80.4491 75.2569 80.461C73.8803 80.473 72.5542 79.9438 71.564 78.9875L53 60.4235L34.436 78.9875C33.9517 79.4889 33.3724 79.8889 32.7319 80.164C32.0914 80.4392 31.4024 80.584 30.7054 80.5901C30.0083 80.5961 29.3169 80.4633 28.6717 80.1993C28.0265 79.9353 27.4404 79.5455 26.9474 79.0526C26.4545 78.5596 26.0647 77.9735 25.8007 77.3283C25.5367 76.683 25.4039 75.9917 25.4099 75.2946C25.416 74.5976 25.5608 73.9086 25.836 73.2681C26.1111 72.6276 26.5111 72.0483 27.0125 71.564L45.5765 53L27.0125 34.436C26.5111 33.9517 26.1111 33.3724 25.836 32.7319C25.5608 32.0914 25.416 31.4024 25.4099 30.7054C25.4039 30.0083 25.5367 29.3169 25.8007 28.6717C26.0647 28.0265 26.4545 27.4404 26.9474 26.9474C27.4404 26.4545 28.0265 26.0647 28.6717 25.8007C29.3169 25.5367 30.0083 25.4039 30.7054 25.4099C31.4024 25.416 32.0914 25.5608 32.7319 25.836C33.3724 26.1111 33.9517 26.5111 34.436 27.0125L53 45.5765L71.564 27.0125C72.5485 26.0283 73.8836 25.4754 75.2757 25.4754C76.6679 25.4754 78.003 26.0283 78.9875 27.0125Z" fill="#DB2525"/>
</svg>
