<svg width="24" height="24" viewBox="0 0 24 24" fill="none" xmlns="http://www.w3.org/2000/svg">
<rect width="23.9983" height="23.9996" rx="11.9992" fill="#EEE7E7"/>
<path d="M7.3308 11.6086C7.3308 11.2393 7.63416 10.9359 8.0028 10.9359H9.13624C9.50552 10.9359 9.82168 11.2393 9.82168 11.622V15.8966C9.95352 15.8569 10.1116 15.8172 10.2966 15.7775C10.5468 15.7116 10.7318 15.4876 10.7318 15.2233V9.91962C10.7318 9.55034 11.0351 9.23354 11.4172 9.23354H12.5506C12.9199 9.23354 13.2361 9.5369 13.2361 9.91962V14.8412C13.2361 14.8412 13.5132 14.7222 13.7897 14.6038C14.0009 14.5116 14.1327 14.3139 14.1327 14.0758V8.20506C14.1327 7.83578 14.4361 7.51898 14.8054 7.51898H15.9388C16.3081 7.51898 16.6114 7.82234 16.6114 8.20506V13.0473C17.5868 12.335 18.589 11.4774 19.3801 10.4483C19.6175 10.1449 19.6834 9.74874 19.5516 9.37946C18.1014 5.2105 13.5407 2.99354 9.37496 4.44506C5.2092 5.89658 2.9948 10.4611 4.4444 14.6307C4.60248 15.1055 4.81368 15.5542 5.06392 15.9894C5.26168 16.3324 5.63096 16.5302 6.02648 16.4905C6.23768 16.4771 6.50136 16.4508 6.83032 16.4111C7.12024 16.3849 7.33144 16.134 7.33144 15.8435L7.3308 11.6086Z" fill="#21325B"/>
<path d="M7.30371 18.4692C10.8762 21.0682 15.8727 20.2765 18.4692 16.7015C19.458 15.3293 19.9981 13.6801 19.9981 11.9917C19.9981 11.8068 19.9847 11.6225 19.9719 11.4375C17.0592 15.8042 11.6672 17.849 7.30371 18.4692Z" fill="#979695"/>
</svg>
