<svg width='25' height='24' viewBox='0 0 25 24' fill="none" xmlns="http://www.w3.org/2000/svg">
<path
  d="M12.5654 20.6378C12.5654 20.9362 12.4469 21.2223 12.2359 21.4333C12.0249 21.6443 11.7388 21.7628 11.4404 21.7628H5.44043C5.14206 21.7628 4.85591 21.6443 4.64493 21.4333C4.43396 21.2223 4.31543 20.9362 4.31543 20.6378V4.13782C4.31543 3.83945 4.43396 3.5533 4.64493 3.34232C4.85591 3.13134 5.14206 3.01282 5.44043 3.01282H11.4404C11.7388 3.01282 12.0249 3.13134 12.2359 3.34232C12.4469 3.5533 12.5654 3.83945 12.5654 4.13782C12.5654 4.43619 12.4469 4.72233 12.2359 4.93331C12.0249 5.14429 11.7388 5.26282 11.4404 5.26282H6.56543V19.5128H11.4404C11.7388 19.5128 12.0249 19.6313 12.2359 19.8423C12.4469 20.0533 12.5654 20.3394 12.5654 20.6378ZM22.7364 11.5919L18.9864 7.84188C18.775 7.63054 18.4884 7.5118 18.1895 7.5118C17.8906 7.5118 17.604 7.63054 17.3926 7.84188C17.1813 8.05322 17.0625 8.33987 17.0625 8.63875C17.0625 8.93764 17.1813 9.22429 17.3926 9.43563L19.2217 11.2628H11.4404C11.1421 11.2628 10.8559 11.3813 10.6449 11.5923C10.434 11.8033 10.3154 12.0894 10.3154 12.3878C10.3154 12.6862 10.434 12.9723 10.6449 13.1833C10.8559 13.3943 11.1421 13.5128 11.4404 13.5128H19.2217L17.3917 15.3419C17.1803 15.5532 17.0616 15.8399 17.0616 16.1388C17.0616 16.4376 17.1803 16.7243 17.3917 16.9356C17.603 17.147 17.8897 17.2657 18.1886 17.2657C18.4874 17.2657 18.7741 17.147 18.9854 16.9356L22.7354 13.1856C22.8404 13.0812 22.9237 12.957 22.9805 12.8203C23.0374 12.6836 23.0667 12.537 23.0668 12.3889C23.0669 12.2409 23.0377 12.0943 22.981 11.9575C22.9243 11.8207 22.8412 11.6965 22.7364 11.5919Z"
  fill='#521210'
/>
</svg>