<svg width="1440" height="177" viewBox="0 0 1440 177" fill="none" xmlns="http://www.w3.org/2000/svg">
<path d="M-0.999997 143.484L0.182009 145.06C0.596926 145.099 24.9574 142.859 25.4976 142.407C26.0377 141.946 44.2377 137.756 44.2377 137.756C44.2377 137.756 48.8171 135.227 49.8973 134.931C50.9775 134.642 51.1888 133.354 51.228 132.769C51.2672 132.191 53.3964 131.029 53.3964 131.029C53.3964 131.029 61.7253 130.904 62.5551 130.693C63.3848 130.482 67.9563 127.938 67.9563 127.938C67.9563 127.938 78.4616 124.754 80.2072 123.467C81.9528 122.179 87.0331 117.153 87.0331 117.153L102.5 107.502C102.5 107.502 111.605 135.079 115.683 136.117C119.762 137.155 190.307 106.805 190.307 106.805L198.832 107.063L205.5 108.477L212.607 108.477L214 107.502C214 107.502 226.032 111.693 231.989 111.864C237.946 112.028 247.605 108.376 249.148 108.711C250.69 109.047 261.174 106.813 261.174 106.813L317.895 121.461L332.377 126.815C332.377 126.815 345.88 116.857 347.461 112.167C357.082 116.194 399.392 132.465 399.392 132.465L440.911 138.606L480.615 125.121L480.615 148.9L538.072 140.464L575.458 134.931C575.458 134.931 613.564 120.275 622.222 116.646C623.647 120.868 635.804 129.843 635.804 129.843L648.845 125.028L699.93 111.839C699.93 111.839 716.114 107.306 717.5 107.002C718.886 106.705 724.138 109.65 729.5 109.502C734.862 109.354 733.944 106.608 739.5 110.002C740.011 110.314 745.5 110.502 745.5 110.502L749.387 108.616L756.072 112.065L763.751 111.831C763.751 111.831 827.283 139.16 830.954 138.224C834.633 137.287 842.133 128.43 842.133 128.43L856.755 139.574C856.755 139.574 861.327 144.1 862.908 145.255C864.481 146.418 873.938 149.282 873.938 149.282C873.938 149.282 878.055 151.576 878.807 151.764C879.558 151.951 887.057 152.06 887.057 152.06C887.057 152.06 888.967 153.106 889.006 153.629C889.045 154.152 889.233 155.314 890.204 155.572C891.183 155.837 895.308 158.116 895.308 158.116C895.308 158.116 911.7 161.893 912.185 162.307C912.67 162.72 934.526 164.726 934.902 164.687L936.052 163.282L936.052 157.695L998.042 148.595L1039.56 142.454C1039.56 142.454 1081.87 126.183 1091.49 122.156C1093.07 126.846 1106.58 136.804 1106.58 136.804L1121.06 131.45L1177.78 116.802C1177.78 116.802 1192.02 108.952 1193.55 108.616C1195.09 108.28 1204.75 111.94 1210.71 111.769C1216.67 111.605 1228.7 107.406 1228.7 107.406L1230.09 108.382L1232.69 113.22L1240.12 117.052L1248.65 116.794C1248.65 116.794 1319.19 147.144 1323.27 146.106C1327.35 145.068 1335.68 135.227 1335.68 135.227L1351.92 147.596C1351.92 147.596 1357 152.622 1358.75 153.91C1360.49 155.197 1371 158.381 1371 158.381C1371 158.381 1375.57 160.925 1376.4 161.136C1377.23 161.347 1385.56 161.472 1385.56 161.472C1385.56 161.472 1387.68 162.635 1387.72 163.212C1387.77 163.79 1387.98 165.077 1389.06 165.374C1390.14 165.662 1394.72 168.199 1394.72 168.199C1394.72 168.199 1412.92 172.389 1413.46 172.85C1414.04 173.287 1438.4 175.534 1438.82 175.488L1440 173.911L1440 0.00149536L-0.960922 0.00136939L-0.960927 56.9932L-0.99999 56.9932L-0.999997 143.484Z" fill="#250807"/>
<path d="M480.63 148.907C491.996 145.754 495.229 146.729 496.583 139.456C497.938 132.175 502.603 118.144 503.057 116.95C503.511 115.756 504.865 114.999 504.865 114.999C504.865 114.999 509.006 125.729 510.885 126.853C512.764 127.977 510.509 126.775 518.408 130.006C526.314 133.229 536.169 136.912 536.169 136.912L515.543 124.91C515.543 124.91 551.144 130.31 553.626 129.709C556.107 129.108 561.227 127.532 564.616 123.856C568.006 120.181 583.129 102.7 583.129 103.145C583.129 103.589 582.151 117.551 579.818 120.251C577.485 122.951 598.863 114.772 600.139 114.398C601.415 114.023 614.292 111.019 619.404 110.574C624.523 110.121 631.749 108.92 631.749 108.92C631.749 108.92 609.924 126.627 605.407 129.327C600.891 132.027 588.476 141.704 576.804 142.086C565.133 142.468 551.817 141.633 551.215 141.633C550.612 141.633 533.304 152.738 517.492 154.088C501.687 155.439 491.268 154.276 485.397 154.276C479.526 154.276 479.338 149.461 479.338 149.461L480.614 148.914L480.63 148.907Z" fill="#3E0E0C"/>
<path d="M934.988 165.631C927.614 167.059 923.348 165.865 916.569 164.437C909.797 163.009 896.545 160.386 896.545 160.386L891.128 156.032L901.515 153.628C901.515 153.628 881.946 152.505 879.989 151.974C878.032 151.443 890.674 149.875 890.674 149.875L886.008 148.977L892.177 147.775L879.081 115.514C879.081 115.514 895.261 141.4 895.339 144.927C895.418 148.454 896.239 147.931 896.239 147.931L920.624 152.13L911.293 152.278L932.671 163.531L934.98 165.623L934.988 165.631Z" fill="#3E0E0C"/>
<path d="M888.427 147.331C885.194 146.129 879.394 144.108 877.891 143.28C876.388 142.453 874.431 141.033 873.225 141.181C872.02 141.329 865.1 146.137 865.1 146.137C865.1 146.137 873.601 149.141 873.985 149.289C874.368 149.438 888.435 147.338 888.435 147.338L888.427 147.331Z" fill="#3E0E0C"/>
<path d="M831.526 138.029C829.271 138.708 818.508 141.782 813.31 140.276C808.12 138.778 807.893 137.576 806.382 136.827C804.872 136.078 799.909 134.876 799.909 134.876L795.243 132.628C795.243 132.628 792.308 130.381 789.372 129.023C786.437 127.673 779.587 124.895 776.127 122.569C772.668 120.244 769.051 117.918 765.591 116.115C762.131 114.313 756.111 112.065 756.111 112.065C756.111 112.065 753.922 110.203 754 109.001C753.243 108.238 751.159 108.764 750.5 107.501C749.146 106.9 758 108.001 758 108.001C758 108.001 760.151 107.252 767 108.001C773.85 108.75 781.5 110.501 789.372 108.001C820.379 126.083 825.663 128.274 828.222 131.575C830.782 134.876 831.534 138.029 831.534 138.029L831.526 138.029Z" fill="#3E0E0C"/>
<path d="M699.961 111.847C702.333 115.187 674.52 120.549 670.152 121.899C665.784 123.249 658.716 125.051 658.716 125.051C658.716 125.051 652.242 129.703 645.917 130.303C639.592 130.904 636.21 130.155 635.835 129.851C635.459 129.546 633.729 124.521 633.424 123.397C633.126 122.273 628.61 109.662 634.927 112.589C641.252 115.515 644.109 116.194 645.314 116.038C646.52 115.89 652.391 117.388 652.391 117.388C652.391 117.388 664.736 115.062 666.544 112.589C668.352 110.115 664.73 112.507 663 111.001C661.27 109.503 666 107.001 671.5 107.001C671.875 107.305 677.962 106.744 681.5 107.501C685.038 108.25 697.034 107.711 699.969 111.839L699.961 111.847Z" fill="#3E0E0C"/>
<path d="M1438.94 163.142C1430.28 159.942 1414.68 155.884 1414.68 155.884L1403.58 148.97C1403.58 148.97 1404.28 145.427 1402.2 141.884C1400.12 138.341 1392.23 126.416 1390.07 117.692C1387.9 108.967 1387.47 105.073 1387.47 105.073C1387.47 105.073 1401.24 127.369 1414.33 137.732C1427.42 148.104 1439.98 157.265 1439.98 157.265L1438.94 163.142Z" fill="#3E0E0C"/>
<path d="M934.275 157.952C946.894 154.456 950.487 155.533 951.99 147.456C953.493 139.371 958.675 123.794 959.176 122.46C959.677 121.126 961.18 120.291 961.18 120.291C961.18 120.291 965.775 132.207 967.865 133.456C969.955 134.704 967.45 133.37 976.225 136.952C985 140.534 995.952 144.615 995.952 144.615L973.055 131.286C973.055 131.286 1012.59 137.287 1015.34 136.616C1018.1 135.953 1023.78 134.197 1027.55 130.116C1031.3 126.034 1048.1 106.618 1048.1 107.118C1048.1 107.617 1047.01 123.116 1044.42 126.112C1041.83 129.109 1065.57 120.033 1066.99 119.612C1068.41 119.198 1082.7 115.866 1088.38 115.366C1094.07 114.867 1102.09 113.532 1102.09 113.532C1102.09 113.532 1077.86 133.198 1072.84 136.195C1067.82 139.192 1054.04 149.945 1041.08 150.359C1028.12 150.772 1013.33 149.859 1012.66 149.859C1012 149.859 992.774 162.19 975.223 163.688C957.673 165.186 944.624 165.163 938.119 165.522C933.641 165.772 933.273 165.857 933.273 165.857L934.275 157.944L934.275 157.952Z" fill="#3E0E0C"/>
<path d="M1438.56 176.205C1430.37 177.782 1425.85 176.783 1418.34 175.207C1410.82 173.622 1396.11 170.704 1396.11 170.704L1390.09 165.873L1401.62 163.204C1401.62 163.204 1379.89 161.956 1377.72 161.37C1375.54 160.785 1389.59 159.037 1389.59 159.037L1384.41 158.038L1391.26 156.703L1376.71 120.876C1376.71 120.876 1394.68 149.618 1394.76 153.535C1394.85 157.453 1395.76 156.867 1395.76 156.867L1422.84 161.534L1412.48 161.698L1436.22 174.2L1438.56 176.205Z" fill="#3E0E0C"/>
<path d="M1387.08 156.204C1383.49 154.87 1377.06 152.622 1375.38 151.701C1373.71 150.788 1371.54 149.204 1370.2 149.368C1368.86 149.532 1361.17 154.87 1361.17 154.87C1361.17 154.87 1370.61 158.202 1371.04 158.366C1371.46 158.53 1387.08 156.196 1387.08 156.196L1387.08 156.204Z" fill="#3E0E0C"/>
<path d="M1323.9 145.872C1321.39 146.621 1309.44 150.039 1303.67 148.369C1297.9 146.699 1297.65 145.372 1295.98 144.537C1294.31 143.702 1288.8 142.368 1288.8 142.368L1283.61 139.871C1283.61 139.871 1280.36 137.373 1277.09 135.875C1273.84 134.377 1266.23 131.294 1262.38 128.711C1258.54 126.128 1254.52 123.545 1250.68 121.547C1246.84 119.549 1240.15 117.044 1240.15 117.044C1240.15 117.044 1238.56 114.711 1238.65 113.376C1238.74 112.042 1234.81 112.214 1233.3 111.543C1231.8 110.879 1230.13 108.374 1230.13 108.374C1230.13 108.374 1242.24 109.537 1249.85 110.372C1257.46 111.207 1267.49 113.954 1267.9 102.709C1302.34 122.788 1317.38 135.032 1320.22 138.7C1323.06 142.368 1323.9 145.864 1323.9 145.864L1323.9 145.872Z" fill="#3E0E0C"/>
<path d="M1177.81 116.794C1180.45 120.501 1149.56 126.455 1144.71 127.961C1139.87 129.459 1132.01 131.457 1132.01 131.457C1132.01 131.457 1124.82 136.623 1117.8 137.287C1110.78 137.95 1107.02 137.123 1106.6 136.787C1106.18 136.452 1104.26 130.872 1103.92 129.623C1103.59 128.375 1098.58 114.375 1105.6 117.629C1112.62 120.883 1115.8 121.624 1117.13 121.46C1118.47 121.297 1124.99 122.959 1124.99 122.959C1124.99 122.959 1138.69 120.376 1140.7 117.629C1142.7 114.882 1140.95 112.962 1139.02 111.3C1137.1 109.63 1137.77 105.135 1138.19 105.47C1138.6 105.806 1151.48 105.806 1155.4 106.633C1159.32 107.46 1174.54 112.213 1177.8 116.802L1177.81 116.794Z" fill="#3E0E0C"/>
<path d="M1210.74 111.769C1210.74 111.769 1192.9 112.534 1190.84 112.534C1188.77 112.534 1186.3 112.128 1186.3 112.128C1186.3 112.128 1192.64 107.938 1194.25 108.453C1195.86 108.968 1205.11 111.769 1210.74 111.769Z" fill="#3E0E0C"/>
<path d="M0.0568695 132.706C8.72241 129.506 24.3235 125.448 24.3235 125.448L35.4157 118.534C35.4157 118.534 34.719 114.991 36.8012 111.448C38.8834 107.905 39.0003 107.501 33.5003 112.001C35.6686 103.276 31.0002 108.501 31.0002 108.501C31.0002 108.501 27.5002 106.501 20.0002 113.501C6.91192 123.872 -0.984207 126.822 -0.984207 126.822L0.0568695 132.698L0.0568695 132.706Z" fill="#3E0E0C"/>
<path d="M513.805 136.686C501.187 133.19 508.412 137.303 498.321 129.179C491.91 124.013 480.317 113.821 479.816 112.494C479.315 111.168 477.812 110.325 477.812 110.325C477.812 110.325 473.217 122.241 471.127 123.49C469.037 124.739 471.542 123.404 462.767 126.986C453.992 130.568 443.041 134.65 443.041 134.65L465.937 121.321C465.937 121.321 426.406 127.322 423.651 126.651C420.895 125.987 415.212 124.231 411.447 120.15C407.69 116.069 390.891 96.6525 390.891 97.152C390.891 97.6514 391.979 113.15 394.57 116.147C397.161 119.143 373.427 110.067 372.002 109.646C370.585 109.232 356.291 105.9 350.608 105.401C344.925 104.901 336.901 103.567 336.901 103.567C336.901 103.567 361.137 123.233 366.154 126.229C371.172 129.226 384.957 139.98 397.912 140.393C410.868 140.807 425.662 139.894 426.328 139.894C426.993 139.894 446.219 152.224 463.769 153.722C481.319 155.221 494.368 155.197 500.873 155.556C505.351 155.806 506.705 153.925 506.705 153.925L513.805 136.679L513.805 136.686Z" fill="#3E0E0C"/>
<path d="M0.440418 145.77C8.62845 147.355 13.1451 146.356 20.6678 144.771C28.1905 143.187 42.8992 140.269 42.8992 140.269L48.9189 135.438L37.3883 132.769C37.3883 132.769 59.1187 131.52 61.287 130.935C63.4554 130.35 49.4198 128.602 49.4198 128.602L54.6019 127.603L47.7525 126.268L62.2969 90.4408C62.2969 90.4408 44.3317 119.183 44.2456 123.1C44.1595 127.018 43.2437 126.432 43.2437 126.432L16.1667 131.099L26.5309 131.263L2.79664 143.757L0.456089 145.755L0.440418 145.77Z" fill="#3E0E0C"/>
<path d="M51.925 125.776C55.518 124.442 61.9525 122.194 63.6277 121.274C65.3029 120.353 67.4712 118.776 68.8098 118.94C70.1484 119.104 77.8354 124.442 77.8354 124.442C77.8354 124.442 68.395 127.774 67.9723 127.938C67.5495 128.102 51.925 125.769 51.925 125.769L51.925 125.776Z" fill="#3E0E0C"/>
<path d="M115.104 135.898C117.609 136.647 129.562 140.065 135.332 138.395C141.101 136.725 141.351 135.399 143.019 134.564C144.686 133.729 150.205 132.394 150.205 132.394L155.387 129.897C155.387 129.897 158.643 127.4 161.908 125.901C165.164 124.403 172.773 121.321 176.616 118.737C180.46 116.154 184.476 113.571 188.319 111.574C192.163 109.576 199 107.002 199 107.002C198.914 105.667 191.497 107.173 193 106.502C195 106.403 188.319 106.579 188.319 106.579C188.319 106.579 186.609 108.167 179 109.002C171.391 109.837 153.415 120.247 153 109.002C118.565 129.081 121.625 125.059 118.783 128.726C115.942 132.394 115.104 135.89 115.104 135.89L115.104 135.898Z" fill="#3E0E0C"/>
<path d="M261.189 106.821C258.551 110.528 289.44 116.482 294.286 117.988C299.131 119.487 306.99 121.485 306.99 121.485C306.99 121.485 314.176 126.651 321.198 127.314C328.22 127.977 331.977 127.15 332.4 126.815C332.823 126.479 334.741 120.899 335.077 119.651C335.414 118.402 340.424 104.402 333.402 107.656C326.38 110.903 323.202 111.652 321.871 111.488C320.533 111.324 314.012 112.986 314.012 112.986C314.012 112.986 300.305 110.403 298.301 107.656C296.297 104.909 298.051 102.989 299.977 101.327C301.902 99.6571 301.229 95.1621 300.814 95.4977C300.399 95.8332 287.522 95.8332 283.601 96.6604C279.679 97.4876 264.461 102.24 261.205 106.829L261.189 106.821Z" fill="#3E0E0C"/>
<path d="M228.257 101.796C228.257 101.796 246.097 102.561 248.163 102.561C250.23 102.561 252.704 102.155 252.704 102.155C252.704 102.155 246.363 97.9641 244.75 98.4791C243.138 98.9942 233.885 101.796 228.257 101.796Z" fill="#521210"/>
</svg>
