<svg width="390" height="128" viewBox="0 0 390 128" fill="none" xmlns="http://www.w3.org/2000/svg">
<g clip-path="url(#clip0_1_8507)">
<path d="M2.58958 0.204645H389.606V102.886C389.606 102.886 387.908 101.791 387.703 108.617C387.498 115.442 384.305 126.315 384.305 126.315C384.305 126.315 381.248 120.332 379.004 114.347C376.761 108.363 377.237 94.2894 377.237 94.2894C377.237 94.2894 374.18 94.8783 363.373 100.02C362.422 90.7498 371.324 83.3333 371.324 83.3333C371.324 83.3333 367.179 80.6364 366.159 81.1421C365.138 81.6478 364.325 82.1534 362.217 81.9849C360.109 81.8163 359.567 79.7936 359.091 79.4565C358.614 79.1194 357.936 80.0454 356.508 81.4792C355.08 82.913 352.838 80.2161 352.295 78.7823C351.751 77.3485 350.799 76.6764 348.761 76.2539C346.722 75.8315 347.334 71.8715 347.673 69.3431C348.012 66.8148 346.314 64.8775 345.906 64.6236C345.498 64.3696 342.985 65.8866 342.508 65.2978C342.032 64.7089 342.1 64.2033 339.79 65.4663C337.479 66.7294 337.615 64.0347 337.071 60.2411C336.528 56.4475 335.101 58.4724 333.13 56.3643C331.158 54.2563 301.733 51.5616 301.733 51.5616C301.733 51.5616 291.88 50.8874 286.918 50.3817C281.956 49.876 273.53 48.0219 266.122 47.0106C258.713 45.9993 239.754 45.4936 225.483 45.8307C211.211 46.1678 219.91 46.7567 217.599 49.3704C215.288 51.9841 211.754 49.3704 206.046 49.7907C200.337 50.211 206.046 49.7907 205.094 51.5594C204.143 53.3281 203.463 53.5821 201.56 54.4248C199.657 55.2676 200.95 54.8451 199.25 56.9532C197.55 59.0612 195.513 58.9758 193.133 58.6387C190.754 58.3016 190.484 54.5934 187.968 58.8073C185.453 63.0212 180.153 61.0817 179.269 59.8186C178.385 58.5556 176.958 58.1331 174.376 56.7846C171.793 55.4362 172.201 54.3416 171.793 52.9078C171.386 51.474 169.483 52.4875 168.667 52.0651C167.852 51.6426 169.142 46.8399 165.541 51.3908C160.92 56.9532 156.911 50.8852 156.911 50.8852C156.911 50.8852 157.114 48.1051 153.649 50.211C150.183 52.3168 153.31 51.8111 148.619 50.3795C152.221 64.3696 150.115 68.161 147.804 67.4036C145.493 66.6462 134.348 65.1292 122.932 54.0877C120.485 73.8087 116.68 72.7974 113.961 69.2578C111.243 65.7181 95.9911 71.1556 93.6133 66.8586C91.6434 70.7353 65.5851 60.2696 61.4598 61.6749C57.3327 63.0803 52.7943 73.5877 51.8217 67.8612C50.8473 62.1325 54.3283 55.7251 54.3283 55.7251C54.3283 55.7251 52.1624 55.0421 51.5587 55.1976C50.9549 55.353 48.2948 58.1112 48.2948 58.1112L47.4686 60.7446C46.6425 63.378 44.8031 64.3521 42.5613 62.6622C40.3195 60.9723 39.9894 62.0274 40.2242 71.5628C40.4589 81.1004 36.5507 80.8707 34.0971 80.8991C31.6434 80.9276 30.2718 77.1909 30.4148 79.1216C30.5596 81.0523 29.4475 82.6175 28.8314 81.674C28.2153 80.7306 27.7158 80.4482 27.2356 84.0579C27.4563 92.4966 21.9258 93.3854 20.579 93.624C19.2321 93.8626 18.286 95.0009 18.286 95.0009C19.195 97.8335 13.3416 99.716 13.3416 99.716C13.3416 99.716 16.6125 102.45 20.7378 105.434C24.8632 108.417 28.4766 123.211 26.0865 121.066C23.6964 118.92 15.7952 119.483 11.8076 116.484C4.01588 133.451 1.56928 126.821 0 118.877V0.123651L2.58605 0.204645H2.58958Z" fill="#250807"/>
<path d="M28.9115 86.4175C29.4732 86.5162 56.8593 88.1127 75.1714 60.8929C79.1864 61.5903 81.9173 60.8929 81.9173 60.8929C81.9173 60.8929 64.3293 92.9001 27.6273 90.0075C-9.07469 87.1149 19.7563 85.0227 19.7563 85.0227L28.9115 86.4197V86.4175Z" fill="#250807"/>
<path d="M278.662 47.7318C280.492 54.118 278.969 77.2459 310.358 88.5176C318.849 91.5667 327.92 93.0215 337.042 92.9931C353.207 92.943 368.315 90.8775 368.315 90.8775L368.627 96.1644C368.627 96.1644 335.281 104.522 306.462 91.8786C284.128 82.5917 274.365 66.6634 272.724 47.4483C276.941 45.806 278.66 47.734 278.66 47.734L278.662 47.7318Z" fill="#250807"/>
<path d="M189.31 49.2605C193.303 53.9017 200.355 75.3102 232.983 67.6169C241.81 65.5351 250.58 61.7123 258.857 56.5414C273.523 47.3784 286.496 37.0193 286.496 37.0193L288.708 41.5389C288.708 41.5389 261.463 67.7754 230.672 72.7964C206.994 77.1446 192.314 68.4982 183.814 52.3517C187.047 48.5137 189.31 49.2583 189.31 49.2583V49.2605Z" fill="#250807"/>
<path d="M310.693 12.7144C312.885 27.1189 340.926 106.839 384.611 120.577L381.944 113.46C381.944 113.46 328.254 85.4715 316.327 13.6663C310.247 10.7318 310.693 12.7166 310.693 12.7166V12.7144Z" fill="#250807"/>
</g>
<defs>
<clipPath id="clip0_1_8507">
<rect width="390" height="126.964" fill="white" transform="translate(0 0.123657)"/>
</clipPath>
</defs>
</svg>
