<svg width="390" height="128" viewBox="0 0 390 128" fill="none" xmlns="http://www.w3.org/2000/svg">
<g clip-path="url(#clip0_1_8496)">
<path d="M387.016 127.043L-0.000122063 127.043L-0.000113087 24.3617C-0.000113087 24.3617 1.69804 25.4562 1.90278 18.6308C2.10755 11.8054 5.30085 0.932484 5.30085 0.932484C5.30085 0.932484 8.35823 6.9151 10.6018 12.8999C12.8454 18.8847 12.3688 32.958 12.3688 32.958C12.3688 32.958 15.4262 32.3691 26.2329 27.2271C27.1843 36.4976 18.2823 43.9141 18.2823 43.9141C18.2823 43.9141 22.4271 46.611 23.4474 46.1053C24.4677 45.5996 25.2814 45.094 27.3891 45.2625C29.4968 45.4311 30.0387 47.4538 30.5153 47.7909C30.9919 48.128 31.6698 47.202 33.0979 45.7682C34.5259 44.3344 36.7677 47.0313 37.3114 48.4651C37.8551 49.8989 38.8066 50.571 40.8454 50.9935C42.8843 51.4159 42.2717 55.3759 41.9328 57.9043C41.5938 60.4326 43.292 62.3699 43.6998 62.6238C44.1075 62.8778 46.6212 61.3608 47.0978 61.9496C47.5744 62.5385 47.5056 63.0441 49.8163 61.7811C52.127 60.518 51.991 63.2127 52.5347 67.0063C53.0784 70.7999 54.5047 68.775 56.4764 70.8831C58.4482 72.9911 87.8727 75.6858 87.8727 75.6858C87.8727 75.6858 97.7262 76.36 102.688 76.8657C107.65 77.3714 116.076 79.2255 123.484 80.2368C130.893 81.2481 149.852 81.7538 164.123 81.4167C178.395 81.0796 169.696 80.4907 172.007 77.877C174.318 75.2633 177.851 77.8771 183.56 77.4568C189.269 77.0365 183.56 77.4568 184.512 75.688C185.463 73.9193 186.143 73.6653 188.046 72.8226C189.949 71.9798 188.656 72.4023 190.356 70.2942C192.056 68.1862 194.093 68.2716 196.473 68.6087C198.852 68.9458 199.122 72.654 201.638 68.4401C204.153 64.2263 209.453 66.1657 210.337 67.4288C211.221 68.6919 212.648 69.1144 215.23 70.4628C217.813 71.8112 217.405 72.9058 217.813 74.3396C218.22 75.7734 220.123 74.7599 220.939 75.1824C221.754 75.6048 220.464 80.4076 224.065 75.8566C228.686 70.2943 232.695 76.3623 232.695 76.3623C232.695 76.3623 232.492 79.1423 235.957 77.0365C239.422 74.9306 236.296 75.4363 240.986 76.8679C237.385 62.8778 239.491 59.0864 241.802 59.8438C244.113 60.6012 255.258 62.1182 266.674 73.1597C269.121 53.4387 272.926 54.45 275.645 57.9897C278.363 61.5293 293.615 56.0918 295.993 60.3889C297.963 56.5121 324.021 66.9779 328.146 65.5725C332.273 64.1671 336.812 53.6598 337.784 59.3863C338.759 65.115 335.278 71.5223 335.278 71.5223C335.278 71.5223 337.444 72.2053 338.047 72.0499C338.651 71.8944 341.311 69.1363 341.311 69.1363L342.137 66.5028C342.963 63.8694 344.803 62.8953 347.045 64.5852C349.286 66.2752 349.617 65.22 349.382 55.6846C349.147 46.147 353.055 46.3768 355.509 46.3483C357.963 46.3199 359.334 50.0566 359.191 48.1259C359.046 46.1951 360.159 44.6299 360.775 45.5734C361.391 46.5169 361.89 46.7993 362.37 43.1895C362.15 34.7508 367.68 33.8621 369.027 33.6235C370.374 33.3849 371.32 32.2466 371.32 32.2466C370.411 29.414 376.264 27.5314 376.264 27.5314C376.264 27.5314 372.993 24.7973 368.868 21.8137C364.743 18.83 361.129 4.03657 363.519 6.18181C365.91 8.32706 373.811 7.76449 377.798 10.7634C385.59 -6.20371 388.037 0.426857 389.606 8.37085L389.606 127.124L387.02 127.043L387.016 127.043Z" fill="#250807"/>
<path d="M360.695 40.8299C360.133 40.7312 332.747 39.1347 314.435 66.3545C310.42 65.6571 307.689 66.3545 307.689 66.3545C307.689 66.3545 325.277 34.3473 361.979 37.2399C398.681 40.1325 369.85 42.2247 369.85 42.2247L360.695 40.8277L360.695 40.8299Z" fill="#250807"/>
<path d="M110.944 79.5156C109.114 73.1294 110.637 50.0015 79.2475 38.7298C70.7566 35.6807 61.6863 34.2259 52.564 34.2543C36.3992 34.3044 21.2908 36.3699 21.2908 36.3699L20.9786 31.083C20.9786 31.083 54.3247 22.7252 83.1435 35.3688C105.478 44.6557 115.241 60.584 116.882 79.7991C112.665 81.4414 110.946 79.5134 110.946 79.5134L110.944 79.5156Z" fill="#250807"/>
<path d="M200.296 77.9869C196.303 73.3457 189.251 51.9372 156.623 59.6305C147.796 61.7123 139.026 65.5351 130.749 70.706C116.083 79.869 103.11 90.2281 103.11 90.2281L100.898 85.7085C100.898 85.7085 128.143 59.472 158.934 54.451C182.612 50.1028 197.292 58.7492 205.792 74.8957C202.559 78.7337 200.296 77.9891 200.296 77.9891L200.296 77.9869Z" fill="#250807"/>
<path d="M78.9126 114.533C76.7211 100.128 48.6803 20.4082 4.99471 6.67041L7.6622 13.7871C7.6622 13.7871 61.352 41.7759 73.2792 113.581C79.3587 116.516 78.9126 114.531 78.9126 114.531L78.9126 114.533Z" fill="#250807"/>
</g>
<defs>
<clipPath id="clip0_1_8496">
<rect width="390" height="126.964" fill="white" transform="translate(0 0.123657)"/>
</clipPath>
</defs>
</svg>
