<svg width="524" height="1098" viewBox="0 0 524 1098" fill="none" xmlns="http://www.w3.org/2000/svg">
<path d="M227.621 744.943L167.915 752.57C166.061 781.497 163.364 829.243 116.723 861.873C99.6427 873.821 82.2177 883.157 66.1143 895.027L72.8788 923.085L104.256 928.498C126.322 911.24 202.452 863.886 217.027 838.503C231.602 813.121 250.013 774.278 251.413 768.564C252.813 762.856 227.621 744.943 227.621 744.943Z" fill="#EF9B69"/>
<path d="M3.07227 1006.37C3.51384 1012.33 8.51837 1026.64 23.4944 1009.69C38.4735 992.736 82.1863 945.756 104.253 928.498C88.6722 926.607 72.6627 913.022 66.6999 896.639L66.1142 895.027C38.2417 915.575 14.3309 943.739 3.07227 1006.37Z" fill="#920505"/>
<path d="M11.2648 1018.96C10.4662 1018.96 9.69265 1018.83 8.95043 1018.58C3.8958 1016.87 2.07626 1009.91 1.82259 1006.47L1.81006 1006.31L1.83824 1006.15C7.11523 976.79 15.4457 953.273 27.2993 934.253C36.873 918.889 48.971 906.107 65.3719 894.017C74.1533 887.545 83.5172 881.702 92.5742 876.051C100.269 871.253 108.224 866.289 116.006 860.845C161.779 828.82 164.808 781.472 166.618 753.185L166.728 751.457L227.944 743.636L228.341 743.918C228.404 743.962 234.752 748.487 240.847 753.655C252.353 763.415 253.079 767.012 252.622 768.865C251.109 775.024 232.291 814.419 218.104 839.131C207.224 858.075 163.471 888.429 131.521 910.591C120.4 918.306 110.798 924.967 105.017 929.489C82.8032 946.863 38.1696 994.966 24.4244 1010.52C19.4793 1016.13 15.0605 1018.96 11.2648 1018.96ZM4.33424 1006.43C4.62236 1009.78 6.27592 1015.03 9.75216 1016.2C12.934 1017.28 17.3623 1014.74 22.5579 1008.86C38.7333 990.554 81.5661 944.655 103.482 927.513C109.32 922.947 118.95 916.268 130.102 908.531C161.855 886.504 205.342 856.338 215.94 837.879C230.562 812.412 248.892 773.585 250.198 768.266C250.314 767.796 250.326 764.976 239.246 755.578C234.101 751.212 228.764 747.311 227.295 746.248L169.101 753.684C168.193 767.887 166.912 787.226 160.138 806.714C156.412 817.436 151.316 827.311 144.993 836.061C137.649 846.221 128.383 855.253 117.447 862.902C109.611 868.384 101.625 873.367 93.9052 878.184C84.4724 884.067 75.5657 889.627 66.8626 896.04C41.3232 914.859 16.0814 941.255 4.33424 1006.43Z" fill="#6F0301"/>
<path d="M108.593 604.271C98.3897 645.14 85.6372 777.229 104.948 851.665C124.261 926.102 142.115 1000.54 142.115 1000.54L144.301 1026.08C144.301 1026.08 124.261 1010.76 96.2006 1018.78C96.2006 1018.78 41.179 1028.64 46.6439 1083.73C108.227 1095.78 209.163 1097.6 208.433 1062.57C202.602 1023.16 191.672 906.395 204.788 837.798C217.906 769.198 221.549 764.82 221.549 764.82C221.549 764.82 278.759 916.613 282.765 950.914C286.77 985.216 293.698 1029.37 294.424 1043.6C295.154 1057.83 298.07 1084.1 376.777 1074.25C439.089 1063.3 507.956 1050.53 518.159 985.58C515.973 975.363 498.846 950.551 467.873 954.201C444.917 954.932 430.705 962.229 416.857 985.58C400.822 1005.28 343.615 1038.49 345.437 1019.88C347.26 1000.17 346.894 976.093 346.894 976.093C346.894 976.093 358.265 905.577 352.459 806.005C350.724 776.241 345.343 744.047 340.314 710.156C337.185 689.063 335.939 668.327 331.003 646.281C125.135 596.657 108.593 604.271 108.593 604.271Z" fill="#EF9B69"/>
<path d="M180.492 274.59C180.667 290.377 187.62 304.972 180.63 316.233C174.676 325.826 158.36 332.447 144.22 341.488C129.047 351.191 116.059 363.396 111.183 376.313C102.436 399.495 103.576 409.982 102.884 453.262C102.577 472.407 103.645 515.07 102.602 544.771C102.151 557.6 103.448 580.092 102.129 607.491C101.284 625.028 97.8922 644.374 96.8524 663.256C94.3658 708.471 94.2468 751.886 94.5537 767.661C95.1049 796.045 152.478 743.485 217.681 748.528C276.267 753.059 335.908 819.882 329.625 767.742C327.082 740.591 327.336 698.414 328.73 652.976C328.817 650.113 331.768 647.087 331.865 644.202C332.012 639.811 330.696 635.327 330.859 630.902C330.956 628.28 329.669 625.872 329.773 623.244C333.233 534.557 339.553 443.214 337.041 431.893C332.939 413.387 331.116 382.262 327.496 368.382C325.767 361.756 297.917 347.434 278.594 336.997C258.594 326.196 276.37 276.93 276.37 276.93L180.492 274.59Z" fill="#EF9B69"/>
<path d="M203.328 294.962C207.631 303.435 207.838 338 200.228 367.655C193.119 395.358 179.643 540.838 174.898 591.212C158.062 769.963 232.735 761.464 274.074 707.904C350.598 608.765 245.046 392.04 260.755 296.354C261.453 288.972 248.475 295.021 248.475 295.021L196.924 293.102L203.328 294.962Z" fill="#FFEDC7"/>
<path d="M84.062 142.018C84.062 142.018 77.6231 141.764 76.0917 141.955C74.5603 142.147 66.9971 113.769 75.3244 95.5547C71.7824 94.8836 71.7824 94.8836 71.7824 94.8836L81.8353 88.2697L76.0917 84.6256C76.0917 84.6256 100.103 82.9886 115.996 96.8906" fill="#6F0301"/>
<path d="M79.8157 91.8385C92.8375 92.2211 101.835 93.5633 112.558 102.959C113.131 104.875 105.283 117.915 105.283 117.915L88.0491 136.706L78.0933 136.514C78.0933 136.514 73.499 115.807 80.583 101.425C84.5071 93.8518 84.5071 93.8518 84.5071 93.8518L79.8157 91.8385Z" fill="#920505"/>
<path d="M327.286 93.4253C339.609 86.94 357.144 83.459 357.144 83.459L350.984 87.0968C350.984 87.0968 357.144 85.8298 362.991 97.5366C368.834 109.243 371.838 126.25 366.94 132.023C360.698 133.842 357.776 134.397 357.776 134.397L337.714 120.16L327.286 93.4253Z" fill="#6F0301"/>
<path d="M333.985 100.488L342.043 96.1348C345.507 94.2626 349.819 95.2065 352.187 98.3551L358.259 106.424L363.264 127.577L356.035 131.286L340.101 117.927L331.949 102.156L333.985 100.488Z" fill="#920505"/>
<path d="M339.973 116.459C326.35 81.1258 288.03 29.996 241.912 22.1058C203.294 18.4084 161.069 37.3877 127.678 75.9294C123.463 80.7934 120.049 86.2971 117.303 92.1238C105.9 116.309 103.069 118.739 103.069 118.739C103.069 118.739 36.679 177.812 78.5285 232.044C114.835 260.61 186.439 295.896 244.702 297.703C259.966 298.195 338.447 270.664 382.921 195.562C384.071 177.979 375.584 144.235 339.973 116.459Z" fill="#EF9B69"/>
<g opacity="0.33">
<path d="M232.162 27.2865C232.162 27.2865 275.743 31.2066 295.107 61.7734C301.345 61.5978 308.229 64.577 310.941 66.9949C310.941 66.9949 286.795 40.2697 269.085 32.2101C253.455 24.3638 245.362 21.0521 238.754 21.6887C236.086 23.9843 232.162 27.2865 232.162 27.2865Z" fill="white"/>
</g>
<path d="M166.107 43.0043C166.107 43.0043 207.161 12.7574 243.74 3.75384C244.808 3.49041 245.425 4.93298 244.511 5.54137C223.534 19.481 223.262 20.2964 223.262 20.2964C223.262 20.2964 228.617 15.1846 245.676 14.8742C247.495 14.8397 246.703 16.6178 245.206 17.6496C235.945 24.0282 233.105 26.1544 233.105 26.1544" fill="#EF9B69"/>
<path d="M368.14 152.458C368.14 152.458 383.166 167.699 388.875 183.275C389.307 184.455 387.82 185.408 386.899 184.555C376.811 175.263 374.591 171.07 374.591 171.07" fill="#FFEDC7"/>
<path d="M377.995 197.121C377.995 197.121 381.988 202.609 384.027 207.464C384.24 207.972 384.988 207.799 384.985 207.247C384.804 184.373 382.58 181.04 379.141 174.344" fill="#FFEDC7"/>
<path d="M75.3558 153.998C80.52 147.312 88.7346 137.48 115.88 137.609C126.012 111.733 143.177 87.7867 163.593 71.2598C181.898 56.439 206.015 50.4586 228.936 55.8337C238.742 58.1324 249.171 82.1763 250.505 86.6357C261.156 73.2386 295.877 54.479 307.565 68.0046L310.553 70.6828C315.576 76.1802 320.026 82.1795 323.831 88.5863L334.147 103.975L338.992 115.666C338.992 115.666 350.1 123.638 363.091 140.547C377.278 157.488 382.539 174.733 379.489 198.529C374.428 215.166 351.453 249.295 326.647 266.201C297.807 286.36 254.476 299.616 242.916 299.616C228.943 298.725 209.908 297.342 178.973 286.727C164.761 281.85 147.051 276.334 128.038 266.998C109.511 256.859 93.7955 246.234 81.1307 235.609C68.9388 225.38 61.288 214.601 62.6252 194.443C66.1328 173.375 70.0287 160.89 75.3558 153.998Z" fill="#FFEDC7"/>
<g opacity="0.15">
<path d="M152.463 127.276C150.192 123.704 161.56 127.918 164.482 130.612C167.407 133.306 212.664 168.439 240.734 144.43C242.021 142.789 243.54 144.194 243.54 144.194L236.992 158.012C236.992 158.015 191.738 189.024 152.463 127.276Z" fill="black"/>
</g>
<g opacity="0.15">
<path d="M330.214 137.979C331.833 134.068 333.249 134.225 329.848 136.282C326.447 138.339 283.799 162.358 261.059 133.24C260.123 131.377 260.489 133.315 260.489 133.315L261.043 141.827C261.043 141.827 304.283 184.508 327.17 147.142C328.702 144.652 328.877 141.212 330.214 137.979Z" fill="black"/>
</g>
<path d="M69.0204 170.634C69.0204 170.634 60.3141 183.188 57.292 208.511C57.1824 209.417 58.4194 209.809 58.8328 208.994C67.2541 192.473 70.057 189.328 70.057 189.328" fill="#FFEDC7"/>
<path d="M61.758 198.68C61.758 198.68 59.7537 209.759 67.273 228.456C72.2618 210.967 71.6104 207.507 71.6104 207.507" fill="#FFEDC7"/>
<path d="M67.4639 220.751C67.4639 220.751 72.7628 234.829 78.0773 240.411C77.3007 225.869 78.3561 222.57 78.3561 222.57" fill="#FFEDC7"/>
<path d="M166.107 43.0042C166.107 43.0042 207.528 12.4845 244.229 3.63775C245.203 3.40255 245.754 4.71654 244.921 5.27162C223.537 19.4747 223.265 20.2994 223.265 20.2994C223.265 20.2994 228.589 15.2191 245.525 14.8804C247.389 14.8428 248.372 17.6558 246.634 18.3206C236.797 22.0901 232.312 26.421 232.312 26.421" fill="#EF9B69"/>
<path d="M69.0205 170.634C69.0205 170.634 59.2275 180.676 56.2962 206.564C56.2116 207.31 58.122 210.393 58.4602 209.725C67.1727 192.568 70.0571 189.331 70.0571 189.331" fill="#FFEDC7"/>
<path d="M61.758 198.68C61.758 198.68 59.7537 209.759 67.273 228.456C70.126 209.242 71.6104 207.507 71.6104 207.507" fill="#FFEDC7"/>
<path d="M67.4639 220.751C67.4639 220.751 72.7628 234.829 78.0773 240.411C77.3007 225.869 78.3561 222.57 78.3561 222.57" fill="#FFEDC7"/>
<path d="M274.338 237.723L273.298 235.44C284.093 230.513 292.16 221.14 295.43 209.721L295.452 209.649C295.643 208.985 296.335 208.599 297.002 208.79C297.666 208.981 298.051 209.674 297.86 210.342L297.838 210.415C294.368 222.538 285.803 232.492 274.338 237.723Z" fill="#6F0301"/>
<path d="M198.039 67.3116C210.437 65.3045 267.532 83.299 241.448 147.387C238.582 154.43 236.916 157.566 235.428 163.17C264.234 164.936 295.549 159.79 295.549 159.79C295.549 159.79 278.083 153.468 274.578 151.511C263.661 145.408 259.151 134.629 258.162 121.449C257.733 115.719 257.25 109.629 258.394 103.112C261.015 88.1881 269.351 72.671 289.147 62.4915C253.091 41.6903 244.514 36.3904 244.514 36.3904L198.039 67.3116Z" fill="#EF9B69"/>
<path d="M254.937 196.676C254.645 196.676 254.354 196.575 254.116 196.368C243.446 187.101 235.899 182.698 225.273 179.537C224.609 179.34 224.233 178.644 224.427 177.979C224.624 177.314 225.32 176.934 225.984 177.132C236.995 180.406 244.787 184.944 255.757 194.471C256.28 194.926 256.336 195.716 255.882 196.24C255.638 196.528 255.287 196.676 254.937 196.676Z" fill="#6F0301"/>
<path d="M246.775 201.919C246.569 201.919 246.359 201.869 246.168 201.759C233.835 194.869 225.545 192.103 214.5 191.185C213.811 191.128 213.297 190.52 213.353 189.83C213.41 189.14 214.017 188.626 214.706 188.682C226.153 189.635 234.706 192.483 247.389 199.567C247.994 199.906 248.21 200.668 247.871 201.273C247.643 201.687 247.214 201.919 246.775 201.919Z" fill="#6F0301"/>
<path d="M244.671 206.858C244.552 206.858 244.433 206.843 244.314 206.805C230.775 202.782 222.081 201.897 211.101 203.418C210.416 203.509 209.783 203.032 209.689 202.349C209.595 201.662 210.074 201.028 210.757 200.934C222.135 199.357 231.101 200.266 245.024 204.403C245.688 204.6 246.067 205.297 245.87 205.961C245.71 206.507 245.212 206.858 244.671 206.858Z" fill="#6F0301"/>
<path d="M260.89 205.798C261.964 205.798 262.835 204.926 262.835 203.851C262.835 202.775 261.964 201.903 260.89 201.903C259.816 201.903 258.945 202.775 258.945 203.851C258.945 204.926 259.816 205.798 260.89 205.798Z" fill="#6F0301"/>
<path d="M251.178 206.394C252.084 206.394 252.819 205.659 252.819 204.751C252.819 203.843 252.084 203.108 251.178 203.108C250.272 203.108 249.537 203.843 249.537 204.751C249.537 205.659 250.272 206.394 251.178 206.394Z" fill="#6F0301"/>
<path d="M249.663 213.394C250.699 213.394 251.538 212.553 251.538 211.515C251.538 210.478 250.699 209.637 249.663 209.637C248.626 209.637 247.787 210.478 247.787 211.515C247.787 212.553 248.626 213.394 249.663 213.394Z" fill="#6F0301"/>
<path d="M328.332 189.275C327.916 189.275 327.512 189.068 327.274 188.691C326.904 188.105 327.076 187.33 327.662 186.96C337.358 180.811 344.57 178.734 356.236 178.734C356.928 178.734 357.489 179.296 357.489 179.989C357.489 180.682 356.928 181.243 356.236 181.243C345.112 181.243 338.241 183.222 329.002 189.08C328.792 189.212 328.561 189.275 328.332 189.275Z" fill="#6F0301"/>
<path d="M334.658 194.734C334.129 194.734 333.637 194.396 333.468 193.866C333.255 193.207 333.615 192.498 334.273 192.285C342.732 189.541 347.692 188.143 359.471 188.858C360.163 188.898 360.686 189.494 360.645 190.184C360.604 190.874 360.009 191.401 359.32 191.36C347.993 190.673 343.208 192.022 335.046 194.672C334.918 194.716 334.786 194.734 334.658 194.734Z" fill="#6F0301"/>
<path d="M362.296 203.333C362.152 203.333 362.005 203.308 361.864 203.255C353.082 200.019 346.932 200.536 339.81 201.135C338.673 201.229 337.496 201.33 336.281 201.417C335.588 201.468 334.99 200.947 334.943 200.254C334.893 199.564 335.413 198.962 336.105 198.915C337.305 198.83 338.473 198.73 339.603 198.636C347.022 198.012 353.43 197.475 362.731 200.9C363.379 201.138 363.715 201.86 363.473 202.512C363.286 203.017 362.806 203.333 362.296 203.333Z" fill="#6F0301"/>
<path d="M320.719 196.933C321.793 196.933 322.664 196.061 322.664 194.985C322.664 193.91 321.793 193.038 320.719 193.038C319.645 193.038 318.774 193.91 318.774 194.985C318.774 196.061 319.645 196.933 320.719 196.933Z" fill="#6F0301"/>
<path d="M330.014 199.583C330.92 199.583 331.655 198.847 331.655 197.94C331.655 197.032 330.92 196.296 330.014 196.296C329.107 196.296 328.373 197.032 328.373 197.94C328.373 198.847 329.107 199.583 330.014 199.583Z" fill="#6F0301"/>
<path d="M330.055 206.749C331.091 206.749 331.931 205.908 331.931 204.87C331.931 203.833 331.091 202.992 330.055 202.992C329.019 202.992 328.179 203.833 328.179 204.87C328.179 205.908 329.019 206.749 330.055 206.749Z" fill="#6F0301"/>
<path d="M152.121 81.1791C163.079 70.7236 193.601 58.352 228.482 76.9643C220.108 42.3865 220.453 37.8393 207.531 38.7707C194.606 39.7021 169.69 51.8165 161.833 57.8189C153.975 63.8212 152.121 81.1791 152.121 81.1791Z" fill="#EF9B69"/>
<path d="M259.606 296.395C259.001 296.395 258.472 295.956 258.372 295.341C258.262 294.658 258.726 294.012 259.409 293.902C291.096 288.743 311.057 275.23 340.167 253.588C364.735 234.791 378.349 199.385 378.484 199.028L379.508 196.328L384.252 205.996C385.348 191.871 380.767 179.779 380.72 179.653L378.587 174.121L388.095 183.642C385.377 174.814 377.532 165.231 377.447 165.134L377.334 164.996L377.262 164.832C377.228 164.751 373.604 156.466 362.18 140.171C348.929 121.769 339.581 117.654 339.49 117.617L338.889 117.363L338.748 116.723C336.897 108.008 326.49 92.9674 326.387 92.8169L326.284 92.6695L326.227 92.5001C326.184 92.3778 324.906 88.9941 315.877 76.2994C308.762 66.1889 294.4 50.7754 278.346 39.1219C256.562 24.0282 240.177 22.8961 240.014 22.8867C239.325 22.8459 238.795 22.2532 238.836 21.5633C238.877 20.8734 239.469 20.3434 240.158 20.3842C240.85 20.4249 257.357 21.5288 279.796 37.0772C296.103 48.9157 310.691 64.577 317.922 74.8506C326.227 86.5291 328.157 90.6123 328.526 91.5029C329.578 93.0301 338.88 106.678 341.059 115.591C343.408 116.792 352.243 122.085 364.222 138.719C375.083 154.205 378.919 162.396 379.492 163.675C380.579 165.018 388.549 175.065 390.876 184.282C391.114 185.229 390.701 186.189 389.849 186.675C388.981 187.167 387.926 187.029 387.228 186.327L384.587 183.683C385.953 188.873 387.597 197.61 386.654 207.291C386.557 208.288 385.831 209.079 384.844 209.257C383.864 209.436 382.912 208.956 382.474 208.063L379.761 202.537C378.274 206.043 375.249 212.726 370.808 220.447C364.782 230.924 354.839 245.525 341.676 255.598C312.247 277.478 292.06 291.133 259.813 296.386C259.741 296.392 259.672 296.395 259.606 296.395Z" fill="#6F0301"/>
<path d="M151.636 125.187H217.972C217.972 125.187 184.926 104.238 183.636 104.122C182.346 104.006 156.556 110.871 156.556 110.871L151.636 125.187Z" fill="#FFEDC7"/>
<path d="M199.323 207.523C172.195 195.17 161.56 190.548 150.953 196.945C144.267 200.978 139.882 210.317 140.922 217.442C143.117 232.48 154.946 242.785 166.186 248.925C180.551 256.771 249.349 294.858 313.612 263.837C322.231 259.311 331.867 249.737 329.196 238.215C327.245 229.795 319.6 223.852 311.486 224.304C307.211 224.542 302.185 225.831 294.957 227.296C280.197 230.291 245.221 228.422 199.323 207.523Z" fill="#BF5241"/>
<path d="M259.662 277.102C247.426 277.102 234.686 275.509 221.489 272.323C194.409 265.778 173.705 254.463 165.91 250.204L165.585 250.026C159.002 246.429 153.496 242.167 149.224 237.353C143.932 231.391 140.722 224.752 139.682 217.624C138.548 209.847 143.315 200.088 150.308 195.87C155.817 192.549 161.482 191.984 169.255 193.988C176.64 195.892 185.687 199.937 199.843 206.382C220.337 215.711 240.245 222.021 259.023 225.132C273.116 227.468 286.125 227.81 294.709 226.07C296.488 225.709 298.107 225.364 299.673 225.032C304.383 224.031 308.104 223.238 311.417 223.053C320.171 222.564 328.338 228.961 330.418 237.933C333.239 250.107 323.443 260.095 314.195 264.947L314.158 264.966C297.409 273.053 279.176 277.102 259.662 277.102ZM161.091 195.302C157.592 195.302 154.617 196.202 151.598 198.024C145.498 201.703 141.176 210.515 142.159 217.267C144.52 233.442 158.601 243.359 166.784 247.827L167.11 248.006C221.232 277.585 271.697 282.672 313.049 262.72C321.498 258.277 330.471 249.276 327.975 238.504C326.168 230.705 319.106 225.141 311.555 225.562C308.433 225.737 304.797 226.509 300.19 227.487C298.618 227.823 296.992 228.168 295.201 228.531C286.329 230.328 272.994 229.993 258.61 227.609C239.616 224.461 219.494 218.088 198.803 208.668C179.392 199.827 168.932 195.302 161.091 195.302Z" fill="#6F0301"/>
<path d="M183.536 214.548C196.987 220.309 250.765 248.941 286.667 241.33C314.186 235.71 318.088 236.456 320.524 242.092C321.148 244.651 318.088 249.687 308.091 254.444C297.81 259.34 273.223 269.24 231.774 258.204C220.174 255.003 209.276 251.635 199.642 248.085C174.82 238.931 158.989 228.782 161.61 217.687C162.324 213.121 167.135 207.523 183.536 214.548Z" fill="#920505"/>
<path d="M267.57 264.476C256.195 264.476 244.103 262.786 231.451 259.418C218.849 255.937 208.308 252.616 199.207 249.261C170.561 238.698 157.862 228.29 160.379 217.442C160.812 214.761 162.312 212.582 164.61 211.308C168.816 208.975 175.349 209.678 184.027 213.394C185.75 214.131 188.07 215.216 191.005 216.583C210.293 225.584 255.465 246.661 286.404 240.1C313.462 234.578 318.733 234.8 321.67 241.59L321.714 241.687L321.739 241.791C322.5 244.908 319.522 250.389 308.63 255.573C303.174 258.17 294.456 261.823 281.788 263.539C277.19 264.166 272.446 264.476 267.57 264.476ZM170.504 212.478C168.353 212.478 166.856 212.933 165.826 213.504C163.749 214.655 163.06 216.517 162.85 217.878L162.832 217.972C160.639 227.249 173.169 236.983 200.077 246.905C209.109 250.236 219.588 253.538 232.109 256.994C260.918 264.668 286.307 263.429 307.556 253.312C316.816 248.903 319.666 244.381 319.328 242.48C317.327 237.952 314.198 236.989 286.917 242.559C273.241 245.46 255.397 243.484 233.888 236.688C216.162 231.09 199.755 223.432 189.949 218.86C187.034 217.499 184.729 216.423 183.044 215.702C177.4 213.284 173.37 212.478 170.504 212.478Z" fill="#6F0301"/>
<path d="M199.642 248.084C199.642 248.084 220.202 236.741 248.892 251.007C256.107 249.69 273.733 244.682 283.892 262.363C283.892 262.363 274.45 263.652 270.529 263.623C266.577 263.595 227.875 262.629 199.642 248.084Z" fill="#F88A7D"/>
<path d="M270.435 264.382C270.398 264.382 270.36 264.382 270.326 264.382C263.251 264.332 226.56 263.363 199.069 249.198L196.977 248.119L199.038 246.984C199.257 246.865 204.493 244.017 213.359 242.948C221.423 241.976 234.138 242.368 249.07 249.696C249.587 249.596 250.157 249.477 250.793 249.345C259.092 247.62 276.357 244.03 286.078 260.942L286.996 262.538L285.176 262.808C284.741 262.874 274.488 264.382 270.435 264.382ZM202.586 248.144C229.275 260.923 263.57 261.823 270.344 261.874C273.138 261.892 279.683 261.043 282.925 260.594C273.98 247.087 259.318 250.136 251.307 251.801C250.514 251.964 249.769 252.121 249.117 252.24L248.707 252.315L248.335 252.13C233.85 244.927 221.552 244.509 213.788 245.425C208.718 246.024 204.86 247.254 202.586 248.144Z" fill="#6F0301"/>
<g opacity="0.4">
<path d="M217.994 22.1561C228.467 14.9401 235.517 10.6312 235.517 10.6312L246.268 3.23645L232.451 7.70215C232.451 7.70215 226.137 8.94401 200.425 21.2529C172.572 34.465 140.434 62.6954 132.313 70.2627C124.756 76.2462 109.533 106.173 107.954 111.818C106.376 117.463 91.2653 132.594 82.4682 142.307C72.5437 153.486 68.0059 172.644 68.0059 172.644C68.0059 172.644 66.1174 175.166 64.7645 176.069C63.4116 176.972 57.7713 191.991 56.6439 202.041C56.4184 214.915 58.4634 209.728 61.6046 202.719C61.0409 204.751 61.2663 212.431 63.6339 220.334C66.0015 228.237 67.6927 228.014 67.6927 228.014C67.6927 228.014 67.6927 228.014 69.0456 222.595C69.0456 223.837 68.7074 227.45 73.1043 233.888C78.967 245.632 78.682 239.084 78.5285 232.047C84.8546 238.338 90.9208 243.371 94.4158 245.629C97.9109 247.887 104.657 255.288 124.502 265.565C142.995 275.39 173.671 285.127 199.26 293.704C194.3 291.559 158.61 267.5 144.129 260.839C128.06 253.45 109.523 240.257 102.646 233.254C95.7656 226.252 94.1308 223.558 93.7926 220.284C93.4544 217.01 91.4563 214.457 91.0054 209.941C90.5544 205.425 90.4949 204.287 89.3643 203.045C88.2369 201.803 92.8155 192.765 91.1682 187.939C89.5209 183.112 102.195 151.539 105.919 146.233C109.639 140.927 114.412 120.364 134.599 93.6009C139.024 87.0843 145.745 78.0933 151.677 71.7554C173.392 48.5677 203.908 33.0914 233.287 21.0428C240.393 18.1294 245.601 16.0032 245.601 16.0032C245.601 16.0032 246.659 15.953 246.105 15.3979C236.121 15.2568 224.383 19.4842 217.994 22.1561Z" fill="#A86B4A"/>
</g>
<path d="M203.328 296.216C203.191 296.216 203.05 296.194 202.915 296.144L148.153 276.92C127.136 269.541 108.033 259.123 91.3779 245.958C86.458 242.07 82.6278 238.636 79.9408 235.703C79.9752 237.074 79.9753 238.231 79.9345 239.156C79.8907 240.163 79.2393 241 78.2747 241.286C77.3101 241.571 76.308 241.223 75.7223 240.398C73.7399 237.604 70.6239 232.897 68.9171 228.713C68.5037 229.193 67.9932 229.507 67.3418 229.532C65.469 229.607 64.3917 226.976 64.0159 225.844C63.8656 225.424 60.7871 216.699 60.1043 209.166C59.1304 210.361 58.241 210.785 57.3046 210.568C55.3441 210.114 55.056 206.88 55.0591 204.992L55.0685 204.832C55.1875 203.923 58.0499 182.607 66.8 172.114C67.8366 164.854 76.3017 146.841 88.2556 132.955C91.3497 129.361 93.8614 126.714 96.0818 124.381C102.705 117.406 106.357 113.565 113.66 96.3198L113.72 96.1975C114.052 95.6048 114.39 94.9902 114.741 94.3598C121.797 81.5962 133.609 60.2305 175.093 35.2301C200.698 19.2176 222.708 7.40103 246.863 1.80009C247.602 1.62761 248.353 2.01648 248.651 2.71895C248.955 3.43396 248.704 4.2556 248.059 4.67269C240.89 9.31714 235.463 12.8075 231.323 15.4575C235.629 14.3066 240.684 13.5476 246.337 13.7358C247.392 13.7703 248.259 14.4884 248.494 15.5233C248.735 16.5739 248.259 17.6151 247.311 18.1137C236.619 23.7397 233.186 28.0204 233.152 28.0612C232.726 28.6037 231.94 28.7009 231.395 28.2775C230.85 27.8542 230.75 27.0702 231.173 26.5245C231.317 26.3395 234.749 21.9929 245.516 16.2289C230.841 15.9624 220.553 22.3254 217.712 24.3105C216.654 25.0506 215.99 24.3011 215.868 24.1411C215.836 24.1035 215.148 23.1846 216.14 22.3316C216.901 21.6762 218.12 20.9047 222.642 18.0259C226.378 15.6488 232.294 11.8824 241.968 5.62918C220.237 11.5939 199.855 22.7048 176.405 37.372C135.479 62.0368 123.873 83.0325 116.936 95.5766C116.598 96.1912 116.266 96.7871 115.943 97.3641C108.477 114.976 104.719 118.931 97.8982 126.112C95.6997 128.426 93.2069 131.051 90.1534 134.595C77.4072 149.4 69.8754 167.056 69.2428 172.782L69.1989 173.168L68.9453 173.463C60.7495 182.974 57.7649 203.622 57.5645 205.077C57.5708 206.103 57.7274 207.244 57.9215 207.856C58.3067 207.451 59.0427 206.473 60.167 204.152L63.1515 197.993L62.5408 204.811C61.8738 212.255 66.3365 224.9 66.3804 225.028C66.5964 225.678 66.9378 226.374 67.2103 226.769C67.3763 226.458 67.6174 225.878 67.8805 224.828L69.2522 219.346L70.3232 224.894C71.1375 229.105 75.3497 235.509 77.4417 238.498C77.4793 236.939 77.4229 234.797 77.2726 232.116L77.0408 227.876L79.5431 231.304C81.9482 234.6 86.4517 238.868 92.9313 243.989C109.367 256.985 128.226 267.268 148.983 274.553L203.745 293.776C204.396 294.005 204.741 294.72 204.512 295.376C204.327 295.893 203.845 296.216 203.328 296.216Z" fill="#6F0301"/>
<g opacity="0.72">
<path d="M150.311 97.2042C150.311 97.2042 190.363 70.5794 227.637 89.9569C224.608 86.1654 212.238 77.9083 191.246 77.3187C191.246 77.3187 165.879 80.5206 151.573 94.8428C150.076 96.0126 150.311 97.2042 150.311 97.2042Z" fill="white"/>
</g>
<g opacity="0.72">
<path d="M274.3 84.657C274.3 84.657 298.06 76.563 314.511 94.0871C312.967 88.4673 306.989 81.4959 297.309 79.5986C289.592 78.6171 278.65 79.8087 274.3 84.657Z" fill="white"/>
</g>
<g opacity="0.46">
<path d="M266.752 98.8475C266.752 98.8475 305.548 87.263 323.512 104.536C321.968 98.9165 314.818 93.2403 305.138 91.343C297.425 90.3614 277.692 89.0098 266.752 98.8475Z" fill="white"/>
</g>
<g opacity="0.72">
<path d="M161.41 102.984C161.41 102.984 223.305 80.1851 241.858 109.209C243.33 100.698 233.95 92.7511 224.27 90.857C216.55 89.8754 196.795 82.3019 161.41 102.984Z" fill="white"/>
</g>
<path d="M149.969 118.507C150.918 116.516 153.136 115.44 155.331 115.613C160.185 115.995 159.653 116.039 162.59 115.007C165.991 113.813 217.765 83.8856 242.497 111.401C247.501 117.902 254.698 143.63 229.481 151.006C216.506 152.847 203.096 156.811 172.797 136.27C160.091 127.925 158.976 127.664 158.976 127.664C158.976 127.664 147.135 124.466 149.969 118.507Z" fill="white"/>
<g opacity="0.15">
<path d="M246.073 123.155C246.737 135.413 221.427 161.976 175.362 136.596C182.765 142.407 200.676 155.534 224.593 151.426C233.997 149.824 249.055 144.643 246.953 127.41C245.55 126.005 246.073 123.155 246.073 123.155Z" fill="black"/>
</g>
<path d="M214.828 153.835C211.909 153.835 208.734 153.574 205.21 152.872C195.524 150.937 184.691 145.844 172.095 137.305C161.588 130.405 159.127 129.107 158.645 128.881H158.529L158.626 128.875C158.61 128.869 158.594 128.862 158.585 128.856C157.539 128.568 150.806 126.576 148.83 122.603C148.153 121.245 148.103 119.768 148.679 118.328C149.647 115.923 152.672 114.145 155.422 114.361L156.299 114.43C159.694 114.7 159.694 114.703 161.645 114.01L162.174 113.822C162.44 113.728 163.355 113.279 164.41 112.756C169.74 110.125 183.899 103.141 199.279 100.071C218.815 96.1725 233.665 99.7005 243.424 110.557L243.483 110.63C246.217 114.183 249.866 123.453 248.009 133.212C246.65 140.359 242.469 146.205 235.92 150.109C233.249 151.702 230.189 152.16 227.23 152.605L226.481 152.718C222.98 153.258 219.194 153.835 214.828 153.835ZM159.302 126.451C160.596 126.827 168.723 132.089 173.486 135.219C201.252 154.042 214.458 152.022 226.112 150.241L226.866 150.128C229.585 149.72 232.397 149.3 234.646 147.958C240.646 144.379 244.317 139.261 245.557 132.745C247.163 124.303 244.182 115.672 241.536 112.204C232.41 102.081 218.357 98.8256 199.774 102.535C184.719 105.54 170.774 112.42 165.525 115.011C164.066 115.732 163.402 116.055 163.01 116.193L162.487 116.378C160.032 117.247 159.81 117.231 156.105 116.933L155.231 116.864C153.577 116.732 151.567 117.88 151.009 119.269C150.693 120.053 150.715 120.759 151.078 121.486C152.369 124.086 157.451 125.952 159.302 126.451ZM158.598 128.859C158.616 128.866 158.629 128.872 158.641 128.875H158.648C158.635 128.869 158.619 128.862 158.598 128.859Z" fill="#6F0301"/>
<path d="M258.156 117.112C258.156 117.112 262.903 128.166 261.178 134.448C263.439 136.016 261.576 135.906 266.204 138.038C270.943 140.221 301.734 160.875 321.16 145.182C327.179 140.067 345.008 126.689 325.303 110.012C316.625 104.172 295.051 96.5896 274.435 106.481C258.503 113.496 262.907 113.057 260.905 114.336C258.895 115.613 258.156 117.112 258.156 117.112Z" fill="white"/>
<g opacity="0.15">
<path d="M259.784 128.605C259.784 128.605 275.042 137.631 277.037 138.684C279.032 139.735 315.044 157.225 333.108 123.569C333.108 123.569 334.755 128.436 333.981 130.509C333.205 132.582 323.268 143.605 323.268 143.605C323.268 143.605 314.994 150.338 310.706 150.633C306.422 150.927 288.061 152.963 275.684 143.9C264.344 137.574 260.47 135.878 260.47 135.878L259.784 128.605Z" fill="black"/>
</g>
<path d="M301.308 151.859C297.281 151.859 293.078 151.31 288.715 150.212C280.817 148.224 274.535 144.872 272.314 143.379C270.576 142.209 268.497 140.833 266.486 139.503C264.037 137.885 261.723 136.354 260.464 135.479L260.072 135.207L259.96 134.742C258.403 128.307 257.533 117.394 257.495 116.933V116.927C257.404 115.657 258.82 111.991 273.908 105.342C283.144 100.917 293.736 99.4527 304.534 101.109C312.47 102.325 320.493 105.264 325.999 108.971L326.108 109.055C332.472 114.44 335.732 120.006 335.795 125.598C335.883 133.124 330.283 138.967 326.065 142.708C322.97 145.452 319.908 147.446 316.697 148.814C311.934 150.843 306.786 151.859 301.308 151.859ZM262.283 133.686C263.58 134.573 265.669 135.953 267.864 137.405C269.881 138.738 271.964 140.114 273.711 141.29C279.16 144.963 298.577 153.797 315.717 146.499C318.674 145.239 321.517 143.382 324.402 140.823C328.254 137.408 333.365 132.118 333.289 125.62C333.233 120.806 330.292 115.889 324.543 111.009C315.013 104.627 294.002 98.4774 274.97 107.606L274.933 107.622C261.995 113.32 260.204 116.441 260.004 116.898C260.119 118.294 260.943 127.818 262.283 133.686Z" fill="#6F0301"/>
<path d="M207.756 140.428C216.531 140.428 223.644 133.305 223.644 124.519C223.644 115.733 216.531 108.61 207.756 108.61C198.982 108.61 191.869 115.733 191.869 124.519C191.869 133.305 198.982 140.428 207.756 140.428Z" fill="#060110"/>
<path d="M208.696 137.599C215.687 137.599 221.355 131.924 221.355 124.923C221.355 117.923 215.687 112.248 208.696 112.248C201.705 112.248 196.038 117.923 196.038 124.923C196.038 131.924 201.705 137.599 208.696 137.599Z" fill="#181818"/>
<path d="M216.506 123.553C218.329 122.943 219.265 120.827 218.597 118.826C217.929 116.825 215.91 115.698 214.088 116.308C212.265 116.918 211.329 119.034 211.997 121.035C212.665 123.036 214.684 124.163 216.506 123.553Z" fill="#FCFCFC"/>
<path d="M291.214 138.418C299.366 138.418 305.974 131.801 305.974 123.638C305.974 115.475 299.366 108.858 291.214 108.858C283.063 108.858 276.455 115.475 276.455 123.638C276.455 131.801 283.063 138.418 291.214 138.418Z" fill="#060110"/>
<path d="M291.215 134.774C297.356 134.774 302.335 129.788 302.335 123.638C302.335 117.487 297.356 112.502 291.215 112.502C285.073 112.502 280.094 117.487 280.094 123.638C280.094 129.788 285.073 134.774 291.215 134.774Z" fill="#181818"/>
<path d="M299.781 121.827C301.287 121.062 301.749 118.945 300.813 117.097C299.877 115.25 297.898 114.373 296.392 115.137C294.887 115.902 294.425 118.02 295.361 119.867C296.297 121.714 298.276 122.592 299.781 121.827Z" fill="#FCFCFC"/>
<path d="M242.5 112.652C242.412 112.652 242.321 112.643 242.231 112.624C241.554 112.477 241.128 111.806 241.275 111.128C242.948 103.511 238.479 98.7126 234.433 96.0282C227.014 91.1015 214.487 88.7996 200.926 89.8659C186.151 91.0294 172.108 95.8557 161.385 103.464C160.821 103.865 160.038 103.73 159.637 103.166C159.236 102.601 159.371 101.817 159.935 101.416C171.021 93.5539 185.509 88.5644 200.729 87.3665C215.038 86.2407 227.828 88.6366 235.817 93.9396C242.553 98.4116 245.287 104.542 243.721 111.671C243.593 112.254 243.073 112.652 242.5 112.652Z" fill="#6F0301"/>
<path d="M150.076 97.2669C149.766 97.2669 149.453 97.1509 149.212 96.9188C148.71 96.4421 148.692 95.6456 149.171 95.1438C153.139 90.9792 164.494 80.9251 184.184 77.5288C184.863 77.4096 185.515 77.8706 185.631 78.5511C185.75 79.2348 185.289 79.8839 184.61 80C165.659 83.2677 154.783 92.889 150.984 96.8749C150.737 97.1383 150.408 97.2669 150.076 97.2669Z" fill="#6F0301"/>
<path d="M229.034 92.9925C228.517 92.9925 228.035 92.6695 227.853 92.1552C224.295 82.0855 196.949 77.9522 190.05 78.3912C189.361 78.4351 188.763 77.9114 188.719 77.2183C188.675 76.5253 189.198 75.9294 189.89 75.8855C194.002 75.6221 203.069 76.6946 211.133 78.9526C218.58 81.038 227.938 84.8734 230.214 91.3148C230.446 91.9671 230.105 92.6852 229.45 92.9173C229.313 92.9706 229.172 92.9925 229.034 92.9925Z" fill="#6F0301"/>
<path d="M327.12 112.935C326.478 112.935 325.93 112.442 325.873 111.79C325.096 102.943 319.134 98.1419 314.27 95.6738C301.452 89.1697 281.205 90.6813 267.175 99.1956C266.583 99.5562 265.813 99.3649 265.456 98.7722C265.095 98.1795 265.286 97.4081 265.878 97.0505C280.588 88.1254 301.878 86.5731 315.404 93.4347C323.189 97.3861 327.674 103.658 328.369 111.567C328.429 112.257 327.921 112.866 327.232 112.928C327.195 112.931 327.157 112.935 327.12 112.935Z" fill="#6F0301"/>
<path d="M315.867 96.1098C315.391 96.1098 314.937 95.8369 314.728 95.3759C311.602 88.5269 306.479 83.757 299.911 81.5837C292.182 79.0247 282.702 80.185 274.554 84.6821C273.949 85.0176 273.185 84.795 272.853 84.1897C272.518 83.5845 272.74 82.8193 273.345 82.4869C282.095 77.6574 292.32 76.4312 300.697 79.2035C307.944 81.6025 313.584 86.8334 317.007 94.3348C317.296 94.9651 317.017 95.7083 316.387 95.9969C316.221 96.0721 316.043 96.1098 315.867 96.1098Z" fill="#6F0301"/>
<path d="M213.353 160.586C205.903 160.586 198.916 158.843 195.734 156.807C195.151 156.434 194.979 155.66 195.352 155.076C195.724 154.493 196.498 154.321 197.08 154.694C201.289 157.385 213.613 159.548 223.334 156.811C229.353 155.114 233.556 151.896 235.826 147.243C236.13 146.622 236.879 146.361 237.502 146.666C238.125 146.97 238.382 147.719 238.078 148.343C235.519 153.59 230.656 157.353 224.013 159.225C220.6 160.185 216.923 160.586 213.353 160.586Z" fill="#6F0301"/>
<path d="M311.242 157.196C310.609 157.196 310.068 156.72 309.999 156.077C309.924 155.387 310.422 154.769 311.107 154.694C315.119 154.258 328.232 151.802 328.517 138.55C328.532 137.856 329.102 137.314 329.798 137.323C330.49 137.339 331.038 137.913 331.022 138.606C330.759 150.761 320.703 156.177 311.38 157.19C311.333 157.196 311.286 157.196 311.242 157.196Z" fill="#6F0301"/>
<path d="M273.351 183.633C273.351 183.633 221.612 183.031 237.349 156.999C253.086 130.967 271.654 159.479 271.654 159.479L292.981 162.572" fill="#EF9B69"/>
<path d="M292.536 211.914C274.932 198.306 263.476 188.387 259.02 180.105C255.888 174.281 258.516 166.617 264.366 164.491C284.81 157.061 313.162 153.64 332.005 169.693C333.612 171.061 334.185 173.485 333.236 175.498C328.222 186.157 312.235 206.548 300.669 212.626C298.02 214.018 294.916 213.754 292.536 211.914Z" fill="#6F0301"/>
<g opacity="0.2">
<path d="M301.79 184.229C313.948 184.229 323.803 180.781 323.803 176.527C323.803 172.273 313.948 168.825 301.79 168.825C289.633 168.825 279.777 172.273 279.777 176.527C279.777 180.781 289.633 184.229 301.79 184.229Z" fill="white"/>
</g>
<path d="M330.762 380.531C330.101 380.531 329.55 380.014 329.512 379.346C329.033 370.697 323.042 362.113 313.879 356.948C306.904 353.016 300.472 349.77 294.8 346.904C280.701 339.785 271.387 335.084 269.928 327.997C267.191 315.929 270.241 294.253 270.373 293.337C270.47 292.65 271.105 292.177 271.791 292.274C272.477 292.371 272.953 293.008 272.853 293.695C272.822 293.914 269.737 315.829 272.377 327.467C273.595 333.391 282.48 337.875 295.928 344.665C301.624 347.54 308.082 350.802 315.11 354.763C325.162 360.429 331.482 369.568 332.015 379.208C332.052 379.901 331.523 380.49 330.834 380.531C330.809 380.531 330.787 380.531 330.762 380.531Z" fill="#6F0301"/>
<path d="M128.508 1092.83C102.16 1092.83 71.9391 1089.96 46.406 1084.97L45.4915 1084.79L45.4007 1083.86C44.1292 1071.05 46.002 1059.58 50.9658 1049.77C54.9431 1041.92 60.8903 1035.13 68.6476 1029.58C81.4815 1020.4 94.757 1017.78 95.9189 1017.56C110.685 1013.35 123.096 1015.38 130.913 1017.81C136.231 1019.47 140.161 1021.51 142.413 1022.85L140.875 1000.73C140.114 997.556 122.501 924.305 103.736 851.979C95.3019 819.477 91.5344 776.241 92.5303 723.471C93.3853 678.221 97.4785 636.029 100.485 608.206L101.741 430.469C100.065 381.052 117.678 361.772 127.142 351.41C127.449 351.075 127.747 350.748 128.035 350.432L128.072 350.394C132.927 345.486 143.618 339.424 153.953 333.56C166.17 326.632 181.375 318.008 181.5 313.539L181.622 288.618C181.625 287.928 182.186 287.369 182.875 287.369C182.878 287.369 182.878 287.369 182.881 287.369C183.573 287.373 184.131 287.937 184.128 288.63L184.002 313.58C183.846 319.097 173.01 325.632 155.184 335.743C145.009 341.513 134.486 347.481 129.867 352.141C129.582 352.454 129.288 352.774 128.987 353.107C119.764 363.205 102.593 381.999 104.24 430.413V430.438V430.463L102.984 608.354L102.978 608.417C91.1304 717.983 92.1702 797.447 106.153 851.352C125.248 924.948 143.149 999.504 143.327 1000.25L143.352 1000.35L145.269 1027.89L143.086 1026.27C143.039 1026.24 138.194 1022.7 130.061 1020.18C122.579 1017.86 110.691 1015.94 96.5421 1019.99L96.4199 1020.02C96.2853 1020.04 82.7217 1022.56 70.0287 1031.67C53.3585 1043.63 45.883 1060.79 47.8028 1082.68C74.9612 1087.92 107.293 1090.75 134.505 1090.28C167.207 1089.7 190.087 1084.69 200.676 1075.77C205.073 1072.06 207.262 1067.66 207.183 1062.68C204.199 1042.47 200.074 1003.81 198.255 961.188C196.73 925.428 196.41 874.953 203.56 837.566C216.369 770.583 220.196 764.493 220.59 764.02L221.965 762.367L222.723 764.38C225.063 770.583 280.034 916.71 284.014 950.77C285.721 965.384 288.007 982.136 290.024 996.916C292.833 1017.52 295.264 1035.32 295.683 1043.53C296.047 1050.64 297.068 1058.75 304.621 1065.08C316.265 1074.86 340.486 1077.52 376.598 1073.01C406.228 1067.8 439.809 1061.9 466.473 1049.03C495.849 1034.86 512.344 1014.11 516.894 985.617C515.726 980.562 510.934 972.248 503.02 965.653C496.149 959.924 484.499 953.505 468.029 955.446L467.923 955.455C444.043 956.214 430.965 964.264 417.947 986.223L417.84 986.373C411.229 994.499 397.158 1005.48 381.994 1014.35C375.204 1018.32 359.953 1026.61 350.999 1026.61C349.653 1026.61 348.45 1026.42 347.438 1026.01C345.75 1025.31 343.818 1023.66 344.197 1019.76C345.992 1000.36 345.653 976.354 345.65 976.115V976.015L345.666 975.915C345.713 975.595 350.429 943.228 352.205 896.206C353.843 852.826 353.248 787.744 341.09 724.045C330.23 667.132 326.7 609.58 330.599 552.978L334.72 493.143C334.767 492.453 335.366 491.926 336.058 491.979C336.747 492.026 337.27 492.625 337.223 493.318L333.101 553.154C329.218 609.539 332.735 666.878 343.555 723.578C355.756 787.524 356.358 852.822 354.71 896.341C352.975 942.174 348.456 974.14 348.162 976.184C348.184 977.912 348.447 1001.1 346.696 1020C346.446 1022.58 347.545 1023.34 348.397 1023.69C352.979 1025.58 365.371 1021.17 380.732 1012.19C395.611 1003.49 409.378 992.771 415.839 984.868C422.845 973.073 429.988 965.277 438.322 960.335C446.251 955.634 455.34 953.357 467.791 952.956C485.116 950.93 497.383 957.697 504.624 963.734C513.111 970.809 518.231 979.888 519.396 985.326L519.446 985.555L519.409 985.784C514.777 1015.27 497.818 1036.71 467.563 1051.3C440.576 1064.33 406.801 1070.26 377.002 1075.49L376.939 1075.5C357 1078 340.458 1078.33 327.771 1076.5C316.973 1074.93 308.642 1071.75 303.008 1067.02C293.986 1059.44 293.46 1049.18 293.178 1043.67C292.761 1035.56 290.341 1017.81 287.538 997.261C285.521 982.472 283.235 965.707 281.522 951.068C277.889 919.974 229.557 789.82 221.505 768.285C219.645 773.883 215.119 790.438 206.015 838.042C193.432 903.846 203.043 1017.61 209.667 1062.39L209.679 1062.55C209.802 1068.36 207.312 1073.45 202.282 1077.69C188.343 1089.43 157.752 1092.38 134.543 1092.79C132.563 1092.82 130.547 1092.83 128.508 1092.83Z" fill="#6F0301"/>
<path d="M325.594 364.378C345.55 391.852 355.186 478.36 356.151 489.125C357.115 499.891 346.521 544.113 300.932 521.427C255.346 498.741 240.348 475.939 197.011 492.475C180.009 482.568 186.448 454.817 186.448 454.817C186.448 454.817 211.749 437.287 237.37 443.75C249.496 446.811 309.45 461.892 313.944 462.275C318.438 462.661 314.752 381.839 314.752 381.839L325.594 364.378Z" fill="#EF9B69"/>
<path d="M324.232 529.094C317.114 529.094 309.143 526.911 300.375 522.549C289.429 517.102 280.131 511.626 271.929 506.797C245.293 491.111 229.215 481.643 196.808 494.005L195.702 494.425L195.22 493.343C188.136 477.507 186.169 455.523 186.091 454.598L186.035 453.946L186.536 453.525C186.746 453.35 191.769 449.185 200.6 445.72C208.73 442.53 221.752 439.388 237.614 442.515C241.936 443.368 251 445.845 261.494 448.718C280.779 453.993 304.709 460.541 313.6 461.002C314.173 459.879 315.438 454.432 314.925 428.274C314.624 412.986 313.854 398.046 313.847 397.899C313.813 397.206 314.342 396.616 315.034 396.581C315.726 396.544 316.315 397.077 316.35 397.77C316.359 397.921 317.136 413.046 317.433 428.456C318.044 460.12 316.099 462.106 315.269 462.952C314.89 463.341 314.405 463.545 313.904 463.529C305.044 463.234 280.529 456.53 260.833 451.142C250.386 448.285 241.363 445.817 237.129 444.983C221.906 441.982 209.413 444.98 201.609 448.025C194.681 450.728 190.118 453.946 188.653 455.056C189.035 458.8 191.161 477.4 197.036 491.242C229.841 479.1 247.151 489.295 273.2 504.636C281.368 509.447 290.622 514.897 301.489 520.307C317.051 528.053 329.841 528.627 339.503 522.016C346.314 517.356 350.094 510.065 352.064 504.771C354.403 498.48 355.177 492.312 354.901 489.242C354.46 484.302 351.729 460.4 346.446 433.706C339.91 400.68 332.127 377.27 323.941 366.002C323.534 365.441 323.659 364.657 324.217 364.249C324.777 363.841 325.56 363.967 325.967 364.525C334.486 376.251 342.199 399.363 348.901 433.216C354.206 460.017 356.949 484.048 357.394 489.016C358.071 496.589 353.818 515.255 340.915 524.086C336.033 527.426 330.458 529.094 324.232 529.094Z" fill="#6F0301"/>
<path d="M115.442 409.401C133.058 497.452 148.301 587.528 213.002 553.85C277.704 520.172 305.217 462.626 312.329 461.814C319.441 461.002 312.329 407.441 283.874 426.107C255.419 444.773 220.794 518.143 200.128 499.477C182.853 479.191 179.803 368.824 179.803 368.824L115.442 409.401Z" fill="#EF9B69"/>
<path d="M185.499 563.086C180.103 563.086 175.099 561.963 170.432 559.717C157.483 553.489 147.48 538.847 138.946 513.643C131.395 491.34 125.846 463.313 119.971 433.64C119.147 429.475 118.314 425.279 117.472 421.058C117.337 420.378 117.775 419.719 118.455 419.581C119.135 419.443 119.792 419.885 119.93 420.566C120.776 424.787 121.605 428.986 122.432 433.151C128.292 462.739 133.826 490.687 141.323 512.837C149.625 537.361 159.221 551.539 171.522 557.453C182.656 562.81 196.034 561.267 212.426 552.734C258.024 529 285.843 493.601 300.788 474.584C308.201 465.151 311.308 461.312 313.804 461.027C313.96 460.983 314.662 460.193 314.944 457.38C315.78 449.05 312.019 430.774 301.853 425.533C295.564 422.294 287.86 424.618 278.947 432.448C270.348 440.003 260.993 452.271 251.949 464.138C236.766 484.051 222.426 502.865 209.604 504.053C205.827 504.404 202.361 503.178 199.295 500.409L199.182 500.293C191.847 491.681 186.151 466.907 182.249 426.665C179.355 396.839 178.566 369.138 178.559 368.859C178.541 368.166 179.085 367.589 179.778 367.57C180.467 367.545 181.046 368.097 181.065 368.79C181.096 369.888 184.29 478.714 201.039 498.603C203.582 500.876 206.31 501.842 209.379 501.557C221.107 500.469 235.776 481.226 249.963 462.617C259.083 450.653 268.516 438.281 277.303 430.563C282.552 425.954 287.547 423.093 292.154 422.062C296.369 421.118 300.278 421.676 303.77 423.724C308.805 426.675 312.942 432.853 315.423 441.119C317.396 447.696 318.097 455.072 317.167 459.474C316.506 462.607 315.131 463.407 314.095 463.526C312.542 463.705 307.794 469.745 302.764 476.142C287.701 495.31 259.665 530.985 213.588 554.966C203.162 560.385 193.864 563.086 185.499 563.086Z" fill="#6F0301"/>
<path d="M491.859 1033.84C480.657 1042.3 468.033 1044.76 463.664 1039.34C459.292 1033.92 464.829 1022.67 476.031 1014.21C487.233 1005.75 499.857 1003.29 504.226 1008.71C508.595 1014.14 503.061 1025.39 491.859 1033.84Z" fill="#920505"/>
<path d="M471.161 1043.48C467.507 1043.48 464.516 1042.39 462.69 1040.13C461.256 1038.35 460.676 1035.97 461.011 1033.24C461.788 1026.94 467.253 1019.27 475.28 1013.21C487.196 1004.21 500.34 1001.89 505.203 1007.92C506.638 1009.7 507.217 1012.08 506.882 1014.81C506.105 1021.11 500.64 1028.79 492.614 1034.84C485.17 1040.46 477.246 1043.48 471.161 1043.48ZM496.813 1007.09C491.311 1007.09 483.688 1010 476.783 1015.21C469.395 1020.79 464.181 1027.99 463.495 1033.55C463.241 1035.62 463.626 1037.3 464.638 1038.55C468.515 1043.36 480.635 1040.74 491.104 1032.84C498.492 1027.26 503.706 1020.06 504.392 1014.5C504.646 1012.44 504.261 1010.76 503.249 1009.5C501.934 1007.86 499.654 1007.09 496.813 1007.09Z" fill="#6F0301"/>
<path d="M500.455 1017.66C487.575 1027.41 472.671 1029.74 467.165 1022.85C461.662 1015.97 467.641 1002.49 480.525 992.743C493.409 982.996 508.31 980.669 513.815 987.553C519.318 994.433 513.336 1007.91 500.455 1017.66Z" fill="#920505"/>
<path d="M477.136 1028.07C472.326 1028.07 468.515 1026.55 466.188 1023.64C464.306 1021.29 463.548 1018.16 463.992 1014.6C464.919 1007.17 470.964 998.409 479.77 991.745C486.162 986.91 493.255 983.686 499.744 982.676C506.493 981.622 511.839 983.077 514.792 986.772C516.675 989.124 517.433 992.25 516.988 995.81C516.061 1003.25 510.017 1012 501.21 1018.66C494.818 1023.5 487.725 1026.72 481.236 1027.73C479.802 1027.96 478.433 1028.07 477.136 1028.07ZM503.856 984.846C502.685 984.846 501.442 984.946 500.13 985.15C494.042 986.101 487.349 989.152 481.28 993.743C472.996 1000.01 467.325 1008.12 466.476 1014.91C466.113 1017.82 466.673 1020.23 468.142 1022.07C470.513 1025.03 475.026 1026.16 480.851 1025.25C486.939 1024.3 493.631 1021.25 499.701 1016.66C507.984 1010.39 513.656 1002.28 514.504 995.496C514.868 992.583 514.307 990.171 512.838 988.337C511 986.041 507.878 984.846 503.856 984.846Z" fill="#6F0301"/>
<path d="M488.671 1003.46C478.086 1015.24 464.4 1020.42 458.102 1015.04C451.804 1009.65 455.28 995.738 465.866 983.955C476.451 972.177 490.137 966.993 496.435 972.377C502.732 977.762 499.256 991.68 488.671 1003.46Z" fill="#920505"/>
<path d="M464.563 1018.43C461.666 1018.43 459.186 1017.61 457.291 1015.99C455.189 1014.19 453.965 1011.5 453.749 1008.18C453.273 1000.93 457.56 991.325 464.938 983.115C470.19 977.272 476.36 972.81 482.32 970.555C488.539 968.2 493.844 968.507 497.252 971.424C499.353 973.221 500.578 975.921 500.794 979.229C501.27 986.483 496.982 996.089 489.604 1004.3C484.352 1010.14 478.183 1014.6 472.223 1016.86C469.461 1017.91 466.877 1018.43 464.563 1018.43ZM489.974 971.493C487.969 971.493 485.686 971.963 483.203 972.901C477.613 975.018 471.788 979.242 466.799 984.793C459.859 992.517 455.816 1001.42 456.248 1008.02C456.423 1010.67 457.319 1012.72 458.916 1014.08C461.597 1016.38 466.01 1016.53 471.337 1014.51C476.927 1012.39 482.752 1008.17 487.741 1002.62C494.681 994.894 498.724 985.994 498.292 979.392C498.116 976.736 497.22 974.695 495.623 973.331C494.192 972.107 492.266 971.493 489.974 971.493Z" fill="#6F0301"/>
<path d="M466.401 1000.6C456.013 1012.17 442.49 1017.17 436.198 1011.78C429.904 1006.39 433.223 992.645 443.611 981.08C453.999 969.514 467.522 964.509 473.814 969.9C480.109 975.291 476.789 989.036 466.401 1000.6Z" fill="#920505"/>
<path d="M442.75 1015.21C439.819 1015.21 437.304 1014.38 435.381 1012.74C433.252 1010.92 432.011 1008.18 431.792 1004.83C431.322 997.663 435.494 988.242 442.678 980.246C447.836 974.503 453.921 970.141 459.812 967.959C465.963 965.682 471.224 966.033 474.628 968.95C476.758 970.772 477.998 973.506 478.217 976.855C478.687 984.024 474.515 993.445 467.331 1001.44C462.173 1007.18 456.088 1011.55 450.197 1013.73C447.52 1014.72 445.011 1015.21 442.75 1015.21ZM467.256 968.978C465.299 968.978 463.085 969.42 460.683 970.311C455.164 972.352 449.433 976.476 444.542 981.92C437.796 989.431 433.869 998.149 434.294 1004.67C434.47 1007.36 435.384 1009.44 437.013 1010.83C439.697 1013.13 444.072 1013.32 449.33 1011.37C454.848 1009.33 460.579 1005.21 465.471 999.764C472.217 992.253 476.144 983.538 475.718 977.019C475.543 974.322 474.628 972.249 473 970.856C471.54 969.605 469.583 968.978 467.256 968.978Z" fill="#6F0301"/>
<path d="M453.01 1054.47C467.544 1049.99 476.498 1037.15 473.008 1025.8C469.517 1014.44 454.906 1008.86 440.371 1013.34C425.836 1017.82 416.883 1030.66 420.373 1042.01C423.863 1053.37 438.475 1058.95 453.01 1054.47Z" fill="#920505"/>
<path d="M442.985 1057.22C431.942 1057.22 422.325 1051.76 419.318 1042.75C417.677 1037.83 418.169 1032.53 420.737 1027.44C424.226 1020.53 431.066 1014.99 439.506 1012.26C454.601 1007.36 470.109 1013.07 474.08 1024.97C475.721 1029.89 475.229 1035.19 472.661 1040.28C469.173 1047.19 462.333 1052.73 453.893 1055.46C450.226 1056.65 446.533 1057.22 442.985 1057.22ZM450.467 1013C447.163 1013 443.715 1013.53 440.282 1014.64C432.475 1017.17 426.168 1022.25 422.976 1028.57C420.715 1033.05 420.274 1037.68 421.699 1041.95C424.354 1049.92 432.973 1054.71 442.941 1054.71C446.245 1054.71 449.693 1054.19 453.126 1053.07C460.933 1050.54 467.24 1045.47 470.432 1039.14C472.693 1034.66 473.134 1030.04 471.709 1025.76C469.05 1017.8 460.435 1013 450.467 1013Z" fill="#6F0301"/>
<path d="M337.367 1056.42L321.655 1052.96C320.979 1052.81 320.553 1052.14 320.7 1051.46C320.847 1050.79 321.517 1050.36 322.194 1050.51L333.146 1052.92L331.981 1050.2L333.236 1049.75C333.8 1049.55 389.576 1029.59 397.544 1021.23C398.023 1020.73 398.815 1020.71 399.316 1021.19C399.817 1021.67 399.836 1022.46 399.357 1022.96C391.578 1031.13 343.937 1048.56 335.331 1051.67L337.367 1056.42Z" fill="#6F0301"/>
<path d="M74.0908 1088.01C73.5866 1088.01 73.1137 1087.7 72.9227 1087.21C66.3303 1070.1 67.7396 1054.15 70.0853 1043.77C72.6251 1032.53 76.6745 1025.41 76.8467 1025.12C77.1912 1024.52 77.9585 1024.31 78.5567 1024.66C79.1548 1025 79.3615 1025.77 79.017 1026.37C78.9575 1026.47 74.9552 1033.54 72.5093 1044.41C70.2575 1054.43 68.9078 1069.82 75.2589 1086.3C75.5095 1086.95 75.1869 1087.67 74.5418 1087.92C74.3946 1087.98 74.2411 1088.01 74.0908 1088.01Z" fill="#6F0301"/>
<path d="M91.4811 1090.2C90.9362 1090.2 90.4351 1089.84 90.2786 1089.29C87.2282 1078.58 86.2887 1068.07 87.485 1058.05C88.4434 1050.03 90.7671 1042.3 94.3937 1035.09C100.573 1022.81 108.295 1016.37 108.621 1016.1C109.157 1015.66 109.946 1015.73 110.384 1016.27C110.823 1016.81 110.748 1017.59 110.212 1018.03C110.137 1018.1 102.511 1024.48 96.5765 1036.33C91.1147 1047.23 86.01 1065.15 92.6837 1088.6C92.8748 1089.27 92.4864 1089.97 91.8225 1090.15C91.7098 1090.18 91.597 1090.2 91.4811 1090.2Z" fill="#6F0301"/>
<path d="M118.756 1089.57C118.129 1089.57 117.588 1089.1 117.512 1088.47C115.837 1074.32 116.228 1062.55 118.677 1053.48C120.757 1045.78 124.324 1039.97 129.272 1036.22C138.191 1029.45 149.177 1031.23 153.737 1033.12C154.376 1033.38 154.68 1034.12 154.417 1034.76C154.154 1035.4 153.421 1035.7 152.782 1035.44C148.68 1033.74 138.799 1032.13 130.785 1038.21C120.76 1045.82 117.027 1063.1 119.999 1088.17C120.08 1088.86 119.589 1089.48 118.903 1089.56C118.856 1089.57 118.806 1089.57 118.756 1089.57Z" fill="#6F0301"/>
<path d="M60.621 1073.94C62.8814 1073.74 64.3923 1069.94 63.9956 1065.44C63.599 1060.95 61.445 1057.48 59.1846 1057.68C56.9242 1057.88 55.4133 1061.68 55.81 1066.17C56.2066 1070.66 58.3606 1074.14 60.621 1073.94Z" fill="#6F0301"/>
<path d="M83.2528 1066.38C83.4108 1061.88 81.7005 1058.16 79.4326 1058.08C77.1647 1058 75.1981 1061.59 75.04 1066.09C74.882 1070.6 76.5924 1074.32 78.8603 1074.4C81.1282 1074.48 83.0948 1070.89 83.2528 1066.38Z" fill="#6F0301"/>
<path d="M105.699 1069.94C105.867 1065.16 103.766 1061.21 101.008 1061.11C98.2487 1061.01 95.8764 1064.81 95.7088 1069.59C95.5412 1074.37 97.6417 1078.32 100.401 1078.42C103.159 1078.51 105.532 1074.72 105.699 1069.94Z" fill="#6F0301"/>
<path d="M136.614 1073.32C137.899 1068.71 136.786 1064.37 134.127 1063.63C131.469 1062.89 128.272 1066.02 126.987 1070.62C125.701 1075.23 126.815 1079.56 129.473 1080.31C132.132 1081.05 135.329 1077.92 136.614 1073.32Z" fill="#6F0301"/>
<path d="M170.517 1062.34C170.041 1062.34 169.584 1062.07 169.374 1061.6C160.496 1041.97 153.693 1033.18 141.379 1025.43C140.794 1025.06 140.618 1024.28 140.985 1023.7C141.351 1023.11 142.128 1022.93 142.713 1023.3C155.51 1031.36 162.544 1040.41 171.657 1060.57C171.942 1061.2 171.663 1061.94 171.034 1062.22C170.865 1062.3 170.689 1062.34 170.517 1062.34Z" fill="#6F0301"/>
<g opacity="0.4">
<path d="M55.031 1049.89C55.8609 1066.17 57.4644 1068.93 64.0473 1065.45C70.6302 1061.97 69.7471 1049.3 69.7471 1049.3C69.7471 1049.3 79.4586 1065.8 87.407 1064.03C88.8789 1048.71 88.8789 1048.71 88.8789 1048.71C88.8789 1048.71 95.9441 1077.89 118.017 1071.11C118.017 1071.11 196.601 1095.86 204.841 1043.7C208.436 1062.57 212.198 1077 190.125 1082.6C168.052 1088.2 152.748 1095.86 56.5029 1086.14C46.6473 1083.73 46.6473 1083.73 46.6473 1083.73C46.6473 1083.73 44.7307 1059.91 55.031 1049.89Z" fill="#A86B4A"/>
</g>
<g opacity="0.4">
<path d="M500.863 983.24C500.863 983.24 503.118 962.012 477.725 972.556C470.228 963.659 458.531 963.436 438.406 985.674C417.9 1008.33 392.952 1030.5 354.435 1042.66C333.659 1050.93 315.946 1060.46 307.938 1016.25C303.926 994.088 346.859 1004.07 346.859 1004.07C346.859 1004.07 345.851 985.241 348.951 954.63C260.345 981.249 264.081 736.595 264.081 736.595L221.201 762.417C221.201 762.417 262.327 884.004 272.959 914.615C283.592 945.225 289.36 1000.31 289.36 1000.31C289.36 1000.31 290.112 1003.99 290.4 1005.68C290.225 1014.95 294.449 1041.74 295.286 1048.8C296.842 1061.93 307.694 1072.19 326.96 1075.07C334.407 1076.18 346.593 1076.74 363.301 1075.4C396.942 1072.7 445.744 1063.08 474.493 1045.44C495.313 1032.58 513.039 1016.83 516.897 990.168C511.739 979.913 500.863 983.24 500.863 983.24Z" fill="#A86B4A"/>
</g>
<path d="M195.609 779.546C195.186 779.546 194.772 779.333 194.537 778.944C194.177 778.352 194.365 777.58 194.957 777.219L263.426 735.526C264.018 735.165 264.789 735.354 265.149 735.946C265.509 736.539 265.321 737.31 264.729 737.671L196.26 779.364C196.056 779.487 195.831 779.546 195.609 779.546Z" fill="#6F0301"/>
<g opacity="0.4">
<path d="M196.924 293.105L195.255 328.304C195.255 328.304 122.664 362.537 123.507 392.966C124.352 423.395 124.352 660.484 124.352 682.038C124.352 703.592 126.886 836.293 138.702 906.025C150.518 975.758 171.046 1012.23 201.011 1000.82L201.969 1004.74L205.68 1047.04L200.729 1017.83C168.889 1019.4 172.637 1058.12 172.637 1058.12L170.517 1061.09C170.517 1061.09 157.157 1031.72 144.304 1026.08C144.057 1018.7 143.672 1008.92 142.118 1000.54C139.823 988.174 136.024 977.577 134.834 971.775C132.839 962.041 98.7 823.793 96.8397 808.401C94.2717 787.161 93.019 703.213 97.3377 661.165C101.907 616.671 102.677 587.202 102.439 568.379C102.173 547.493 101.45 415.602 103.943 400.878C106.435 386.154 114.475 358.466 144.223 341.491C163.38 328.759 182.083 316.35 182.083 316.35L183.677 288.414L196.924 293.105Z" fill="#A86B4A"/>
</g>
<g opacity="0.4">
<path d="M123.259 438.334C126.212 451.051 158.582 561.593 201.408 542.962C244.232 524.331 301.824 451.873 309.504 451.28C317.183 450.687 313.941 462.278 313.941 462.278C313.941 462.278 283.513 498.897 279.376 503.924C275.242 508.951 230.499 546.405 212.999 553.853C195.499 561.301 147.051 589.055 123.716 450.647C124.017 442.066 123.259 438.334 123.259 438.334Z" fill="#A86B4A"/>
</g>
<g opacity="0.4">
<path d="M190.952 471.862C210.127 459.706 251.82 462.701 251.82 462.701L231.063 488.42C231.063 488.42 209.404 486.306 197.012 492.472C192.186 474.857 190.952 471.862 190.952 471.862Z" fill="#A86B4A"/>
</g>
<g opacity="0.4">
<path d="M293.619 486.03C295.73 490.963 348.747 504.806 349.277 467.989C350.683 454.25 352.092 463.056 352.092 463.056C352.092 463.056 358.074 490.007 352.797 504.981C347.52 519.956 335.907 527.705 325.353 526.824C314.799 525.943 315.037 529.238 300.932 521.427C286.827 513.612 274.688 507.446 274.688 507.446L293.619 486.03Z" fill="#A86B4A"/>
</g>
</svg>
