<svg width="20" height="16" viewBox="0 0 20 16" fill="none" xmlns="http://www.w3.org/2000/svg">
<path id="Vector" d="M19.1781 1.22496C18.1868 5.72642 17.1989 10.2279 16.2025 14.7285C15.9843 15.7119 15.3024 15.9434 14.4449 15.34C13.2644 14.5102 12.0873 13.6754 10.9076 12.8431C10.6911 12.6904 10.4729 12.541 10.2437 12.3818C9.21997 13.1254 8.49546 14.2007 7.35671 14.7745L7.23056 14.6784C7.25017 14.3419 7.26636 14.0054 7.29023 13.6688C7.35927 12.7002 7.45047 11.7333 7.49138 10.7639C7.50673 10.3986 7.75988 10.2385 7.98405 10.044C10.484 7.87619 12.9882 5.71164 15.4959 3.5512C15.6101 3.4527 15.7712 3.40592 15.9476 3.31562C15.5223 2.97252 15.2913 3.13176 15.0731 3.26227C14.0119 3.89678 12.9567 4.53867 11.8981 5.17728C9.72116 6.48979 7.54594 7.80559 5.35963 9.10416C5.19598 9.20183 4.92834 9.23877 4.74508 9.18706C3.41199 8.80947 2.08317 8.41876 0.766271 7.99192C0.481583 7.89999 0.254003 7.64635 0 7.46659C0 7.4395 0 7.41159 0 7.3845C0.185814 6.96998 0.572785 6.79515 0.971689 6.64575C1.91014 6.29444 2.85285 5.95461 3.793 5.6074C8.41364 3.90088 13.0343 2.1919 17.6566 0.490309C18.5414 0.164438 18.8474 0.306442 19.1781 1.14287V1.22496Z" fill="#521210"/>
</svg>
