<svg width="25" height="25" viewBox="0 0 25 25" fill="none" xmlns="http://www.w3.org/2000/svg">
<g clip-path="url(#clip0_1647_121)">
<path d="M0 12.5001C0 17.8746 3.39219 22.4564 8.1521 24.2226L9.23911 12.5L8.1521 0.777588C3.39219 2.5438 0 7.12554 0 12.5001Z" fill="#6DA544"/>
<path d="M25.0002 12.5C25.0002 5.59648 19.4038 0 12.5002 0C10.9712 0 9.50654 0.275049 8.15234 0.77749V24.2225C9.50654 24.725 10.9712 25 12.5002 25C19.4038 25 25.0002 19.4035 25.0002 12.5Z" fill="#D80027"/>
<path d="M8.152 16.8477C10.5532 16.8477 12.4998 14.9011 12.4998 12.4999C12.4998 10.0987 10.5532 8.1521 8.152 8.1521C5.75078 8.1521 3.8042 10.0987 3.8042 12.4999C3.8042 14.9011 5.75078 16.8477 8.152 16.8477Z" fill="#FFDA44"/>
<path d="M5.70654 10.3262V13.0436C5.70654 14.3942 6.80146 15.4892 8.1522 15.4892C9.50293 15.4892 10.5979 14.3943 10.5979 13.0436V10.3262H5.70654Z" fill="#D80027"/>
<path d="M8.15215 13.8587C7.70264 13.8587 7.33691 13.493 7.33691 13.0435V11.9565H8.96733V13.0435C8.96733 13.493 8.60161 13.8587 8.15215 13.8587Z" fill="#F0F0F0"/>
</g>
<defs>
<clipPath id="clip0_1647_121">
<rect width="25" height="25" fill="white"/>
</clipPath>
</defs>
</svg>
