<svg width="25" height="25" viewBox="0 0 25 25" fill="none" xmlns="http://www.w3.org/2000/svg">
<g clip-path="url(#clip0_1647_4160)">
<path d="M0 12.5C0 14.029 0.275049 15.4936 0.77749 16.8478L12.5 17.9347L24.2225 16.8478C24.725 15.4936 25 14.029 25 12.5C25 10.9709 24.725 9.5063 24.2225 8.15215L12.5 7.06519L0.77749 8.15215C0.275049 9.5063 0 10.9709 0 12.5H0Z" fill="#FFDA44"/>
<path d="M24.2224 8.1522C22.4562 3.39224 17.8744 0 12.4999 0C7.12529 0 2.54351 3.39224 0.777344 8.1522H24.2224Z" fill="#D80027"/>
<path d="M0.777344 16.8479C2.54351 21.6079 7.12529 25.0001 12.4999 25.0001C17.8744 25.0001 22.4562 21.6079 24.2224 16.8479H0.777344Z" fill="#D80027"/>
</g>
<defs>
<clipPath id="clip0_1647_4160">
<rect width="25" height="25" fill="white"/>
</clipPath>
</defs>
</svg>
