<svg width="25" height="25" viewBox="0 0 25 25" fill="none" xmlns="http://www.w3.org/2000/svg">
<g clip-path="url(#clip0_1647_4054)">
<path d="M12.5 25C19.4036 25 25 19.4036 25 12.5C25 5.59644 19.4036 0 12.5 0C5.59644 0 0 5.59644 0 12.5C0 19.4036 5.59644 25 12.5 25Z" fill="#F0F0F0"/>
<path d="M24.9999 12.5C24.9999 7.12541 21.6077 2.54363 16.8477 0.777466V24.2225C21.6077 22.4563 24.9999 17.8745 24.9999 12.5Z" fill="#D80027"/>
<path d="M0 12.5C0 17.8745 3.39219 22.4563 8.1522 24.2225V0.777466C3.39219 2.54363 0 7.12541 0 12.5Z" fill="#6DA544"/>
</g>
<defs>
<clipPath id="clip0_1647_4054">
<rect width="25" height="25" fill="white"/>
</clipPath>
</defs>
</svg>
