<svg width="24" height="24" viewBox="0 0 24 24" fill="none" xmlns="http://www.w3.org/2000/svg">
<g clip-path="url(#clip0_1186_2667)">
<mask id="mask0_1186_2667" style="mask-type:luminance" maskUnits="userSpaceOnUse" x="0" y="0" width="24" height="24">
<path d="M12 24C18.6274 24 24 18.6274 24 12C24 5.37258 18.6274 0 12 0C5.37258 0 0 5.37258 0 12C0 18.6274 5.37258 24 12 24Z" fill="white"/>
</mask>
<g mask="url(#mask0_1186_2667)">
<path d="M-5.72998 -1.30005H29.72V25.2999H-5.72998V-1.30005Z" fill="#012169"/>
<path d="M-1.56998 -1.30005L11.94 8.72995L25.41 -1.30005H29.73V2.12995L16.43 12.05L29.73 21.91V25.29H25.3L12 15.38L-1.23998 25.2999H-5.72998V21.9799L7.51002 12.12L-5.72998 2.24995V-1.30005H-1.56998Z" fill="white"/>
<path d="M17.76 14.27L29.73 23.08V25.2999L14.71 14.27H17.76ZM7.57002 15.38L7.90002 17.32L-2.73998 25.2999H-5.72998L7.57002 15.38ZM29.73 -1.30005V-1.13005L15.93 9.28995L16.04 6.84995L26.96 -1.30005H29.73ZM-5.72998 -1.30005L7.51002 8.44995H4.19002L-5.72998 1.02995V-1.30005Z" fill="#C8102E"/>
<path d="M7.62002 -1.30005V25.2999H16.48V-1.30005H7.62002ZM-5.72998 7.56995V16.43H29.72V7.56995H-5.72998Z" fill="white"/>
<path d="M-5.72998 9.39995V14.72H29.72V9.39995H-5.72998ZM9.40002 -1.30005V25.2999H14.72V-1.30005H9.40002Z" fill="#C8102E"/>
</g>
</g>
<defs>
<clipPath id="clip0_1186_2667">
<rect width="24" height="24" fill="white"/>
</clipPath>
</defs>
</svg>
