<?xml version="1.0" encoding="utf-8"?>
<!-- Generator: Adobe Illustrator 28.4.1, SVG Export Plug-In . SVG Version: 6.00 Build 0)  -->
<svg version="1.1" xmlns="http://www.w3.org/2000/svg" xmlns:xlink="http://www.w3.org/1999/xlink" x="0px" y="0px"
	 viewBox="0 0 16 16" style="enable-background:new 0 0 16 16;" xml:space="preserve">
<style type="text/css">
	.st0{fill:url(#SVGID_1_);}
	
		.st1{opacity:0.35;clip-path:url(#SVGID_00000032649814765455478680000007781434402006285491_);fill:url(#SVGID_00000018947957771008902700000017166190551535241151_);}
	.st2{clip-path:url(#SVGID_00000032649814765455478680000007781434402006285491_);}
	.st3{fill:url(#SVGID_00000026156782112999664450000011837271664736635040_);}
	.st4{opacity:0.35;fill:url(#SVGID_00000067932458129044262370000003754498612370039996_);}
	.st5{fill:url(#SVGID_00000182492347973116102630000005537534657702177194_);}
	.st6{opacity:0.35;fill:url(#SVGID_00000020363450374907061310000005378211004108250016_);}
	.st7{opacity:0.55;fill:url(#SVGID_00000026872369407085320510000009656594979655469968_);}
	.st8{fill:url(#SVGID_00000108277062943579716240000006411605300471179194_);}
	.st9{opacity:0.55;fill:url(#SVGID_00000167388490496763561290000000757403057576591806_);}
	.st10{opacity:0.35;fill:url(#SVGID_00000125564156579300554450000016811528148090033805_);}
	.st11{fill:url(#SVGID_00000058567028764876384550000010384091635400892823_);}
	.st12{fill:url(#SVGID_00000060718508648267274840000015697297383244721083_);}
	.st13{fill:url(#SVGID_00000094604683264262255220000016791427070318736552_);}
	.st14{fill:url(#SVGID_00000006672314205140505050000009117062339850318778_);}
	.st15{fill:url(#SVGID_00000012457281910576718390000006554887329225524146_);}
	.st16{fill:url(#SVGID_00000018211246522989989250000018201154478563815615_);}
	.st17{fill:url(#SVGID_00000066496011669110127630000008623135985383590847_);}
	.st18{fill:url(#SVGID_00000101088310382579267590000005770699486776067990_);}
	.st19{fill:url(#SVGID_00000147215041790436018000000001769052341185336474_);}
	.st20{fill:#FF463D;}
	.st21{fill:none;stroke:#6F0301;stroke-width:11.3927;stroke-linecap:round;stroke-miterlimit:10;}
	.st22{fill:none;}
	.st23{fill:#007CFF;}
	.st24{fill:none;stroke:#6F0301;stroke-width:6.0761;stroke-linecap:round;stroke-miterlimit:10;}
	.st25{fill:#3B3B3D;}
	.st26{fill:none;stroke:#FFFFFF;stroke-width:12.5964;stroke-linecap:round;stroke-miterlimit:10;}
	.st27{fill:none;stroke:#000000;stroke-width:16.4264;stroke-miterlimit:10;}
	.st28{fill:none;stroke:#000000;stroke-width:15.7455;stroke-miterlimit:10;}
	.st29{fill:none;stroke:#FFFFFF;stroke-width:13.181;stroke-linecap:round;stroke-miterlimit:10;}
	.st30{fill:none;stroke:#000000;stroke-width:16.4762;stroke-miterlimit:10;}
	.st31{fill:none;stroke:#000000;stroke-width:8.9953;stroke-miterlimit:10;}
	.st32{clip-path:url(#SVGID_00000155850903299245723740000003860884917276305594_);}
	.st33{fill:#FFE242;}
	.st34{clip-path:url(#SVGID_00000106137760578495458410000001694878759517447301_);fill:#F1B82F;}
	.st35{fill:#FDFDD0;}
	.st36{fill:none;stroke:#6F0301;stroke-width:2.3263;stroke-linecap:round;stroke-miterlimit:10;}
	.st37{clip-path:url(#SVGID_00000001664232296264569110000014432823571765597624_);fill:#F1B82F;}
	.st38{fill:#EF9B69;}
	.st39{fill:#920505;}
	.st40{fill:none;stroke:#6F0301;stroke-width:2.3258;stroke-linecap:round;stroke-miterlimit:10;}
	.st41{opacity:0.4;fill:#A86B4A;}
	.st42{fill:#FFEDC7;}
	.st43{fill:#6F0301;}
	.st44{opacity:0.33;fill:#FFFFFF;}
	.st45{opacity:0.15;}
	.st46{fill:#BF5241;}
	.st47{fill:#F88A7D;}
	.st48{opacity:0.72;fill:#FFFFFF;}
	.st49{opacity:0.46;fill:#FFFFFF;}
	.st50{fill:#FFFFFF;}
	.st51{fill:#060110;}
	.st52{fill:#181818;}
	.st53{fill:#FCFCFC;}
	.st54{opacity:0.2;fill:#FFFFFF;}
	.st55{fill:#F1B82F;}
	.st56{clip-path:url(#SVGID_00000023260592533377619650000009990203218297387703_);fill:#F1B82F;}
	.st57{clip-path:url(#SVGID_00000023260592533377619650000009990203218297387703_);fill:#FDFDD0;}
	.st58{fill:none;stroke:#6F0301;stroke-width:2.4358;stroke-linecap:round;stroke-miterlimit:10;}
	.st59{fill:#FF7BB1;}
	.st60{fill:#D83680;}
	.st61{fill:#FFA4CD;}
	.st62{fill:none;stroke:#6F0301;stroke-width:2.4111;stroke-linecap:round;stroke-miterlimit:10;}
	.st63{fill:#F9CDE3;}
	.st64{fill:#89BA2D;}
	.st65{fill:#C3FF40;}
	.st66{fill:#C4608D;}
	.st67{fill:none;stroke:#6F0301;stroke-width:2.4692;stroke-linecap:round;stroke-miterlimit:10;}
	.st68{fill:none;stroke:#6F0301;stroke-width:2.4876;stroke-linecap:round;stroke-miterlimit:10;}
	.st69{fill:#CF6DA1;}
	.st70{fill:#B68457;}
	.st71{clip-path:url(#SVGID_00000107577481061853409770000016403371027996355471_);fill:#FDFDD0;}
	.st72{fill:#939CE5;}
	.st73{fill:#F9C33F;}
	.st74{fill:#61C1CE;}
	.st75{fill:#FFCC29;}
	.st76{clip-path:url(#SVGID_00000004515386956748988630000002919874886688403607_);}
	.st77{fill:url(#SVGID_00000148651630531220632810000016234125566348950181_);}
	.st78{opacity:0.1;fill:url(#SVGID_00000058579687915468335950000007681848164835698093_);}
	.st79{opacity:0.7;fill-rule:evenodd;clip-rule:evenodd;fill:#FFFFFF;}
	.st80{clip-path:url(#SVGID_00000147210593552145096230000018183193858385188251_);}
	.st81{fill:#6D0C20;}
	.st82{fill:#DC365E;}
	.st83{fill:#9FA2AB;}
	.st84{fill:none;stroke:#6F0301;stroke-width:0.5822;stroke-linecap:round;stroke-miterlimit:10;}
	.st85{fill:none;stroke:#6F0301;stroke-width:1.3106;stroke-linecap:round;stroke-miterlimit:10;}
	.st86{fill:none;stroke:#6F0301;stroke-width:0.113;stroke-linecap:round;stroke-miterlimit:10;}
	.st87{fill:#FFEFD4;}
	.st88{fill:#FFE497;}
	.st89{fill:none;stroke:#6F0301;stroke-width:0.8578;stroke-linecap:round;stroke-miterlimit:10;}
	.st90{fill:none;stroke:#6F0301;stroke-width:1.995;stroke-linecap:round;stroke-miterlimit:10;}
	.st91{clip-path:url(#SVGID_00000067212320262163564850000001528668201458883979_);}
	.st92{fill:#0E0E26;}
	.st93{fill:#9A0027;}
	.st94{fill:none;stroke:#F9C33F;stroke-width:3;stroke-miterlimit:10;}
	.st95{opacity:0.42;fill:#770022;}
	.st96{fill:#3C9AA0;}
	.st97{fill:#3C687A;}
	.st98{fill:#FFF324;}
	.st99{fill:#BFBDBE;}
	.st100{fill:none;stroke:#6F0301;stroke-width:1.7267;stroke-linecap:round;stroke-miterlimit:10;}
	.st101{clip-path:url(#SVGID_00000039119016879089194410000012941402411787742357_);fill:#D55834;}
	.st102{clip-path:url(#SVGID_00000039119016879089194410000012941402411787742357_);fill:#FFFFFF;}
	.st103{clip-path:url(#SVGID_00000138555603954793555340000001314487452032831112_);fill:#D55834;}
	.st104{clip-path:url(#SVGID_00000138555603954793555340000001314487452032831112_);fill:#FFFFFF;}
	.st105{clip-path:url(#SVGID_00000103950263668809510170000000629360076745174145_);fill:#D55834;}
	.st106{clip-path:url(#SVGID_00000103950263668809510170000000629360076745174145_);fill:#FFFFFF;}
	.st107{fill:#D55834;}
	.st108{clip-path:url(#SVGID_00000175283320344597105160000004572990481998678690_);fill:#D55834;}
	.st109{clip-path:url(#SVGID_00000175283320344597105160000004572990481998678690_);fill:#FFFFFF;}
	.st110{fill:#118FF4;}
	.st111{fill:#654DBE;}
	.st112{clip-path:url(#SVGID_00000075146938457188871970000014712593560841685937_);fill:#D55834;}
	.st113{clip-path:url(#SVGID_00000075146938457188871970000014712593560841685937_);fill:#FFFFFF;}
	.st114{clip-path:url(#SVGID_00000024714878001065131330000011703705479456108727_);fill:#D55834;}
	.st115{clip-path:url(#SVGID_00000024714878001065131330000011703705479456108727_);fill:#FFFFFF;}
	.st116{clip-path:url(#SVGID_00000100341350245721561760000010555219840410133646_);fill:#D55834;}
	.st117{clip-path:url(#SVGID_00000100341350245721561760000010555219840410133646_);fill:#FFFFFF;}
	.st118{clip-path:url(#SVGID_00000181790305281712651880000000221028949378279826_);fill:#D55834;}
	.st119{clip-path:url(#SVGID_00000181790305281712651880000000221028949378279826_);fill:#FFFFFF;}
	.st120{clip-path:url(#SVGID_00000132790071537291066380000011034512950526659476_);}
	.st121{clip-path:url(#SVGID_00000021119355035480858360000006237572740214638230_);}
	.st122{fill:none;stroke:#FFEFD4;stroke-miterlimit:10;}
	.st123{clip-path:url(#SVGID_00000062180813589620526550000005318902908090641040_);}
	.st124{fill-rule:evenodd;clip-rule:evenodd;fill:#CCBA9B;}
	.st125{fill:#006CB5;}
	.st126{fill-rule:evenodd;clip-rule:evenodd;fill:#1370B7;}
	.st127{clip-path:url(#SVGID_00000150090415895204142660000000064293736908660916_);}
	.st128{fill:#C13434;}
	.st129{fill:#1E354C;}
	.st130{fill:none;stroke:#000000;stroke-miterlimit:10;}
	.st131{clip-path:url(#SVGID_00000129175290650467075910000012176335663972005047_);}
	.st132{fill:#EBC355;}
	.st133{fill:#BB893E;}
	.st134{fill:none;stroke:#FFEDC7;stroke-width:0.9159;stroke-miterlimit:10;}
	.st135{fill:#C33A35;}
	.st136{fill:none;stroke:#192231;stroke-width:2;stroke-linecap:round;stroke-miterlimit:10;}
	.st137{fill:#263462;}
	.st138{fill:#192231;}
	.st139{clip-path:url(#SVGID_00000026141626357405146750000012333368728719244691_);fill:#FFFFFF;}
	.st140{clip-path:url(#SVGID_00000026141626357405146750000012333368728719244691_);}
	.st141{fill:#D81F00;}
	.st142{clip-path:url(#SVGID_00000026141626357405146750000012333368728719244691_);fill:#3D57AC;}
	.st143{fill:none;stroke:#192231;stroke-width:2.8295;stroke-linecap:round;stroke-miterlimit:10;}
	.st144{fill:none;stroke:#6F0301;stroke-width:2.731;stroke-linecap:round;stroke-miterlimit:10;}
	.st145{fill:none;stroke:#6F0301;stroke-width:2.5764;stroke-linecap:round;stroke-miterlimit:10;}
	.st146{fill-rule:evenodd;clip-rule:evenodd;fill:#5B5B5B;}
	.st147{fill-rule:evenodd;clip-rule:evenodd;fill:#7D7D7D;}
	.st148{fill-rule:evenodd;clip-rule:evenodd;fill:#C5C6C6;}
	.st149{fill-rule:evenodd;clip-rule:evenodd;fill:#D9DADA;}
	.st150{fill-rule:evenodd;clip-rule:evenodd;fill:#727271;}
	.st151{fill-rule:evenodd;clip-rule:evenodd;fill:#898989;}
	.st152{fill-rule:evenodd;clip-rule:evenodd;fill:#B2B3B3;}
	.st153{fill:none;stroke:#1E1E1F;stroke-width:1.2219;stroke-linecap:round;stroke-linejoin:round;stroke-miterlimit:22.9256;}
	.st154{fill-rule:evenodd;clip-rule:evenodd;fill:#954934;}
	.st155{fill-rule:evenodd;clip-rule:evenodd;fill:#A2543F;}
	.st156{fill-rule:evenodd;clip-rule:evenodd;fill:#9A5847;}
	.st157{fill-rule:evenodd;clip-rule:evenodd;fill:#AC6B5B;}
	.st158{fill-rule:evenodd;clip-rule:evenodd;fill:#883D29;}
	.st159{fill-rule:evenodd;clip-rule:evenodd;fill:#964D39;}
	.st160{fill:none;stroke:#6F0301;stroke-width:2.3309;stroke-linecap:round;stroke-miterlimit:10;}
	.st161{fill-rule:evenodd;clip-rule:evenodd;fill:#A6624F;}
	.st162{fill:none;stroke:#000000;stroke-width:0.3665;stroke-linecap:round;stroke-linejoin:round;stroke-miterlimit:22.9256;}
	.st163{fill:none;stroke:#000000;stroke-width:0.6333;stroke-linecap:round;stroke-linejoin:round;stroke-miterlimit:22.9256;}
	.st164{fill-rule:evenodd;clip-rule:evenodd;fill:#F7AA47;}
	.st165{fill-rule:evenodd;clip-rule:evenodd;fill:#FAC37A;}
	.st166{fill-rule:evenodd;clip-rule:evenodd;fill:#56698F;}
	.st167{fill-rule:evenodd;clip-rule:evenodd;fill:#6E7E9E;}
	.st168{fill-rule:evenodd;clip-rule:evenodd;fill:#008DD2;}
	.st169{fill-rule:evenodd;clip-rule:evenodd;fill:#188DCD;}
	.st170{fill-rule:evenodd;clip-rule:evenodd;fill:#209AD6;}
	.st171{fill-rule:evenodd;clip-rule:evenodd;fill:#AF9778;}
	.st172{fill-rule:evenodd;clip-rule:evenodd;fill:#FEFEFE;}
	.st173{fill-rule:evenodd;clip-rule:evenodd;}
	.st174{fill-rule:evenodd;clip-rule:evenodd;fill:#FECC00;}
	.st175{fill-rule:evenodd;clip-rule:evenodd;fill:#E31E24;}
	.st176{fill-rule:evenodd;clip-rule:evenodd;fill:#FFF7B2;}
	.st177{fill-rule:evenodd;clip-rule:evenodd;fill:#BBC274;}
	.st178{fill:none;stroke:#000000;stroke-width:0.2322;stroke-linecap:round;stroke-linejoin:round;stroke-miterlimit:22.9256;}
	.st179{fill-rule:evenodd;clip-rule:evenodd;fill:#898778;}
	.st180{fill:none;stroke:#000000;stroke-width:0.3166;stroke-linecap:round;stroke-linejoin:round;stroke-miterlimit:22.9256;}
	.st181{clip-path:url(#SVGID_00000109717173779330932230000017768311250214294449_);}
	.st182{fill:#D4CDE2;}
	.st183{fill:#ECB76B;}
	.st184{fill:#FDFCFA;}
	.st185{fill:#0D0617;}
	.st186{fill:#1E1E1E;}
	.st187{opacity:0.5;fill:#789BB9;}
	.st188{fill:none;stroke:#000000;stroke-width:0.9648;stroke-miterlimit:10;}
	.st189{fill:#E9A765;}
	.st190{fill:#F9EFFD;}
	.st191{fill:#CA8568;}
	.st192{fill:#F5DC3A;}
	.st193{fill-rule:evenodd;clip-rule:evenodd;fill:#70483A;}
	.st194{fill-rule:evenodd;clip-rule:evenodd;fill:#F9EFFD;}
	
		.st195{fill-rule:evenodd;clip-rule:evenodd;fill:none;stroke:#6F0301;stroke-width:2.3258;stroke-linecap:round;stroke-miterlimit:10;}
	.st196{fill-rule:evenodd;clip-rule:evenodd;fill:#3D2721;}
	.st197{fill-rule:evenodd;clip-rule:evenodd;fill:#ECB76B;}
	.st198{fill-rule:evenodd;clip-rule:evenodd;fill:#E9A765;}
	.st199{opacity:0.3;fill-rule:evenodd;clip-rule:evenodd;fill:#192031;}
	.st200{fill-rule:evenodd;clip-rule:evenodd;fill:#920505;}
	.st201{fill:#BA8F56;}
	.st202{fill:#6D0505;}
	.st203{fill-rule:evenodd;clip-rule:evenodd;fill:#C6C0C9;}
	.st204{fill-rule:evenodd;clip-rule:evenodd;fill:#C1C1C1;}
	.st205{clip-path:url(#SVGID_00000040563617266791349970000008442977133898426011_);}
	.st206{fill-rule:evenodd;clip-rule:evenodd;fill:none;}
	.st207{fill:#261C1D;}
	.st208{fill:#5C3E32;}
	.st209{fill:none;stroke:#563628;stroke-width:0.6534;stroke-miterlimit:10;}
	.st210{fill:#496900;}
	.st211{fill:#1A1C22;}
	.st212{fill:none;stroke:#FFFFFF;stroke-width:0.5;stroke-miterlimit:10;}
	.st213{fill:#A5A5A5;}
	.st214{fill:#77704B;}
	.st215{fill:none;stroke:#FFFFFF;stroke-width:0.3974;stroke-miterlimit:10;}
	.st216{fill:#85293A;}
	.st217{fill:#6A6364;}
	.st218{fill:#575F67;}
	.st219{fill:#A5694A;}
	.st220{fill:#6D5944;}
	.st221{fill:#6D6A48;}
	.st222{fill:#6B6530;}
	.st223{fill:#C6A589;}
	.st224{fill:#6B4B2E;}
	.st225{fill:#636042;}
	.st226{fill:#6B411C;}
	.st227{fill:#B7B7B7;}
	.st228{fill:#563D20;}
	.st229{fill:#3D2E25;}
	.st230{fill:#443227;}
	.st231{fill:#A8A39B;}
	.st232{fill:#5D726A;}
	.st233{fill:#43514B;}
	.st234{fill:#563320;}
	.st235{fill:#4F4D35;}
	.st236{fill:#A39E6F;}
	.st237{fill:#694D40;}
	.st238{fill:#86805F;}
	.st239{fill:#597745;}
	.st240{fill:none;stroke:#6F0301;stroke-width:2.1532;stroke-linecap:round;stroke-miterlimit:10;}
	.st241{fill:#5E3C2A;}
	.st242{clip-path:url(#SVGID_00000127742268716863784770000006116977385101876875_);}
	.st243{fill:#563628;}
	.st244{opacity:0.4;}
	.st245{fill:#A86B4A;}
	.st246{opacity:0.33;}
	.st247{opacity:0.72;}
	.st248{opacity:0.46;}
	.st249{opacity:0.2;}
</style>
<g id="Capa_4">
</g>
<g id="Capa_1">
</g>
<g id="Capa_3">
</g>
<g id="Capa_7">
	<path class="st75" d="M14,16H2c-1.1,0-2-0.9-2-2V2c0-1.1,0.9-2,2-2h12c1.1,0,2,0.9,2,2v12C16,15.1,15.1,16,14,16z"/>
	<g>
		<path class="st43" d="M1.73,7.58c0,0-0.29-0.01-0.36,0S0.96,6.31,1.34,5.49C1.18,5.46,1.18,5.46,1.18,5.46l0.45-0.3L1.37,5
			c0,0,1.08-0.07,1.8,0.55"/>
		<path class="st39" d="M1.54,5.32c0.59,0.02,0.99,0.08,1.48,0.5C3.04,5.91,2.69,6.5,2.69,6.5L1.91,7.34L1.46,7.33
			c0,0-0.21-0.93,0.11-1.58c0.18-0.34,0.18-0.34,0.18-0.34L1.54,5.32z"/>
		<path class="st43" d="M12.71,5.39c0.56-0.29,1.35-0.45,1.35-0.45l-0.28,0.16c0,0,0.28-0.06,0.54,0.47
			c0.26,0.53,0.4,1.29,0.18,1.55c-0.28,0.08-0.41,0.11-0.41,0.11L13.18,6.6L12.71,5.39z"/>
		<path class="st39" d="M13.01,5.71l0.36-0.2c0.16-0.08,0.35-0.04,0.46,0.1l0.27,0.36l0.23,0.95L14,7.1l-0.72-0.6l-0.37-0.71
			L13.01,5.71z"/>
		<path class="st38" d="M13.28,6.43c-0.61-1.59-2.34-3.9-4.42-4.25C7.11,2.01,5.21,2.87,3.7,4.6C3.51,4.82,3.36,5.07,3.23,5.33
			c-0.51,1.09-0.64,1.2-0.64,1.2s-3,2.66-1.11,5.1c1.64,1.29,4.87,2.88,7.5,2.96c0.69,0.02,4.23-1.22,6.24-4.6
			C15.27,9.2,14.88,7.68,13.28,6.43z"/>
		<path class="st44" d="M8.41,2.41c0,0,1.97,0.18,2.84,1.55c0.28-0.01,0.59,0.13,0.71,0.24c0,0-1.09-1.2-1.89-1.57
			c-0.71-0.35-1.07-0.5-1.37-0.47C8.59,2.26,8.41,2.41,8.41,2.41z"/>
		<path class="st38" d="M5.43,3.12c0,0,1.85-1.36,3.5-1.77C8.98,1.34,9.01,1.4,8.97,1.43C8.02,2.06,8.01,2.1,8.01,2.1
			s0.24-0.23,1.01-0.24c0.08,0,0.05,0.08-0.02,0.13C8.58,2.27,8.46,2.36,8.46,2.36"/>
		<path class="st42" d="M14.55,8.05c0,0,0.68,0.69,0.94,1.39c0.02,0.05-0.05,0.1-0.09,0.06c-0.46-0.42-0.56-0.61-0.56-0.61"/>
		<path class="st42" d="M14.99,10.06c0,0,0.18,0.25,0.27,0.47c0.01,0.02,0.04,0.02,0.04-0.01c-0.01-1.03-0.11-1.18-0.26-1.48"/>
		<path class="st42" d="M1.34,8.12c0.23-0.3,0.6-0.74,1.83-0.74C3.62,6.22,4.4,5.14,5.32,4.39c0.83-0.67,1.91-0.94,2.95-0.7
			c0.44,0.1,0.91,1.19,0.97,1.39c0.48-0.6,2.05-1.45,2.57-0.84l0.13,0.12c0.23,0.25,0.43,0.52,0.6,0.81l0.47,0.69l0.22,0.53
			c0,0,0.5,0.36,1.09,1.12c0.64,0.76,0.88,1.54,0.74,2.61c-0.23,0.75-1.26,2.29-2.38,3.05c-1.3,0.91-3.26,1.51-3.78,1.51
			c-0.63-0.04-1.49-0.1-2.88-0.58c-0.64-0.22-1.44-0.47-2.3-0.89c-0.84-0.46-1.54-0.94-2.12-1.41c-0.55-0.46-0.9-0.95-0.83-1.85
			C0.92,8.99,1.1,8.43,1.34,8.12z"/>
		<path class="st45" d="M4.82,6.92c-0.1-0.16,0.41,0.03,0.54,0.15c0.13,0.12,2.17,1.7,3.44,0.62c0.06-0.07,0.13-0.01,0.13-0.01
			L8.63,8.3C8.63,8.3,6.59,9.7,4.82,6.92z"/>
		<path class="st45" d="M12.84,7.4c0.07-0.18,0.14-0.17-0.02-0.08c-0.15,0.09-2.08,1.17-3.1-0.14c-0.04-0.08-0.03,0-0.03,0
			l0.02,0.38c0,0,1.95,1.92,2.98,0.24C12.77,7.7,12.78,7.54,12.84,7.4z"/>
		<path class="st42" d="M1.05,8.87c0,0-0.39,0.57-0.53,1.71c0,0.04,0.05,0.06,0.07,0.02C0.97,9.85,1.1,9.71,1.1,9.71"/>
		<path class="st42" d="M0.73,10.13c0,0-0.09,0.5,0.25,1.34c0.23-0.79,0.2-0.94,0.2-0.94"/>
		<path class="st42" d="M0.98,11.13c0,0,0.24,0.63,0.48,0.89c-0.04-0.66,0.01-0.8,0.01-0.8"/>
		<path class="st38" d="M5.43,3.12c0,0,1.87-1.37,3.52-1.77C9,1.34,9.03,1.4,8.99,1.42C8.02,2.06,8.01,2.1,8.01,2.1
			s0.24-0.23,1-0.24c0.08,0,0.13,0.12,0.05,0.16C8.62,2.18,8.42,2.37,8.42,2.37"/>
		<path class="st42" d="M1.05,8.87c0,0-0.44,0.45-0.57,1.62c0,0.03,0.08,0.17,0.1,0.14C0.97,9.86,1.1,9.71,1.1,9.71"/>
		<path class="st42" d="M0.73,10.13c0,0-0.09,0.5,0.25,1.34c0.13-0.87,0.2-0.94,0.2-0.94"/>
		<path class="st42" d="M0.98,11.13c0,0,0.24,0.63,0.48,0.89c-0.04-0.66,0.01-0.8,0.01-0.8"/>
		<path class="st86" d="M11.32,10.64L11.32,10.64c-0.15,0.53-0.53,0.97-1.03,1.2h0"/>
		<path class="st38" d="M6.87,4.22c0.56-0.09,3.14,0.72,1.96,3.61C8.7,8.14,8.63,8.28,8.56,8.53c1.3,0.08,2.71-0.15,2.71-0.15
			s-0.79-0.28-0.95-0.37c-0.49-0.27-0.7-0.76-0.74-1.35C9.57,6.4,9.55,6.12,9.6,5.83C9.72,5.16,10.09,4.46,10.98,4
			C9.36,3.06,8.97,2.82,8.97,2.82L6.87,4.22z"/>
		<g>
			<path class="st86" d="M9.44,9.99C8.95,9.56,8.6,9.36,8.12,9.22"/>
			<path class="st86" d="M9.07,10.22C8.51,9.91,8.12,9.78,7.62,9.74"/>
			<path class="st86" d="M8.98,10.45c-0.62-0.18-1.02-0.22-1.52-0.15"/>
			<circle class="st43" cx="9.71" cy="10.37" r="0.09"/>
			<circle class="st43" cx="9.27" cy="10.41" r="0.07"/>
			<circle class="st43" cx="9.2" cy="10.71" r="0.08"/>
		</g>
		<g>
			<path class="st86" d="M12.75,9.65c0.45-0.28,0.77-0.36,1.26-0.36"/>
			<path class="st86" d="M13.04,9.9c0.37-0.12,0.59-0.18,1.12-0.15"/>
			<path class="st86" d="M13.11,10.2c0.4-0.03,0.71-0.09,1.18,0.09"/>
			<circle class="st43" cx="12.41" cy="9.97" r="0.09"/>
			<circle class="st43" cx="12.83" cy="10.1" r="0.07"/>
			<circle class="st43" cx="12.83" cy="10.41" r="0.08"/>
		</g>
		<path class="st38" d="M4.8,4.84C5.3,4.37,6.67,3.81,8.25,4.65C7.87,3.09,7.89,2.89,7.3,2.93C6.72,2.97,5.6,3.52,5.24,3.79
			S4.8,4.84,4.8,4.84z"/>
		<path class="st86" d="M6.93,14.42c0,0,1.49,0.37,2.72,0.06c1.43-0.36,2.35-0.85,3.67-1.83c1.14-0.87,1.75-2.48,1.75-2.48
			l0.18,0.36c0.02,0.04,0.08,0.03,0.08-0.02c0.07-0.68-0.16-1.26-0.16-1.26l0.28,0.28c0.03,0.03,0.08,0,0.07-0.04
			c-0.11-0.43-0.51-0.91-0.51-0.91s-0.16-0.37-0.69-1.12c-0.62-0.86-1.05-1.04-1.05-1.04c-0.09-0.41-0.57-1.1-0.57-1.1
			s-0.05-0.15-0.47-0.74c-0.33-0.47-0.98-1.16-1.71-1.69C9.52,2.2,8.77,2.16,8.77,2.16"/>
		<path class="st42" d="M4.78,6.82h2.99c0,0-1.49-0.94-1.55-0.95C6.17,5.87,5,6.18,5,6.18L4.78,6.82z"/>
		<g>
			<path class="st46" d="M6.93,10.53c-1.22-0.56-1.7-0.76-2.18-0.48c-0.3,0.18-0.5,0.6-0.45,0.92c0.1,0.68,0.63,1.14,1.14,1.42
				c0.65,0.35,3.75,2.07,6.65,0.67c0.39-0.2,0.82-0.64,0.7-1.15c-0.09-0.38-0.43-0.65-0.8-0.63c-0.19,0.01-0.42,0.07-0.75,0.13
				C10.58,11.56,9,11.47,6.93,10.53z"/>
			<path class="st86" d="M6.93,10.53c-1.22-0.56-1.7-0.76-2.18-0.48c-0.3,0.18-0.5,0.6-0.45,0.92c0.1,0.68,0.63,1.14,1.14,1.42
				c0.65,0.35,3.75,2.07,6.65,0.67c0.39-0.2,0.82-0.64,0.7-1.15c-0.09-0.38-0.43-0.65-0.8-0.63c-0.19,0.01-0.42,0.07-0.75,0.13
				C10.58,11.56,9,11.47,6.93,10.53z"/>
			<path class="st39" d="M6.22,10.85c0.61,0.26,3.03,1.55,4.65,1.21c1.24-0.25,1.42-0.22,1.53,0.03c0.03,0.12-0.11,0.34-0.56,0.56
				c-0.46,0.22-1.57,0.67-3.44,0.17c-0.52-0.14-1.02-0.3-1.45-0.46c-1.12-0.41-1.83-0.87-1.72-1.37
				C5.26,10.78,5.48,10.53,6.22,10.85z"/>
			<path class="st86" d="M6.22,10.85c0.61,0.26,3.03,1.55,4.65,1.21c1.24-0.25,1.42-0.22,1.53,0.03c0.03,0.12-0.11,0.34-0.56,0.56
				c-0.46,0.22-1.57,0.67-3.44,0.17c-0.52-0.14-1.02-0.3-1.45-0.46c-1.12-0.41-1.83-0.87-1.72-1.37
				C5.26,10.78,5.48,10.53,6.22,10.85z"/>
			<path class="st47" d="M6.95,12.36c0,0,0.93-0.51,2.22,0.13c0.33-0.06,1.12-0.29,1.58,0.51c0,0-0.43,0.06-0.6,0.06
				C9.97,13.06,8.22,13.02,6.95,12.36z"/>
			<path class="st86" d="M6.95,12.36c0,0,0.93-0.51,2.22,0.13c0.33-0.06,1.17-0.32,1.63,0.48c0,0-0.48,0.07-0.66,0.07
				C9.96,13.04,8.22,13.02,6.95,12.36z"/>
		</g>
		<path class="st41" d="M7.77,2.18c0.47-0.33,0.79-0.52,0.79-0.52l0.49-0.33l-0.62,0.2c0,0-0.28,0.06-1.44,0.61
			c-1.26,0.6-2.71,1.87-3.07,2.21c-0.34,0.27-1.03,1.62-1.1,1.87C2.74,6.47,2.06,7.16,1.66,7.59C1.21,8.1,1.01,8.96,1.01,8.96
			S0.92,9.07,0.86,9.12C0.8,9.16,0.55,9.83,0.5,10.29c-0.01,0.58,0.08,0.35,0.22,0.03c-0.03,0.09-0.02,0.44,0.09,0.79
			c0.11,0.36,0.18,0.35,0.18,0.35s0,0,0.06-0.24c0,0.06-0.02,0.22,0.18,0.51c0.26,0.53,0.25,0.23,0.24-0.08
			c0.29,0.28,0.56,0.51,0.72,0.61c0.16,0.1,0.46,0.44,1.36,0.9c0.83,0.44,2.22,0.88,3.37,1.27c-0.22-0.1-1.83-1.18-2.49-1.48
			c-0.72-0.33-1.56-0.93-1.87-1.24c-0.31-0.32-0.38-0.44-0.4-0.58c-0.02-0.15-0.11-0.26-0.13-0.47c-0.02-0.2-0.02-0.25-0.07-0.31
			c-0.05-0.06,0.16-0.46,0.08-0.68c-0.07-0.22,0.5-1.64,0.67-1.88C2.89,7.53,3.1,6.61,4.01,5.4c0.2-0.29,0.5-0.7,0.77-0.98
			c0.98-1.04,2.36-1.74,3.68-2.28C8.79,2,9.02,1.9,9.02,1.9s0.05,0,0.02-0.03C8.59,1.87,8.06,2.06,7.77,2.18z"/>
		<path class="st86" d="M7.11,14.47l-2.47-0.87c-0.92-0.32-1.78-0.78-2.55-1.39c-0.26-0.21-0.49-0.41-0.61-0.58
			c0.01,0.16,0.01,0.25,0.01,0.32c0,0.05-0.06,0.06-0.09,0.03c-0.1-0.15-0.3-0.45-0.34-0.66c-0.08,0.31-0.18,0.01-0.18,0.01
			s-0.21-0.58-0.18-0.93c-0.23,0.46-0.22,0.01-0.22,0.01s0.13-1,0.53-1.46c0.03-0.28,0.39-1.1,0.96-1.75s0.71-0.62,1.16-1.67
			c0.32-0.57,0.8-1.55,2.75-2.73c1.12-0.7,2.12-1.24,3.22-1.5c0.02,0,0.02,0.02,0.01,0.03C7.96,2.09,7.79,2.18,7.73,2.23
			c-0.06,0.05,0.48-0.4,1.32-0.37c0.05,0,0.06,0.07,0.02,0.09c-0.5,0.26-0.66,0.46-0.66,0.46"/>
		<g>
			<path class="st48" d="M4.72,5.56c0,0,1.81-1.2,3.49-0.33C8.07,5.06,7.51,4.69,6.57,4.67c0,0-1.14,0.14-1.79,0.79
				C4.71,5.51,4.72,5.56,4.72,5.56z"/>
			<path class="st48" d="M10.31,5c0,0,1.07-0.36,1.81,0.42c-0.07-0.25-0.34-0.57-0.78-0.65C11,4.72,10.51,4.78,10.31,5z"/>
			<path class="st49" d="M9.97,5.64c0,0,1.75-0.52,2.56,0.26c-0.07-0.25-0.39-0.51-0.83-0.59C11.36,5.25,10.47,5.19,9.97,5.64z"/>
			<path class="st48" d="M5.22,5.82c0,0,2.79-1.03,3.63,0.28c0.07-0.38-0.36-0.74-0.79-0.83C7.71,5.23,6.82,4.89,5.22,5.82z"/>
			<path class="st50" d="M4.71,6.52c0.04-0.09,0.14-0.14,0.24-0.13c0.22,0.02,0.19,0.02,0.33-0.03c0.15-0.05,2.49-1.4,3.6-0.16
				c0.23,0.29,0.55,1.45-0.59,1.78C7.71,8.07,7.1,8.25,5.74,7.32C5.16,6.95,5.11,6.93,5.11,6.93S4.58,6.79,4.71,6.52z"/>
			<path class="st45" d="M9.04,6.73c0.03,0.55-1.11,1.75-3.19,0.61C6.19,7.6,6.99,8.19,8.07,8C8.5,7.93,9.18,7.7,9.08,6.92
				C9.02,6.86,9.04,6.73,9.04,6.73z"/>
			<path class="st86" d="M4.7,6.53c0.04-0.09,0.15-0.15,0.25-0.14c0.22,0.02,0.2,0.02,0.33-0.03c0.15-0.05,2.49-1.4,3.6-0.16
				c0.21,0.27,0.47,1.22-0.33,1.7C8.43,7.97,8.29,7.99,8.15,8.01C7.6,8.09,6.99,8.17,5.74,7.32C5.16,6.95,5.11,6.93,5.11,6.93
				S4.6,6.8,4.7,6.53z"/>
			<path class="st50" d="M9.59,6.46c0,0,0.21,0.5,0.14,0.78c0.1,0.07,0.02,0.07,0.23,0.16c0.21,0.1,1.6,1.03,2.48,0.32
				c0.27-0.23,1.08-0.83,0.19-1.58c-0.39-0.26-1.36-0.6-2.3-0.16C9.6,6.3,9.8,6.28,9.71,6.33C9.62,6.39,9.59,6.46,9.59,6.46z"/>
			<path class="st45" d="M9.66,6.98c0,0,0.69,0.41,0.78,0.45c0.09,0.05,1.71,0.84,2.53-0.68c0,0,0.07,0.22,0.04,0.31
				c-0.04,0.09-0.48,0.59-0.48,0.59s-0.37,0.3-0.57,0.32c-0.19,0.01-1.02,0.11-1.58-0.3C9.87,7.38,9.69,7.3,9.69,7.3L9.66,6.98z"/>
			<path class="st86" d="M9.61,6.45c0,0,0.04,0.5,0.11,0.79c0.1,0.07,0.36,0.24,0.53,0.36c0.18,0.12,1.1,0.6,1.95,0.24
				c0.15-0.06,0.29-0.16,0.41-0.27c0.32-0.28,0.76-0.79,0-1.43c-0.39-0.26-1.36-0.6-2.3-0.16C9.6,6.3,9.61,6.45,9.61,6.45z"/>
			<circle class="st51" cx="7.31" cy="6.79" r="0.72"/>
			<circle class="st52" cx="7.36" cy="6.81" r="0.57"/>
			<ellipse transform="matrix(0.9484 -0.317 0.317 0.9484 -1.6931 2.7661)" class="st53" cx="7.65" cy="6.59" rx="0.16" ry="0.17"/>
			<circle class="st51" cx="11.08" cy="6.75" r="0.67"/>
			<circle class="st52" cx="11.08" cy="6.75" r="0.5"/>
			
				<ellipse transform="matrix(0.8918 -0.4524 0.4524 0.8918 -1.7182 5.8571)" class="st53" cx="11.39" cy="6.52" rx="0.14" ry="0.17"/>
			<path class="st86" d="M5.19,5.8c1.45-1.03,3.94-0.74,3.69,0.4"/>
			<path class="st86" d="M4.71,5.51c0.22-0.23,0.73-0.64,1.55-0.78"/>
			<path class="st86" d="M6.51,4.66C6.84,4.64,8.1,4.82,8.27,5.32"/>
			<path class="st86" d="M9.96,5.6c0.99-0.6,2.64-0.44,2.73,0.61"/>
			<path class="st86" d="M10.3,4.95c0.63-0.35,1.52-0.31,1.89,0.51"/>
			<path class="st86" d="M6.8,8.2c0.3,0.19,1.49,0.35,1.83-0.36"/>
			<path class="st86" d="M11.98,8.21c0.29-0.03,0.82-0.2,0.84-0.78"/>
		</g>
		<path class="st38" d="M10.27,9.46c0,0-2.33-0.03-1.62-1.2c0.71-1.17,1.55,0.11,1.55,0.11l0.96,0.14"/>
		<path class="st43" d="M11.14,10.73c-0.79-0.61-1.31-1.06-1.51-1.43C9.48,9.03,9.6,8.69,9.87,8.59c0.92-0.33,2.2-0.49,3.05,0.23
			c0.07,0.06,0.1,0.17,0.06,0.26c-0.23,0.48-0.95,1.4-1.47,1.67C11.38,10.83,11.25,10.81,11.14,10.73z"/>
		<ellipse class="st54" cx="11.56" cy="9.14" rx="0.99" ry="0.35"/>
	</g>
</g>
</svg>
