<svg width="40" height="40" viewBox="0 0 40 40" fill="none" xmlns="http://www.w3.org/2000/svg">
<g id="Group">
<path id="Vector" fill-rule="evenodd" clip-rule="evenodd" d="M20 0C31.0465 0 40 8.95353 40 20C40 31.0465 31.0465 40 20 40C8.95353 40 0 31.0465 0 20C0 8.95353 8.95353 0 20 0Z" fill="#F0B90B"/>
<path id="Vector_2" d="M10.992 20L11.0064 25.2885L15.5 27.9327V31.0288L8.3766 26.851V18.4535L10.992 20ZM10.992 14.7115V17.7933L8.375 16.2452V13.1635L10.992 11.6154L13.6218 13.1635L10.992 14.7115ZM17.3766 13.1635L19.9936 11.6154L22.6234 13.1635L19.9936 14.7115L17.3766 13.1635Z" fill="white"/>
<path id="Vector_3" d="M12.8828 24.1923V21.0962L15.4998 22.6442V25.726L12.8828 24.1923ZM17.3764 29.0417L19.9934 30.5897L22.6232 29.0417V32.1234L19.9934 33.6715L17.3764 32.1234V29.0417ZM26.3764 13.1635L28.9934 11.6154L31.6232 13.1635V16.2452L28.9934 17.7933V14.7115L26.3764 13.1635ZM28.9934 25.2885L29.0078 20L31.6248 18.4519V26.8494L24.5014 31.0272V27.9311L28.9934 25.2885Z" fill="white"/>
<path id="Vector_4" d="M27.117 24.1923L24.5 25.726V22.6442L27.117 21.0962V24.1923Z" fill="white"/>
<path id="Vector_5" d="M27.1168 15.8077L27.1312 18.9038L22.6248 21.5481V26.8494L20.0078 28.383L17.3908 26.8494V21.5481L12.8844 18.9038V15.8077L15.5126 14.2596L19.9918 16.9167L24.4982 14.2596L27.128 15.8077H27.1168ZM12.8828 10.5208L19.9934 6.32852L27.1168 10.5208L24.4998 12.0689L19.9934 9.41185L15.4998 12.0689L12.8828 10.5208Z" fill="white"/>
</g>
</svg>
