<svg width="40" height="40" viewBox="0 0 40 40" fill="none" xmlns="http://www.w3.org/2000/svg">
<g id="USDT ICON" clip-path="url(#clip0_1421_1314)">
<path id="Vector" d="M20 0C31.0452 0 40 8.9548 40 20C40 31.0452 31.0448 40 20 40C8.9552 40 0 31.0476 0 20C0 8.9524 8.9536 0 20 0Z" fill="#53AE94"/>
<path id="Vector_2" d="M22.4687 17.3352V14.36H29.2723V9.82681H10.7459V14.36H17.5503V17.3328C12.0203 17.5868 7.8623 18.682 7.8623 19.994C7.8623 21.306 12.0223 22.4012 17.5503 22.6568V32.1868H22.4703V22.656C27.9903 22.4012 32.1399 21.3068 32.1399 19.996C32.1399 18.6852 27.9903 17.5908 22.4703 17.336M22.4703 21.8488V21.8464C22.3315 21.8552 21.6183 21.898 20.0303 21.898C18.7607 21.898 17.8675 21.862 17.5527 21.8456V21.8496C12.6671 21.6332 9.0203 20.7824 9.0203 19.7644C9.0203 18.7464 12.6675 17.8968 17.5527 17.68V21.002C17.8727 21.024 18.7879 21.078 20.0511 21.078C21.5683 21.078 22.3311 21.0148 22.4711 21.002V17.68C27.3471 17.8972 30.9855 18.7488 30.9855 19.7632C30.9855 20.7776 27.3455 21.6296 22.4711 21.8468" fill="white"/>
</g>
<defs>
<clipPath id="clip0_1421_1314">
<rect width="40" height="40" fill="white"/>
</clipPath>
</defs>
</svg>
