<svg width="28" height="24" viewBox="0 0 28 24" fill="none" xmlns="http://www.w3.org/2000/svg">
<g id="tether-usdt-logo 1" clip-path="url(#clip0_1186_2730)">
<path id="Vector" fill-rule="evenodd" clip-rule="evenodd" d="M5.25676 0.117874L0.226248 10.6845C0.207105 10.7238 0.201039 10.7682 0.208937 10.8112C0.216834 10.8542 0.238281 10.8935 0.27014 10.9234L13.8563 23.9423C13.8949 23.9793 13.9463 24 13.9998 24C14.0533 24 14.1047 23.9793 14.1433 23.9423L27.7295 10.9243C27.7613 10.8943 27.7828 10.855 27.7907 10.812C27.7986 10.769 27.7925 10.7246 27.7734 10.6853L22.7429 0.118687C22.7266 0.0831997 22.7005 0.0531376 22.6677 0.0320934C22.6348 0.0110491 22.5966 -8.70516e-05 22.5575 1.57299e-05H5.44371C5.4045 -0.000472091 5.36599 0.0103958 5.33281 0.0313085C5.29964 0.0522212 5.27323 0.0822852 5.25676 0.117874Z" fill="#50AF95"/>
<path id="Vector_2" fill-rule="evenodd" clip-rule="evenodd" d="M15.7453 11.7696C15.6477 11.7769 15.1438 11.807 14.0197 11.807C13.1256 11.807 12.4908 11.7801 12.268 11.7696C8.81277 11.6176 6.23371 11.0161 6.23371 10.2959C6.23371 9.57578 8.81277 8.97511 12.268 8.82067V11.1705C12.494 11.1868 13.141 11.225 14.0351 11.225C15.108 11.225 15.6453 11.1803 15.742 11.1713V8.8223C19.19 8.97592 21.7634 9.57741 21.7634 10.2959C21.7634 11.0145 19.1908 11.6159 15.742 11.7688L15.7453 11.7696ZM15.7453 8.57927V6.47652H20.5571V3.26996H7.45618V6.47652H12.2672V8.57846C8.35678 8.75809 5.41602 9.5327 5.41602 10.4609C5.41602 11.3892 8.35678 12.163 12.2672 12.3434V19.0817H15.7445V12.341C19.646 12.1613 22.5819 11.3875 22.5819 10.4601C22.5819 9.5327 19.6484 8.7589 15.7445 8.57846L15.7453 8.57927Z" fill="white"/>
</g>
<defs>
<clipPath id="clip0_1186_2730">
<rect width="27.5894" height="24" fill="white" transform="translate(0.205078)"/>
</clipPath>
</defs>
</svg>
